{
.appVersion = "3137";
DisplayStrings = (
"ABCDEFGHIJKLMNOPQRSTUVWXYZ/space/space \0121234567890/space/space/space",
"/space DIE/space GNU/space TYPOGRAFIE/space \012",
BLOCKSPACER
);
copyright = "Copyright 2019 The Blocksyncer Project Authors (https://github.com/eliheuer/blocksyncer)";
customParameters = (
{
name = "Axis Mappings";
value = {
wght = {
700 = 180;
800 = 200;
900 = 220;
};
};
},
{
name = fsType;
value = (
);
},
{
name = "Disable Last Change";
value = 1;
},
{
name = "Use Typo Metrics";
value = 1;
},
{
name = "Use Line Breaks";
value = 1;
},
{
name = "Enforce Compatibility Check";
value = 0;
},
{
name = vendorID;
value = GTL;
},
{
name = licenseURL;
value = "https://scripts.sil.org/OFL";
},
{
name = license;
value = "This Font Software is licensed under the SIL Open Font License, Version 1.1. This license is available with a FAQ at: https://scripts.sil.org/OFL";
},
{
name = Axes;
value = (
{
Name = Weight;
Tag = wght;
}
);
}
);
date = "2021-11-25 19:11:22 +0000";
designer = "Eli Heuer";
designerURL = "https://elih.blog";
familyName = Blocksyncer;
fontMaster = (
{
alignmentZones = (
"{740, 10}",
"{700, 10}",
"{530, 10}",
"{0, -10}",
"{-225, -10}"
);
ascender = 740;
capHeight = 700;
customParameters = (
{
name = hheaAscender;
value = 935;
},
{
name = hheaDescender;
value = -371;
},
{
name = hheaLineGap;
value = 0;
},
{
name = typoAscender;
value = 935;
},
{
name = typoDescender;
value = -371;
},
{
name = typoLineGap;
value = 0;
},
{
name = underlinePosition;
value = -99;
},
{
name = winAscent;
value = 989;
},
{
name = winDescent;
value = 415;
}
);
descender = -225;
iconName = SemiBold_Condensed;
id = m01;
name = Bold;
visible = 1;
weight = SemiBold;
xHeight = 530;
},
{
alignmentZones = (
"{740, 10}",
"{700, 10}",
"{530, 10}",
"{0, -10}",
"{-225, -10}"
);
ascender = 740;
capHeight = 700;
custom = Black;
customParameters = (
{
name = hheaAscender;
value = 935;
},
{
name = hheaDescender;
value = -371;
},
{
name = hheaLineGap;
value = 0;
},
{

glyphs = (
{
color = 5;
glyphname = A;
layers = (
{
anchors = (
{
name = bottom;
position = "{240, 0}";
},
{
name = tmp;
position = "{240, 290}";
},
{
name = top;
position = "{240, 700}";
}
);
layerId = m01;
paths = (
{
closed = 1;
nodes = (
"152 0 LINE SMOOTH",
"172 0 OFFCURVE",
"189 9 OFFCURVE",
"192 40 CURVE SMOOTH",
"200 130 LINE SMOOTH",
"201 145 OFFCURVE",
"205 150 OFFCURVE",
"220 150 CURVE SMOOTH",
"260 150 LINE SMOOTH",
"275 150 OFFCURVE",
"279 145 OFFCURVE",
"280 130 CURVE SMOOTH",
"288 40 LINE SMOOTH",
"291 9 OFFCURVE",
"308 0 OFFCURVE",
"328 0 CURVE SMOOTH",
"430 0 LINE SMOOTH",
"460 0 OFFCURVE",
"470 10 OFFCURVE",
"470 40 CURVE SMOOTH",
"470 50 OFFCURVE",
"467 79 OFFCURVE",
"460 128 CURVE SMOOTH",
"392 640 LINE SMOOTH",
"387 680 OFFCURVE",
"380 700 OFFCURVE",
"340 700 CURVE SMOOTH",
"140 700 LINE SMOOTH",
"100 700 OFFCURVE",
"93 680 OFFCURVE",
"88 640 CURVE SMOOTH",
"20 128 LINE SMOOTH",
"14 82 OFFCURVE",
"10 50 OFFCURVE",
"10 40 CURVE SMOOTH",
"10 10 OFFCURVE",
"20 0 OFFCURVE",
"50 0 CURVE SMOOTH"
);
},
{
closed = 1;
nodes = (
"214 290 OFFCURVE",
"210 295 OFFCURVE",
"210 306 CURVE SMOOTH",
"210 313 OFFCURVE",
"210 320 OFFCURVE",
"211 331 CURVE SMOOTH",
"225 530 LINE SMOOTH",
"226 541 OFFCURVE",
"230 550 OFFCURVE",
"240 550 CURVE SMOOTH",
"250 550 OFFCURVE",
"254 541 OFFCURVE",
"255 530 CURVE SMOOTH",
"269 331 LINE SMOOTH",
"270 320 OFFCURVE",
"270 313 OFFCURVE",
"270 306 CURVE SMOOTH",
"270 295 OFFCURVE",
"265 290 OFFCURVE",
"250 290 CURVE SMOOTH",
"230 290 LINE SMOOTH"
);
}
);
width = 480;
},
{
anchors = (
{
name = bottom;
position = "{270, 0}";
},
{
name = tmp;
position = "{270, 290}";
},
{
name = top;
position = "{270, 700}";
}
);
associatedMasterId = m01;
layerId = "5D24E92C-7759-4DC5-8685-4175C3E8CE77";
name = "Sep 12, 22, 19:56";
paths = (
{
closed = 1;
nodes = (
"155 0 LINE SMOOTH",
"175 0 OFFCURVE",
"189 10 OFFCURVE",
"195 40 CURVE SMOOTH",
"210 120 LINE SMOOTH",
"214 141 OFFCURVE",
"220 150 OFFCURVE",
"240 150 CURVE SMOOTH",
"300 150 LINE SMOOTH",
"320 150 OFFCURVE",
"326 141 OFFCURVE",
"330 120 CURVE SMOOTH",
"345 40 LINE SMOOTH",
"351 10 OFFCURVE",
"365 0 OFFCURVE",
"385 0 CURVE SMOOTH",
"490 0 LINE SMOOTH",
"520 0 OFFCURVE",
"530 10 OFFCURVE",
"530 40 CURVE SMOOTH",
"530 80 OFFCURVE",
"435 530 OFFCURVE",
"412 640 CURVE SMOOTH",
"402 690 OFFCURVE",
"390 700 OFFCURVE",
"360 700 CURVE SMOOTH",
"180 700 LINE SMOOTH",
"150 700 OFFCURVE",
"138 690 OFFCURVE",
"128 640 CURVE SMOOTH",
"105 530 OFFCURVE",
"10 80 OFFCURVE",
"10 40 CURVE SMOOTH",
"10 10 OFFCURVE",
"20 0 OFFCURVE",
"50 0 CURVE SMOOTH"
);
},
{
closed = 1;
nodes = (
"235 290 OFFCURVE",
"230 295 OFFCURVE",
"230 310 CURVE SMOOTH",
"230 330 OFFCURVE",
"243 420 OFFCURVE",
"256 530 CURVE SMOOTH",
"257 540 OFFCURVE",
"260 550 OFFCURVE",
"270 550 CURVE SMOOTH",
"280 550 OFFCURVE",
"282 539 OFFCURVE",
"283 530 CURVE SMOOTH",
"297 419 OFFCURVE",
"310 330 OFFCURVE",
"310 310 CURVE SMOOTH",
"310 295 OFFCURVE",
"305 290 OFFCURVE",
"290 290 CURVE SMOOTH",
"250 290 LINE SMOOTH"
);
}
);
width = 540;
},
{
anchors = (
{
name = bottom;
position = "{240, 0}";
},
{
name = tmp;
position = "{240, 290}";
},
{
name = top;
position = "{240, 700}";
}
);
layerId = "6ABCF30A-460E-4EED-802C-9E4699B7E7F6";
paths = (
{
closed = 1;
nodes = (
"152 0 LINE SMOOTH",
"172 0 OFFCURVE",
"189 9 OFFCURVE",
"192 40 CURVE SMOOTH",
"200 130 LINE SMOOTH",
"201 145 OFFCURVE",
"205 150 OFFCURVE",
"220 150 CURVE SMOOTH",
"260 150 LINE SMOOTH",
"275 150 OFFCURVE",
"279 145 OFFCURVE",
"280 130 CURVE SMOOTH",
"288 40 LINE SMOOTH",
"291 9 OFFCURVE",
"308 0 OFFCURVE",
"328 0 CURVE SMOOTH",
"430 0 LINE SMOOTH",
"460 0 OFFCURVE",
"470 10 OFFCURVE",
"470 40 CURVE SMOOTH",
"470 50 OFFCURVE",
"467 79 OFFCURVE",
"460 128 CURVE SMOOTH",
"392 640 LINE SMOOTH",
"387 680 OFFCURVE",
"380 700 OFFCURVE",
"340 700 CURVE SMOOTH",
"140 700 LINE SMOOTH",
"100 700 OFFCURVE",
"93 680 OFFCURVE",
"88 640 CURVE SMOOTH",
"20 128 LINE SMOOTH",
"14 82 OFFCURVE",
"10 50 OFFCURVE",
"10 40 CURVE SMOOTH",
"10 10 OFFCURVE",
"20 0 OFFCURVE",
"50 0 CURVE SMOOTH"
);
},
{
closed = 1;
nodes = (
"214 290 OFFCURVE",
"210 295 OFFCURVE",
"210 306 CURVE SMOOTH",
"210 313 OFFCURVE",
"210 320 OFFCURVE",
"211 331 CURVE SMOOTH",
"225 530 LINE SMOOTH",
"226 541 OFFCURVE",
"230 550 OFFCURVE",
"240 550 CURVE SMOOTH",
"250 550 OFFCURVE",
"254 541 OFFCURVE",
"255 530 CURVE SMOOTH",
"269 331 LINE SMOOTH",
"270 320 OFFCURVE",
"270 313 OFFCURVE",
"270 306 CURVE SMOOTH",
"270 295 OFFCURVE",
"265 290 OFFCURVE",
"250 290 CURVE SMOOTH",
"230 290 LINE SMOOTH"
);
}
);
width = 480;
}
);
leftKerningGroup = A;
rightKerningGroup = A;
unicode = 0041;
},
{
color = 5;
glyphname = B;
layers = (
{
layerId = m01;
paths = (
{
closed = 1;
nodes = (
"300 0 LINE SMOOTH",
"420 0 OFFCURVE",
"470 69 OFFCURVE",
"470 180 CURVE SMOOTH",
"470 219 LINE SMOOTH",
"470 295 OFFCURVE",
"414 346 OFFCURVE",
"390 360 CURVE SMOOTH",
"383 364 OFFCURVE",
"380 365 OFFCURVE",
"380 370 CURVE SMOOTH",
"380 375 OFFCURVE",
"384 377 OFFCURVE",
"390 380 CURVE SMOOTH",
"414 393 OFFCURVE",
"450 429 OFFCURVE",
"450 520 CURVE SMOOTH",
"450 630 OFFCURVE",
"380 700 OFFCURVE",
"270 700 CURVE SMOOTH",
"60 700 LINE SMOOTH",
"30 700 OFFCURVE",
"20 690 OFFCURVE",
"20 660 CURVE SMOOTH",
"20 40 LINE SMOOTH",
"20 10 OFFCURVE",
"29 0 OFFCURVE",
"59 0 CURVE SMOOTH"
);
},
{
closed = 1;
nodes = (
"205 140 OFFCURVE",
"200 145 OFFCURVE",
"200 160 CURVE SMOOTH",
"200 270 LINE SMOOTH",
"200 285 OFFCURVE",
"205 290 OFFCURVE",
"220 290 CURVE SMOOTH",
"240 290 LINE SMOOTH",
"265 290 OFFCURVE",
"280 270 OFFCURVE",
"280 240 CURVE SMOOTH",
"280 190 LINE SMOOTH",
"280 160 OFFCURVE",
"266 140 OFFCURVE",
"240 140 CURVE SMOOTH",
"220 140 LINE SMOOTH"
);
},
{
closed = 1;
nodes = (
"205 430 OFFCURVE",
"200 435 OFFCURVE",
"200 450 CURVE SMOOTH",
"200 540 LINE SMOOTH",
"200 555 OFFCURVE",
"205 560 OFFCURVE",
"220 560 CURVE SMOOTH",
"240 560 LINE SMOOTH",
"270 560 OFFCURVE",
"280 550 OFFCURVE",
"280 520 CURVE SMOOTH",
"280 470 LINE SMOOTH",
"280 440 OFFCURVE",
"270 430 OFFCURVE",
"240 430 CURVE SMOOTH",
"220 430 LINE SMOOTH"
);
}
);
width = 480;
},
{
layerId = "6ABCF30A-460E-4EED-802C-9E4699B7E7F6";
paths = (
{
closed = 1;
nodes = (
"300 0 LINE SMOOTH",
"420 0 OFFCURVE",
"470 69 OFFCURVE",
"470 180 CURVE SMOOTH",
"470 219 LINE SMOOTH",
"470 295 OFFCURVE",
"414 346 OFFCURVE",
"390 360 CURVE SMOOTH",
"383 364 OFFCURVE",
"380 365 OFFCURVE",
"380 370 CURVE SMOOTH",
"380 375 OFFCURVE",
"384 377 OFFCURVE",
"390 380 CURVE SMOOTH",
"414 393 OFFCURVE",
"450 429 OFFCURVE",
"450 520 CURVE SMOOTH",
"450 630 OFFCURVE",
"380 700 OFFCURVE",
"270 700 CURVE SMOOTH",
"60 700 LINE SMOOTH",
"30 700 OFFCURVE",
"20 690 OFFCURVE",
"20 660 CURVE SMOOTH",
"20 40 LINE SMOOTH",
"20 10 OFFCURVE",
"29 0 OFFCURVE",
"59 0 CURVE SMOOTH"
);
},
{
closed = 1;
nodes = (
"205 140 OFFCURVE",
"200 145 OFFCURVE",
"200 160 CURVE SMOOTH",
"200 270 LINE SMOOTH",
"200 285 OFFCURVE",
"205 290 OFFCURVE",
"220 290 CURVE SMOOTH",
"240 290 LINE SMOOTH",
"265 290 OFFCURVE",
"280 270 OFFCURVE",
"280 240 CURVE SMOOTH",
"280 190 LINE SMOOTH",
"280 160 OFFCURVE",
"266 140 OFFCURVE",
"240 140 CURVE SMOOTH",
"220 140 LINE SMOOTH"
);
},
{
closed = 1;
nodes = (
"205 430 OFFCURVE",
"200 435 OFFCURVE",
"200 450 CURVE SMOOTH",
"200 540 LINE SMOOTH",
"200 555 OFFCURVE",
"205 560 OFFCURVE",
"220 560 CURVE SMOOTH",
"240 560 LINE SMOOTH",
"270 560 OFFCURVE",
"280 550 OFFCURVE",
"280 520 CURVE SMOOTH",
"280 470 LINE SMOOTH",
"280 440 OFFCURVE",
"270 430 OFFCURVE",
"240 430 CURVE SMOOTH",
"220 430 LINE SMOOTH"
);
}
);
width = 480;
}
);
leftKerningGroup = H;
rightKerningGroup = B;
unicode = 0042;
},
{
color = 5;
glyphname = C;
layers = (
{
layerId = m01;
paths = (
{
closed = 1;
nodes = (
"375 -10 OFFCURVE",
"455 60 OFFCURVE",
"455 200 CURVE SMOOTH",
"455 240 LINE SMOOTH",
"455 270 OFFCURVE",
"445 280 OFFCURVE",
"415 280 CURVE SMOOTH",
"315 280 LINE SMOOTH",
"285 280 OFFCURVE",
"275 270 OFFCURVE",
"275 240 CURVE SMOOTH",
"275 180 LINE SMOOTH",
"275 150 OFFCURVE",
"266 130 OFFCURVE",
"235 130 CURVE SMOOTH",
"205 130 OFFCURVE",
"195 150 OFFCURVE",
"195 180 CURVE SMOOTH",
"195 520 LINE SMOOTH",
"195 550 OFFCURVE",
"205 570 OFFCURVE",
"235 570 CURVE SMOOTH",
"265 570 OFFCURVE",
"275 550 OFFCURVE",
"275 520 CURVE SMOOTH",
"275 460 LINE SMOOTH",
"275 430 OFFCURVE",
"285 420 OFFCURVE",
"315 420 CURVE SMOOTH",
"415 420 LINE SMOOTH",
"445 420 OFFCURVE",
"455 430 OFFCURVE",
"455 460 CURVE SMOOTH",
"455 500 LINE SMOOTH",
"455 640 OFFCURVE",
"375 710 OFFCURVE",
"235 710 CURVE SMOOTH",
"95 710 OFFCURVE",
"15 640 OFFCURVE",
"15 500 CURVE SMOOTH",
"15 200 LINE SMOOTH",
"15 60 OFFCURVE",
"95 -10 OFFCURVE",
"235 -10 CURVE SMOOTH"
);
}
);
width = 470;
},
{
layerId = "6ABCF30A-460E-4EED-802C-9E4699B7E7F6";
paths = (
{
closed = 1;
nodes = (
"375 -10 OFFCURVE",
"455 60 OFFCURVE",
"455 200 CURVE SMOOTH",
"455 240 LINE SMOOTH",
"455 270 OFFCURVE",
"445 280 OFFCURVE",
"415 280 CURVE SMOOTH",
"315 280 LINE SMOOTH",
"285 280 OFFCURVE",
"275 270 OFFCURVE",
"275 240 CURVE SMOOTH",
"275 180 LINE SMOOTH",
"275 150 OFFCURVE",
"266 130 OFFCURVE",
"235 130 CURVE SMOOTH",
"205 130 OFFCURVE",
"195 150 OFFCURVE",
"195 180 CURVE SMOOTH",
"195 520 LINE SMOOTH",
"195 550 OFFCURVE",
"205 570 OFFCURVE",
"235 570 CURVE SMOOTH",
"265 570 OFFCURVE",
"275 550 OFFCURVE",
"275 520 CURVE SMOOTH",
"275 460 LINE SMOOTH",
"275 430 OFFCURVE",
"285 420 OFFCURVE",
"315 420 CURVE SMOOTH",
"415 420 LINE SMOOTH",
"445 420 OFFCURVE",
"455 430 OFFCURVE",
"455 460 CURVE SMOOTH",
"455 500 LINE SMOOTH",
"455 640 OFFCURVE",
"375 710 OFFCURVE",
"235 710 CURVE SMOOTH",
"95 710 OFFCURVE",
"15 640 OFFCURVE",
"15 500 CURVE SMOOTH",
"15 200 LINE SMOOTH",
"15 60 OFFCURVE",
"95 -10 OFFCURVE",
"235 -10 CURVE SMOOTH"
);
}
);
width = 470;
}
);
leftKerningGroup = O;
rightKerningGroup = C;
unicode = 0043;
},
{
color = 5;
glyphname = D;
layers = (
{
layerId = m01;
paths = (
{
closed = 1;
nodes = (
"250 0 LINE SMOOTH",
"390 0 OFFCURVE",
"460 70 OFFCURVE",
"460 200 CURVE SMOOTH",
"460 500 LINE SMOOTH",
"460 630 OFFCURVE",
"390 700 OFFCURVE",
"250 700 CURVE SMOOTH",
"60 700 LINE SMOOTH",
"30 700 OFFCURVE",
"20 690 OFFCURVE",
"20 660 CURVE SMOOTH",
"20 40 LINE SMOOTH",
"20 10 OFFCURVE",
"30 0 OFFCURVE",
"60 0 CURVE SMOOTH"
);
},
{
closed = 1;
nodes = (
"205 150 OFFCURVE",
"200 155 OFFCURVE",
"200 170 CURVE SMOOTH",
"200 530 LINE SMOOTH",
"200 545 OFFCURVE",
"205 550 OFFCURVE",
"220 550 CURVE SMOOTH",
"240 550 LINE SMOOTH",
"270 550 OFFCURVE",
"280 540 OFFCURVE",
"280 510 CURVE SMOOTH",
"280 190 LINE SMOOTH",
"280 160 OFFCURVE",
"270 150 OFFCURVE",
"240 150 CURVE SMOOTH",
"220 150 LINE SMOOTH"
);
}
);
width = 477;
},
{
layerId = "6ABCF30A-460E-4EED-802C-9E4699B7E7F6";
paths = (
{
closed = 1;
nodes = (
"250 0 LINE SMOOTH",
"390 0 OFFCURVE",
"460 70 OFFCURVE",
"460 200 CURVE SMOOTH",
"460 500 LINE SMOOTH",
"460 630 OFFCURVE",
"390 700 OFFCURVE",
"250 700 CURVE SMOOTH",
"60 700 LINE SMOOTH",
"30 700 OFFCURVE",
"20 690 OFFCURVE",
"20 660 CURVE SMOOTH",
"20 40 LINE SMOOTH",
"20 10 OFFCURVE",
"30 0 OFFCURVE",
"60 0 CURVE SMOOTH"
);
},
{
closed = 1;
nodes = (
"205 150 OFFCURVE",
"200 155 OFFCURVE",
"200 170 CURVE SMOOTH",
"200 530 LINE SMOOTH",
"200 545 OFFCURVE",
"205 550 OFFCURVE",
"220 550 CURVE SMOOTH",
"240 550 LINE SMOOTH",
"270 550 OFFCURVE",
"280 540 OFFCURVE",
"280 510 CURVE SMOOTH",
"280 190 LINE SMOOTH",
"280 160 OFFCURVE",
"270 150 OFFCURVE",
"240 150 CURVE SMOOTH",
"220 150 LINE SMOOTH"
);
}
);
width = 477;
}
);
leftKerningGroup = H;
rightKerningGroup = O;
unicode = 0044;
},
{
color = 5;
glyphname = E;
layers = (
{
anchors = (
{
name = top;
position = "{191, 700}";
}
);
layerId = m01;
paths = (
{
closed = 1;
nodes = (
"330 0 LINE SMOOTH",
"360 0 OFFCURVE",
"370 10 OFFCURVE",
"370 40 CURVE SMOOTH",
"370 110 LINE SMOOTH",
"370 140 OFFCURVE",
"360 150 OFFCURVE",
"330 150 CURVE SMOOTH",
"220 150 LINE SMOOTH",
"205 150 OFFCURVE",
"200 155 OFFCURVE",
"200 170 CURVE SMOOTH",
"200 270 LINE SMOOTH",
"200 285 OFFCURVE",
"205 290 OFFCURVE",
"220 290 CURVE SMOOTH",
"290 290 LINE SMOOTH",
"320 290 OFFCURVE",
"330 300 OFFCURVE",
"330 330 CURVE SMOOTH",
"330 390 LINE SMOOTH",
"330 420 OFFCURVE",
"320 430 OFFCURVE",
"290 430 CURVE SMOOTH",
"220 430 LINE SMOOTH",
"205 430 OFFCURVE",
"200 435 OFFCURVE",
"200 450 CURVE SMOOTH",
"200 530 LINE SMOOTH",
"200 545 OFFCURVE",
"205 550 OFFCURVE",
"220 550 CURVE SMOOTH",
"330 550 LINE SMOOTH",
"360 550 OFFCURVE",
"370 560 OFFCURVE",
"370 590 CURVE SMOOTH",
"370 660 LINE SMOOTH",
"370 690 OFFCURVE",
"360 700 OFFCURVE",
"330 700 CURVE SMOOTH",
"60 700 LINE SMOOTH",
"30 700 OFFCURVE",
"20 690 OFFCURVE",
"20 660 CURVE SMOOTH",
"20 40 LINE SMOOTH",
"20 10 OFFCURVE",
"30 0 OFFCURVE",
"60 0 CURVE SMOOTH"
);
}
);
width = 385;
},
{
anchors = (
{
name = top;
position = "{191, 700}";
}
);
layerId = "6ABCF30A-460E-4EED-802C-9E4699B7E7F6";
paths = (
{
closed = 1;
nodes = (
"330 0 LINE SMOOTH",
"360 0 OFFCURVE",
"370 10 OFFCURVE",
"370 40 CURVE SMOOTH",
"370 110 LINE SMOOTH",
"370 140 OFFCURVE",
"360 150 OFFCURVE",
"330 150 CURVE SMOOTH",
"220 150 LINE SMOOTH",
"205 150 OFFCURVE",
"200 155 OFFCURVE",
"200 170 CURVE SMOOTH",
"200 270 LINE SMOOTH",
"200 285 OFFCURVE",
"205 290 OFFCURVE",
"220 290 CURVE SMOOTH",
"290 290 LINE SMOOTH",
"320 290 OFFCURVE",
"330 300 OFFCURVE",
"330 330 CURVE SMOOTH",
"330 390 LINE SMOOTH",
"330 420 OFFCURVE",
"320 430 OFFCURVE",
"290 430 CURVE SMOOTH",
"220 430 LINE SMOOTH",
"205 430 OFFCURVE",
"200 435 OFFCURVE",
"200 450 CURVE SMOOTH",
"200 530 LINE SMOOTH",
"200 545 OFFCURVE",
"205 550 OFFCURVE",
"220 550 CURVE SMOOTH",
"330 550 LINE SMOOTH",
"360 550 OFFCURVE",
"370 560 OFFCURVE",
"370 590 CURVE SMOOTH",
"370 660 LINE SMOOTH",
"370 690 OFFCURVE",
"360 700 OFFCURVE",
"330 700 CURVE SMOOTH",
"60 700 LINE SMOOTH",
"30 700 OFFCURVE",
"20 690 OFFCURVE",
"20 660 CURVE SMOOTH",
"20 40 LINE SMOOTH",
"20 10 OFFCURVE",
"30 0 OFFCURVE",
"60 0 CURVE SMOOTH"
);
}
);
width = 385;
}
);
leftKerningGroup = H;
rightKerningGroup = E;
unicode = 0045;
},
{
color = 5;
glyphname = F;
layers = (
{
layerId = m01;
paths = (
{
closed = 1;
nodes = (
"160 0 LINE SMOOTH",
"190 0 OFFCURVE",
"200 10 OFFCURVE",
"200 40 CURVE SMOOTH",
"200 270 LINE SMOOTH",
"200 285 OFFCURVE",
"205 290 OFFCURVE",
"220 290 CURVE SMOOTH",
"290 290 LINE SMOOTH",
"320 290 OFFCURVE",
"330 300 OFFCURVE",
"330 330 CURVE SMOOTH",
"330 390 LINE SMOOTH",
"330 420 OFFCURVE",
"320 430 OFFCURVE",
"290 430 CURVE SMOOTH",
"220 430 LINE SMOOTH",
"205 430 OFFCURVE",
"200 435 OFFCURVE",
"200 450 CURVE SMOOTH",
"200 530 LINE SMOOTH",
"200 545 OFFCURVE",
"205 550 OFFCURVE",
"220 550 CURVE SMOOTH",
"330 550 LINE SMOOTH",
"360 550 OFFCURVE",
"370 560 OFFCURVE",
"370 590 CURVE SMOOTH",
"370 660 LINE SMOOTH",
"370 690 OFFCURVE",
"360 700 OFFCURVE",
"330 700 CURVE SMOOTH",
"60 700 LINE SMOOTH",
"30 700 OFFCURVE",
"20 690 OFFCURVE",
"20 660 CURVE SMOOTH",
"20 40 LINE SMOOTH",
"20 10 OFFCURVE",
"30 0 OFFCURVE",
"60 0 CURVE SMOOTH"
);
}
);
width = 382;
},
{
layerId = "6ABCF30A-460E-4EED-802C-9E4699B7E7F6";
paths = (
{
closed = 1;
nodes = (
"160 0 LINE SMOOTH",
"190 0 OFFCURVE",
"200 10 OFFCURVE",
"200 40 CURVE SMOOTH",
"200 270 LINE SMOOTH",
"200 285 OFFCURVE",
"205 290 OFFCURVE",
"220 290 CURVE SMOOTH",
"290 290 LINE SMOOTH",
"320 290 OFFCURVE",
"330 300 OFFCURVE",
"330 330 CURVE SMOOTH",
"330 390 LINE SMOOTH",
"330 420 OFFCURVE",
"320 430 OFFCURVE",
"290 430 CURVE SMOOTH",
"220 430 LINE SMOOTH",
"205 430 OFFCURVE",
"200 435 OFFCURVE",
"200 450 CURVE SMOOTH",
"200 530 LINE SMOOTH",
"200 545 OFFCURVE",
"205 550 OFFCURVE",
"220 550 CURVE SMOOTH",
"330 550 LINE SMOOTH",
"360 550 OFFCURVE",
"370 560 OFFCURVE",
"370 590 CURVE SMOOTH",
"370 660 LINE SMOOTH",
"370 690 OFFCURVE",
"360 700 OFFCURVE",
"330 700 CURVE SMOOTH",
"60 700 LINE SMOOTH",
"30 700 OFFCURVE",
"20 690 OFFCURVE",
"20 660 CURVE SMOOTH",
"20 40 LINE SMOOTH",
"20 10 OFFCURVE",
"30 0 OFFCURVE",
"60 0 CURVE SMOOTH"
);
}
);
width = 382;
}
);
leftKerningGroup = H;
rightKerningGroup = F;
unicode = 0046;
},
{
color = 5;
glyphname = G;
layers = (
{
layerId = m01;
paths = (
{
closed = 1;
nodes = (
"305 -10 OFFCURVE",
"328 30 OFFCURVE",
"352 30 CURVE SMOOTH",
"372 30 OFFCURVE",
"384 0 OFFCURVE",
"417 0 CURVE SMOOTH",
"447 0 OFFCURVE",
"457 10 OFFCURVE",
"457 40 CURVE SMOOTH",
"457 310 LINE SMOOTH",
"457 340 OFFCURVE",
"447 350 OFFCURVE",
"418 350 CURVE SMOOTH",
"290 350 LINE SMOOTH",
"260 350 OFFCURVE",
"250 340 OFFCURVE",
"250 310 CURVE SMOOTH",
"250 250 LINE SMOOTH",
"250 220 OFFCURVE",
"260 210 OFFCURVE",
"290 210 CURVE SMOOTH",
"300 210 LINE SMOOTH",
"315 210 OFFCURVE",
"320 205 OFFCURVE",
"320 190 CURVE SMOOTH",
"320 160 OFFCURVE",
"297 140 OFFCURVE",
"257 140 CURVE SMOOTH",
"217 140 OFFCURVE",
"197 160 OFFCURVE",
"197 190 CURVE SMOOTH",
"197 510 LINE SMOOTH",
"197 540 OFFCURVE",
"207 560 OFFCURVE",
"237 560 CURVE SMOOTH",
"267 560 OFFCURVE",
"277 540 OFFCURVE",
"277 510 CURVE SMOOTH",
"277 460 LINE SMOOTH",
"277 430 OFFCURVE",
"287 420 OFFCURVE",
"317 420 CURVE SMOOTH",
"417 420 LINE SMOOTH",
"447 420 OFFCURVE",
"457 430 OFFCURVE",
"457 460 CURVE SMOOTH",
"457 500 LINE SMOOTH",
"457 660 OFFCURVE",
"337 710 OFFCURVE",
"237 710 CURVE SMOOTH",
"137 710 OFFCURVE",
"17 660 OFFCURVE",
"17 500 CURVE SMOOTH",
"17 200 LINE SMOOTH",
"17 40 OFFCURVE",
"121 -10 OFFCURVE",
"217 -10 CURVE SMOOTH"
);
}
);
width = 475;
},
{
associatedMasterId = m01;
layerId = "F8509940-8065-4862-BD04-E3BB20DED9AC";
name = "Sep 3, 22, 16:54";
paths = (
{
closed = 1;
nodes = (
"283 -8 OFFCURVE",
"308 0 OFFCURVE",
"338 21 CURVE SMOOTH",
"352 31 OFFCURVE",
"365 42 OFFCURVE",
"376 42 CURVE SMOOTH",
"397 42 OFFCURVE",
"412 0 OFFCURVE",
"444 0 CURVE SMOOTH",
"476 0 OFFCURVE",
"486 10 OFFCURVE",
"486 40 CURVE SMOOTH",
"486 392 LINE SMOOTH",
"486 422 OFFCURVE",
"476 432 OFFCURVE",
"446 432 CURVE SMOOTH",
"298 432 LINE SMOOTH",
"268 432 OFFCURVE",
"258 422 OFFCURVE",
"258 392 CURVE SMOOTH",
"258 336 LINE SMOOTH",
"258 306 OFFCURVE",
"278 296 OFFCURVE",
"298 296 CURVE SMOOTH",
"326 296 OFFCURVE",
"336 286 OFFCURVE",
"336 266 CURVE SMOOTH",
"336 170 LINE SMOOTH",
"336 150 OFFCURVE",
"326 140 OFFCURVE",
"306 140 CURVE SMOOTH",
"210 140 OFFCURVE",
"189 211 OFFCURVE",
"189 357 CURVE SMOOTH",
"189 519 OFFCURVE",
"226 572 OFFCURVE",
"276 572 CURVE SMOOTH",
"306 572 OFFCURVE",
"326 552 OFFCURVE",
"326 530 CURVE SMOOTH",
"326 510 OFFCURVE",
"336 500 OFFCURVE",
"356 500 CURVE SMOOTH",
"458 500 LINE SMOOTH",
"477 500 OFFCURVE",
"486 510 OFFCURVE",
"486 530 CURVE SMOOTH",
"486 620 OFFCURVE",
"432 708 OFFCURVE",
"280 708 CURVE SMOOTH",
"92 708 OFFCURVE",
"14 586 OFFCURVE",
"14 357 CURVE SMOOTH",
"14 156 OFFCURVE",
"79 -8 OFFCURVE",
"238 -8 CURVE SMOOTH"
);
}
);
width = 504;
},
{
associatedMasterId = m01;
layerId = "DAB6969C-E190-42CA-8100-95B2D97440E1";
name = "Sep 18, 22, 15:33";
paths = (
{
closed = 1;
nodes = (
"375 -10 OFFCURVE",
"455 70 OFFCURVE",
"455 200 CURVE SMOOTH",
"455 500 LINE SMOOTH",
"455 630 OFFCURVE",
"375 710 OFFCURVE",
"235 710 CURVE SMOOTH",
"95 710 OFFCURVE",
"15 630 OFFCURVE",
"15 500 CURVE SMOOTH",
"15 200 LINE SMOOTH",
"15 70 OFFCURVE",
"95 -10 OFFCURVE",
"235 -10 CURVE SMOOTH"
);
},
{
closed = 1;
nodes = (
"205 140 OFFCURVE",
"195 160 OFFCURVE",
"195 190 CURVE SMOOTH",
"195 510 LINE SMOOTH",
"195 540 OFFCURVE",
"205 560 OFFCURVE",
"235 560 CURVE SMOOTH",
"265 560 OFFCURVE",
"275 540 OFFCURVE",
"275 510 CURVE SMOOTH",
"275 190 LINE SMOOTH",
"275 160 OFFCURVE",
"265 140 OFFCURVE",
"235 140 CURVE SMOOTH"
);
}
);
visible = 1;
width = 470;
},
{
layerId = "6ABCF30A-460E-4EED-802C-9E4699B7E7F6";
paths = (
{
closed = 1;
nodes = (
"305 -10 OFFCURVE",
"328 30 OFFCURVE",
"352 30 CURVE SMOOTH",
"372 30 OFFCURVE",
"384 0 OFFCURVE",
"417 0 CURVE SMOOTH",
"447 0 OFFCURVE",
"457 10 OFFCURVE",
"457 40 CURVE SMOOTH",
"457 310 LINE SMOOTH",
"457 340 OFFCURVE",
"447 350 OFFCURVE",
"418 350 CURVE SMOOTH",
"290 350 LINE SMOOTH",
"260 350 OFFCURVE",
"250 340 OFFCURVE",
"250 310 CURVE SMOOTH",
"250 250 LINE SMOOTH",
"250 220 OFFCURVE",
"260 210 OFFCURVE",
"290 210 CURVE SMOOTH",
"300 210 LINE SMOOTH",
"315 210 OFFCURVE",
"320 205 OFFCURVE",
"320 190 CURVE SMOOTH",
"320 160 OFFCURVE",
"297 140 OFFCURVE",
"257 140 CURVE SMOOTH",
"217 140 OFFCURVE",
"197 160 OFFCURVE",
"197 190 CURVE SMOOTH",
"197 510 LINE SMOOTH",
"197 540 OFFCURVE",
"207 560 OFFCURVE",
"237 560 CURVE SMOOTH",
"267 560 OFFCURVE",
"277 540 OFFCURVE",
"277 510 CURVE SMOOTH",
"277 460 LINE SMOOTH",
"277 430 OFFCURVE",
"287 420 OFFCURVE",
"317 420 CURVE SMOOTH",
"417 420 LINE SMOOTH",
"447 420 OFFCURVE",
"457 430 OFFCURVE",
"457 460 CURVE SMOOTH",
"457 500 LINE SMOOTH",
"457 660 OFFCURVE",
"337 710 OFFCURVE",
"237 710 CURVE SMOOTH",
"137 710 OFFCURVE",
"17 660 OFFCURVE",
"17 500 CURVE SMOOTH",
"17 200 LINE SMOOTH",
"17 40 OFFCURVE",
"121 -10 OFFCURVE",
"217 -10 CURVE SMOOTH"
);
}
);
width = 475;
}
);
leftKerningGroup = O;
rightKerningGroup = G;
unicode = 0047;
},
{
color = 5;
glyphname = H;
layers = (
{
layerId = m01;
paths = (
{
closed = 1;
nodes = (
"160 0 LINE SMOOTH",
"190 0 OFFCURVE",
"200 10 OFFCURVE",
"200 40 CURVE SMOOTH",
"200 270 LINE SMOOTH",
"200 285 OFFCURVE",
"205 290 OFFCURVE",
"220 290 CURVE SMOOTH",
"260 290 LINE SMOOTH",
"275 290 OFFCURVE",
"280 285 OFFCURVE",
"280 270 CURVE SMOOTH",
"280 40 LINE SMOOTH",
"280 10 OFFCURVE",
"290 0 OFFCURVE",
"320 0 CURVE SMOOTH",
"420 0 LINE SMOOTH",
"445 0 OFFCURVE",
"460 10 OFFCURVE",
"460 40 CURVE SMOOTH",
"460 660 LINE SMOOTH",
"460 690 OFFCURVE",
"450 700 OFFCURVE",
"420 700 CURVE SMOOTH",
"320 700 LINE SMOOTH",
"290 700 OFFCURVE",
"280 690 OFFCURVE",
"280 660 CURVE SMOOTH",
"280 460 LINE SMOOTH",
"280 445 OFFCURVE",
"275 440 OFFCURVE",
"260 440 CURVE SMOOTH",
"220 440 LINE SMOOTH",
"205 440 OFFCURVE",
"200 445 OFFCURVE",
"200 460 CURVE SMOOTH",
"200 660 LINE SMOOTH",
"200 690 OFFCURVE",
"190 700 OFFCURVE",
"160 700 CURVE SMOOTH",
"60 700 LINE SMOOTH",
"30 700 OFFCURVE",
"20 690 OFFCURVE",
"20 660 CURVE SMOOTH",
"20 40 LINE SMOOTH",
"20 10 OFFCURVE",
"20 0 OFFCURVE",
"60 0 CURVE SMOOTH"
);
}
);
width = 480;
},
{
layerId = "6ABCF30A-460E-4EED-802C-9E4699B7E7F6";
paths = (
{
closed = 1;
nodes = (
"195 0 LINE SMOOTH",
"225 0 OFFCURVE",
"235 10 OFFCURVE",
"235 40 CURVE SMOOTH",
"235 260 LINE SMOOTH",
"235 275 OFFCURVE",
"238 280 OFFCURVE",
"243 280 CURVE SMOOTH",
"247 280 LINE SMOOTH",
"252 280 OFFCURVE",
"255 275 OFFCURVE",
"255 260 CURVE SMOOTH",
"255 40 LINE SMOOTH",
"255 10 OFFCURVE",
"265 0 OFFCURVE",
"295 0 CURVE SMOOTH",
"430 0 LINE SMOOTH",
"455 0 OFFCURVE",
"470 10 OFFCURVE",
"470 40 CURVE SMOOTH",
"470 660 LINE SMOOTH",
"470 690 OFFCURVE",
"460 700 OFFCURVE",
"430 700 CURVE SMOOTH",
"295 700 LINE SMOOTH",
"265 700 OFFCURVE",
"255 690 OFFCURVE",
"255 660 CURVE SMOOTH",
"255 470 LINE SMOOTH",
"255 455 OFFCURVE",
"252 450 OFFCURVE",
"247 450 CURVE SMOOTH",
"243 450 LINE SMOOTH",
"238 450 OFFCURVE",
"235 455 OFFCURVE",
"235 470 CURVE SMOOTH",
"235 660 LINE SMOOTH",
"235 690 OFFCURVE",
"225 700 OFFCURVE",
"195 700 CURVE SMOOTH",
"50 700 LINE SMOOTH",
"20 700 OFFCURVE",
"10 690 OFFCURVE",
"10 660 CURVE SMOOTH",
"10 40 LINE SMOOTH",
"10 10 OFFCURVE",
"10 0 OFFCURVE",
"50 0 CURVE SMOOTH"
);
}
);
width = 480;
}
);
leftKerningGroup = H;
rightKerningGroup = H;
unicode = 0048;
},
{
color = 5;
glyphname = I;
layers = (
{
layerId = m01;
paths = (
{
closed = 1;
nodes = (
"160 0 LINE SMOOTH",
"190 0 OFFCURVE",
"200 10 OFFCURVE",
"200 40 CURVE SMOOTH",
"200 660 LINE SMOOTH",
"200 690 OFFCURVE",
"190 700 OFFCURVE",
"160 700 CURVE SMOOTH",
"60 700 LINE SMOOTH",
"30 700 OFFCURVE",
"20 690 OFFCURVE",
"20 660 CURVE SMOOTH",
"20 40 LINE SMOOTH",
"20 10 OFFCURVE",
"30 0 OFFCURVE",
"60 0 CURVE SMOOTH"
);
}
);
width = 220;
},
{
layerId = "6ABCF30A-460E-4EED-802C-9E4699B7E7F6";
paths = (
{
closed = 1;
nodes = (
"160 0 LINE SMOOTH",
"190 0 OFFCURVE",
"200 10 OFFCURVE",
"200 40 CURVE SMOOTH",
"200 660 LINE SMOOTH",
"200 690 OFFCURVE",
"190 700 OFFCURVE",
"160 700 CURVE SMOOTH",
"60 700 LINE SMOOTH",
"30 700 OFFCURVE",
"20 690 OFFCURVE",
"20 660 CURVE SMOOTH",
"20 40 LINE SMOOTH",
"20 10 OFFCURVE",
"30 0 OFFCURVE",
"60 0 CURVE SMOOTH"
);
}
);
width = 220;
}
);
leftKerningGroup = H;
rightKerningGroup = H;
unicode = 0049;
},
{
color = 5;
glyphname = J;
layers = (
{
layerId = m01;
paths = (
{
closed = 1;
nodes = (
"141 0 LINE SMOOTH",
"261 0 OFFCURVE",
"290 40 OFFCURVE",
"290 200 CURVE SMOOTH",
"290 660 LINE SMOOTH",
"290 690 OFFCURVE",
"280 700 OFFCURVE",
"250 700 CURVE SMOOTH",
"150 700 LINE SMOOTH",
"120 700 OFFCURVE",
"110 690 OFFCURVE",
"110 660 CURVE SMOOTH",
"110 160 LINE SMOOTH",
"110 145 OFFCURVE",
"105 140 OFFCURVE",
"90 140 CURVE SMOOTH",
"50 140 LINE SMOOTH",
"20 140 OFFCURVE",
"10 130 OFFCURVE",
"10 100 CURVE SMOOTH",
"10 40 LINE SMOOTH",
"10 10 OFFCURVE",
"20 0 OFFCURVE",
"50 0 CURVE SMOOTH"
);
}
);
width = 305;
},
{
layerId = "6ABCF30A-460E-4EED-802C-9E4699B7E7F6";
paths = (
{
closed = 1;
nodes = (
"141 0 LINE SMOOTH",
"261 0 OFFCURVE",
"290 40 OFFCURVE",
"290 200 CURVE SMOOTH",
"290 660 LINE SMOOTH",
"290 690 OFFCURVE",
"280 700 OFFCURVE",
"250 700 CURVE SMOOTH",
"150 700 LINE SMOOTH",
"120 700 OFFCURVE",
"110 690 OFFCURVE",
"110 660 CURVE SMOOTH",
"110 160 LINE SMOOTH",
"110 145 OFFCURVE",
"105 140 OFFCURVE",
"90 140 CURVE SMOOTH",
"50 140 LINE SMOOTH",
"20 140 OFFCURVE",
"10 130 OFFCURVE",
"10 100 CURVE SMOOTH",
"10 40 LINE SMOOTH",
"10 10 OFFCURVE",
"20 0 OFFCURVE",
"50 0 CURVE SMOOTH"
);
}
);
width = 305;
}
);
leftKerningGroup = J;
rightKerningGroup = J;
unicode = 004A;
},
{
color = 5;
glyphname = K;
layers = (
{
layerId = m01;
paths = (
{
closed = 1;
nodes = (
"160 0 LINE SMOOTH",
"190 0 OFFCURVE",
"200 10 OFFCURVE",
"200 40 CURVE SMOOTH",
"200 290 LINE SMOOTH",
"200 297 OFFCURVE",
"203 300 OFFCURVE",
"210 300 CURVE SMOOTH",
"215 300 OFFCURVE",
"220 297 OFFCURVE",
"225 280 CURVE SMOOTH",
"300 40 LINE SMOOTH",
"309 10 OFFCURVE",
"320 0 OFFCURVE",
"350 0 CURVE SMOOTH",
"470 0 LINE SMOOTH",
"500 0 OFFCURVE",
"510 10 OFFCURVE",
"510 40 CURVE SMOOTH",
"510 60 OFFCURVE",
"502 78 OFFCURVE",
"482 124 CURVE SMOOTH",
"385 353 LINE SMOOTH",
"376 374 OFFCURVE",
"371 390 OFFCURVE",
"371 400 CURVE SMOOTH",
"371 410 OFFCURVE",
"375 422 OFFCURVE",
"389 449 CURVE SMOOTH",
"480 621 LINE SMOOTH",
"489 637 OFFCURVE",
"500 656 OFFCURVE",
"500 670 CURVE SMOOTH",
"500 690 OFFCURVE",
"490 700 OFFCURVE",
"460 700 CURVE SMOOTH",
"365 700 LINE SMOOTH",
"338 700 OFFCURVE",
"329 690 OFFCURVE",
"315 660 CURVE SMOOTH",
"225 470 LINE SMOOTH",
"219 457 OFFCURVE",
"215 450 OFFCURVE",
"210 450 CURVE SMOOTH",
"203 450 OFFCURVE",
"200 453 OFFCURVE",
"200 460 CURVE SMOOTH",
"200 660 LINE SMOOTH",
"200 690 OFFCURVE",
"190 700 OFFCURVE",
"160 700 CURVE SMOOTH",
"60 700 LINE SMOOTH",
"30 700 OFFCURVE",
"20 690 OFFCURVE",
"20 660 CURVE SMOOTH",
"20 40 LINE SMOOTH",
"20 10 OFFCURVE",
"30 -1 OFFCURVE",
"60 -1 CURVE SMOOTH"
);
}
);
width = 520;
},
{
layerId = "6ABCF30A-460E-4EED-802C-9E4699B7E7F6";
paths = (
{
closed = 1;
nodes = (
"160 0 LINE SMOOTH",
"190 0 OFFCURVE",
"200 10 OFFCURVE",
"200 40 CURVE SMOOTH",
"200 290 LINE SMOOTH",
"200 297 OFFCURVE",
"203 300 OFFCURVE",
"210 300 CURVE SMOOTH",
"215 300 OFFCURVE",
"220 297 OFFCURVE",
"225 280 CURVE SMOOTH",
"300 40 LINE SMOOTH",
"309 10 OFFCURVE",
"320 0 OFFCURVE",
"350 0 CURVE SMOOTH",
"470 0 LINE SMOOTH",
"500 0 OFFCURVE",
"510 10 OFFCURVE",
"510 40 CURVE SMOOTH",
"510 60 OFFCURVE",
"502 78 OFFCURVE",
"482 124 CURVE SMOOTH",
"385 353 LINE SMOOTH",
"376 374 OFFCURVE",
"371 390 OFFCURVE",
"371 400 CURVE SMOOTH",
"371 410 OFFCURVE",
"375 422 OFFCURVE",
"389 449 CURVE SMOOTH",
"480 621 LINE SMOOTH",
"489 637 OFFCURVE",
"500 656 OFFCURVE",
"500 670 CURVE SMOOTH",
"500 690 OFFCURVE",
"490 700 OFFCURVE",
"460 700 CURVE SMOOTH",
"365 700 LINE SMOOTH",
"338 700 OFFCURVE",
"329 690 OFFCURVE",
"315 660 CURVE SMOOTH",
"225 470 LINE SMOOTH",
"219 457 OFFCURVE",
"215 450 OFFCURVE",
"210 450 CURVE SMOOTH",
"203 450 OFFCURVE",
"200 453 OFFCURVE",
"200 460 CURVE SMOOTH",
"200 660 LINE SMOOTH",
"200 690 OFFCURVE",
"190 700 OFFCURVE",
"160 700 CURVE SMOOTH",
"60 700 LINE SMOOTH",
"30 700 OFFCURVE",
"20 690 OFFCURVE",
"20 660 CURVE SMOOTH",
"20 40 LINE SMOOTH",
"20 10 OFFCURVE",
"30 -1 OFFCURVE",
"60 -1 CURVE SMOOTH"
);
}
);
width = 600;
}
);
leftKerningGroup = H;
rightKerningGroup = K;
unicode = 004B;
},
{
color = 5;
glyphname = L;
layers = (
{
layerId = m01;
paths = (
{
closed = 1;
nodes = (
"300 0 LINE SMOOTH",
"330 0 OFFCURVE",
"340 10 OFFCURVE",
"340 40 CURVE SMOOTH",
"340 110 LINE SMOOTH",
"340 140 OFFCURVE",
"330 150 OFFCURVE",
"300 150 CURVE SMOOTH",
"220 150 LINE SMOOTH",
"205 150 OFFCURVE",
"200 155 OFFCURVE",
"200 170 CURVE SMOOTH",
"200 660 LINE SMOOTH",
"200 690 OFFCURVE",
"190 700 OFFCURVE",
"160 700 CURVE SMOOTH",
"60 700 LINE SMOOTH",
"30 700 OFFCURVE",
"20 690 OFFCURVE",
"20 660 CURVE SMOOTH",
"20 40 LINE SMOOTH",
"20 10 OFFCURVE",
"30 0 OFFCURVE",
"60 0 CURVE SMOOTH"
);
}
);
width = 350;
},
{
layerId = "6ABCF30A-460E-4EED-802C-9E4699B7E7F6";
paths = (
{
closed = 1;
nodes = (
"300 0 LINE SMOOTH",
"330 0 OFFCURVE",
"340 10 OFFCURVE",
"340 40 CURVE SMOOTH",
"340 110 LINE SMOOTH",
"340 140 OFFCURVE",
"330 150 OFFCURVE",
"300 150 CURVE SMOOTH",
"220 150 LINE SMOOTH",
"205 150 OFFCURVE",
"200 155 OFFCURVE",
"200 170 CURVE SMOOTH",
"200 660 LINE SMOOTH",
"200 690 OFFCURVE",
"190 700 OFFCURVE",
"160 700 CURVE SMOOTH",
"60 700 LINE SMOOTH",
"30 700 OFFCURVE",
"20 690 OFFCURVE",
"20 660 CURVE SMOOTH",
"20 40 LINE SMOOTH",
"20 10 OFFCURVE",
"30 0 OFFCURVE",
"60 0 CURVE SMOOTH"
);
}
);
width = 350;
}
);
leftKerningGroup = H;
rightKerningGroup = L;
unicode = 004C;
},
{
color = 5;
glyphname = M;
layers = (
{
layerId = m01;
paths = (
{
closed = 1;
nodes = (
"160 0 LINE SMOOTH",
"190 0 OFFCURVE",
"200 10 OFFCURVE",
"200 40 CURVE SMOOTH",
"200 490 LINE SMOOTH",
"200 504 OFFCURVE",
"202 510 OFFCURVE",
"209 510 CURVE SMOOTH",
"218 510 OFFCURVE",
"232 505 OFFCURVE",
"235 460 CURVE SMOOTH",
"250 220 LINE SMOOTH",
"252 196 OFFCURVE",
"269 184 OFFCURVE",
"289 184 CURVE SMOOTH",
"314 184 OFFCURVE",
"328 194 OFFCURVE",
"330 220 CURVE SMOOTH",
"344 460 LINE SMOOTH",
"347 503 OFFCURVE",
"362 510 OFFCURVE",
"370 510 CURVE SMOOTH",
"377 510 OFFCURVE",
"380 504 OFFCURVE",
"380 490 CURVE SMOOTH",
"380 40 LINE SMOOTH",
"380 10 OFFCURVE",
"390 0 OFFCURVE",
"420 0 CURVE SMOOTH",
"520 0 LINE SMOOTH",
"550 0 OFFCURVE",
"560 10 OFFCURVE",
"560 40 CURVE SMOOTH",
"560 660 LINE SMOOTH",
"560 690 OFFCURVE",
"550 700 OFFCURVE",
"520 700 CURVE SMOOTH",
"410 700 LINE SMOOTH",
"385 700 OFFCURVE",
"364 689 OFFCURVE",
"360 660 CURVE SMOOTH",
"314 349 LINE SMOOTH",
"311 328 OFFCURVE",
"301 320 OFFCURVE",
"290 320 CURVE SMOOTH",
"280 320 OFFCURVE",
"270 328 OFFCURVE",
"267 349 CURVE SMOOTH",
"220 660 LINE SMOOTH",
"216 688 OFFCURVE",
"195 700 OFFCURVE",
"170 700 CURVE SMOOTH",
"60 700 LINE SMOOTH",
"30 700 OFFCURVE",
"20 690 OFFCURVE",
"20 660 CURVE SMOOTH",
"20 40 LINE SMOOTH",
"20 10 OFFCURVE",
"30 0 OFFCURVE",
"60 0 CURVE SMOOTH"
);
}
);
width = 580;
},
{
associatedMasterId = m01;
layerId = "F688C055-9C97-4D66-8266-B110343FC198";
name = test;
paths = (
{
closed = 1;
nodes = (
"310 449 OFFCURVE",
"298 477 QCURVE SMOOTH",
"223 654 LINE SMOOTH",
"208 689 OFFCURVE",
"172 710 OFFCURVE",
"141 710 QCURVE SMOOTH",
"88 710 LINE SMOOTH",
"71 710 OFFCURVE",
"47 700 OFFCURVE",
"35 688 OFFCURVE",
"29 662 OFFCURVE",
"28 646 OFFCURVE",
"28 630 QCURVE SMOOTH",
"28 80 LINE SMOOTH",
"28 64 OFFCURVE",
"29 48 OFFCURVE",
"35 22 OFFCURVE",
"47 10 OFFCURVE",
"71 0 OFFCURVE",
"88 0 QCURVE SMOOTH",
"138 0 LINE SMOOTH",
"155 0 OFFCURVE",
"179 10 OFFCURVE",
"191 22 OFFCURVE",
"197 48 OFFCURVE",
"198 64 OFFCURVE",
"198 80 QCURVE SMOOTH",
"198 355 LINE SMOOTH",
"198 365 OFFCURVE",
"203 365 QCURVE SMOOTH",
"207 365 OFFCURVE",
"212 355 QCURVE SMOOTH",
"225 329 OFFCURVE",
"251 274 OFFCURVE",
"265 243 OFFCURVE",
"280 212 OFFCURVE",
"289 197 OFFCURVE",
"300 184 OFFCURVE",
"311 180 OFFCURVE",
"325 180 OFFCURVE",
"336 184 OFFCURVE",
"347 197 OFFCURVE",
"356 212 OFFCURVE",
"370 243 OFFCURVE",
"385 274 OFFCURVE",
"411 328 OFFCURVE",
"424 355 QCURVE SMOOTH",
"429 365 OFFCURVE",
"433 365 QCURVE SMOOTH",
"438 365 OFFCURVE",
"438 355 QCURVE SMOOTH",
"438 80 LINE SMOOTH",
"438 64 OFFCURVE",
"439 48 OFFCURVE",
"445 22 OFFCURVE",
"457 10 OFFCURVE",
"481 0 OFFCURVE",
"498 0 QCURVE SMOOTH",
"548 0 LINE SMOOTH",
"565 0 OFFCURVE",
"589 10 OFFCURVE",
"601 22 OFFCURVE",
"607 48 OFFCURVE",
"608 64 OFFCURVE",
"608 80 QCURVE SMOOTH",
"608 630 LINE SMOOTH",
"608 646 OFFCURVE",
"607 662 OFFCURVE",
"601 688 OFFCURVE",
"589 700 OFFCURVE",
"565 710 OFFCURVE",
"548 710 QCURVE SMOOTH",
"494 710 LINE SMOOTH",
"463 710 OFFCURVE",
"428 690 OFFCURVE",
"413 654 QCURVE SMOOTH",
"338 477 LINE SMOOTH",
"326 449 OFFCURVE"
);
}
);
visible = 1;
width = 640;
},
{
associatedMasterId = m01;
layerId = "FA050349-1282-4837-B37B-CF4E3E2D2328";
name = "Sep 11, 22, 15:10";
paths = (
{
closed = 1;
nodes = (
"160 0 LINE SMOOTH",
"190 0 OFFCURVE",
"200 10 OFFCURVE",
"200 40 CURVE SMOOTH",
"200 370 LINE SMOOTH",
"200 384 OFFCURVE",
"202 390 OFFCURVE",
"210 390 CURVE SMOOTH",
"219 390 OFFCURVE",
"219 383 OFFCURVE",
"240 350 CURVE SMOOTH",
"283 281 OFFCURVE",
"290 260 OFFCURVE",
"310 260 CURVE SMOOTH",
"329 260 OFFCURVE",
"336 279 OFFCURVE",
"380 350 CURVE SMOOTH",
"401 383 OFFCURVE",
"402 390 OFFCURVE",
"410 390 CURVE SMOOTH",
"417 390 OFFCURVE",
"420 384 OFFCURVE",
"420 370 CURVE SMOOTH",
"420 40 LINE SMOOTH",
"420 10 OFFCURVE",
"430 0 OFFCURVE",
"460 0 CURVE SMOOTH",
"560 0 LINE SMOOTH",
"590 0 OFFCURVE",
"600 10 OFFCURVE",
"600 40 CURVE SMOOTH",
"600 660 LINE SMOOTH",
"600 690 OFFCURVE",
"590 700 OFFCURVE",
"560 700 CURVE SMOOTH",
"450 700 LINE SMOOTH",
"420 700 OFFCURVE",
"415 690 OFFCURVE",
"400 660 CURVE SMOOTH",
"334 530 LINE SMOOTH",
"323 508 OFFCURVE",
"319 500 OFFCURVE",
"310 500 CURVE SMOOTH",
"302 500 OFFCURVE",
"297 511 OFFCURVE",
"287 530 CURVE SMOOTH",
"220 660 LINE SMOOTH",
"205 689 OFFCURVE",
"200 700 OFFCURVE",
"170 700 CURVE SMOOTH",
"60 700 LINE SMOOTH",
"30 700 OFFCURVE",
"20 690 OFFCURVE",
"20 660 CURVE SMOOTH",
"20 40 LINE SMOOTH",
"20 10 OFFCURVE",
"30 0 OFFCURVE",
"60 0 CURVE SMOOTH"
);
}
);
width = 620;
},
{
associatedMasterId = m01;
layerId = "7FB62D56-ADA4-4438-90B2-D208D1EAB350";
name = "Sep 11, 22, 20:36";
paths = (
{
closed = 1;
nodes = (
"150 0 LINE SMOOTH",
"180 0 OFFCURVE",
"190 10 OFFCURVE",
"190 40 CURVE SMOOTH",
"190 300 LINE SMOOTH",
"190 314 OFFCURVE",
"194 320 OFFCURVE",
"201 320 CURVE SMOOTH",
"210 320 OFFCURVE",
"210 309 OFFCURVE",
"231 270 CURVE SMOOTH",
"280 180 LINE SMOOTH",
"291 159 OFFCURVE",
"295 150 OFFCURVE",
"310 150 CURVE SMOOTH",
"330 150 LINE SMOOTH",
"345 150 OFFCURVE",
"349 159 OFFCURVE",
"360 180 CURVE SMOOTH",
"406 270 LINE SMOOTH",
"425 308 OFFCURVE",
"430 320 OFFCURVE",
"438 320 CURVE SMOOTH",
"445 320 OFFCURVE",
"450 314 OFFCURVE",
"450 300 CURVE SMOOTH",
"450 40 LINE SMOOTH",
"450 10 OFFCURVE",
"460 0 OFFCURVE",
"490 0 CURVE SMOOTH",
"580 0 LINE SMOOTH",
"610 0 OFFCURVE",
"620 10 OFFCURVE",
"620 40 CURVE SMOOTH",
"620 660 LINE SMOOTH",
"620 690 OFFCURVE",
"610 700 OFFCURVE",
"580 700 CURVE SMOOTH",
"480 700 LINE SMOOTH",
"450 700 OFFCURVE",
"441 688 OFFCURVE",
"430 660 CURVE SMOOTH",
"344 449 LINE SMOOTH",
"335 427 OFFCURVE",
"329 420 OFFCURVE",
"320 420 CURVE SMOOTH",
"312 420 OFFCURVE",
"306 428 OFFCURVE",
"297 449 CURVE SMOOTH",
"210 660 LINE SMOOTH",
"199 687 OFFCURVE",
"190 700 OFFCURVE",
"160 700 CURVE SMOOTH",
"60 700 LINE SMOOTH",
"30 700 OFFCURVE",
"20 690 OFFCURVE",
"20 660 CURVE SMOOTH",
"20 40 LINE SMOOTH",
"20 10 OFFCURVE",
"30 0 OFFCURVE",
"60 0 CURVE SMOOTH"
);
}
);
width = 640;
},
{
associatedMasterId = m01;
layerId = "9D7C4878-F1B4-4F97-BAE7-DE9E3A2EB586";
name = "Sep 11, 22, 20:44";
paths = (
{
closed = 1;
nodes = (
"150 0 LINE SMOOTH",
"180 0 OFFCURVE",
"190 10 OFFCURVE",
"190 40 CURVE SMOOTH",
"190 300 LINE SMOOTH",
"190 314 OFFCURVE",
"194 320 OFFCURVE",
"201 320 CURVE SMOOTH",
"210 320 OFFCURVE",
"210 313 OFFCURVE",
"221 270 CURVE SMOOTH",
"280 30 LINE SMOOTH",
"286 7 OFFCURVE",
"295 0 OFFCURVE",
"310 0 CURVE SMOOTH",
"325 0 OFFCURVE",
"334 6 OFFCURVE",
"340 30 CURVE SMOOTH",
"396 270 LINE SMOOTH",
"406 312 OFFCURVE",
"410 320 OFFCURVE",
"418 320 CURVE SMOOTH",
"425 320 OFFCURVE",
"430 314 OFFCURVE",
"430 300 CURVE SMOOTH",
"430 40 LINE SMOOTH",
"430 10 OFFCURVE",
"440 0 OFFCURVE",
"470 0 CURVE SMOOTH",
"560 0 LINE SMOOTH",
"590 0 OFFCURVE",
"600 10 OFFCURVE",
"600 40 CURVE SMOOTH",
"600 660 LINE SMOOTH",
"600 690 OFFCURVE",
"590 700 OFFCURVE",
"560 700 CURVE SMOOTH",
"440 700 LINE SMOOTH",
"410 700 OFFCURVE",
"397 688 OFFCURVE",
"390 660 CURVE SMOOTH",
"326 389 LINE SMOOTH",
"321 367 OFFCURVE",
"316 360 OFFCURVE",
"310 360 CURVE SMOOTH",
"305 360 OFFCURVE",
"300 367 OFFCURVE",
"295 389 CURVE SMOOTH",
"230 660 LINE SMOOTH",
"223 687 OFFCURVE",
"210 700 OFFCURVE",
"180 700 CURVE SMOOTH",
"60 700 LINE SMOOTH",
"30 700 OFFCURVE",
"20 690 OFFCURVE",
"20 660 CURVE SMOOTH",
"20 40 LINE SMOOTH",
"20 10 OFFCURVE",
"30 0 OFFCURVE",
"60 0 CURVE SMOOTH"
);
}
);
width = 620;
},
{
associatedMasterId = m01;
layerId = "D534A2C4-B49F-44A5-9A7C-B8990F7B1876";
name = "Sep 11, 22, 20:46";
paths = (
{
closed = 1;
nodes = (
"150 0 LINE SMOOTH",
"180 0 OFFCURVE",
"190 10 OFFCURVE",
"190 40 CURVE SMOOTH",
"190 270 LINE SMOOTH",
"190 284 OFFCURVE",
"194 290 OFFCURVE",
"201 290 CURVE SMOOTH",
"210 290 OFFCURVE",
"209 283 OFFCURVE",
"221 240 CURVE SMOOTH",
"280 30 LINE SMOOTH",
"286 7 OFFCURVE",
"295 0 OFFCURVE",
"310 0 CURVE SMOOTH",
"325 0 OFFCURVE",
"334 7 OFFCURVE",
"340 30 CURVE SMOOTH",
"396 240 LINE SMOOTH",
"407 282 OFFCURVE",
"410 290 OFFCURVE",
"418 290 CURVE SMOOTH",
"425 290 OFFCURVE",
"430 284 OFFCURVE",
"430 270 CURVE SMOOTH",
"430 40 LINE SMOOTH",
"430 10 OFFCURVE",
"440 0 OFFCURVE",
"470 0 CURVE SMOOTH",
"560 0 LINE SMOOTH",
"590 0 OFFCURVE",
"600 10 OFFCURVE",
"600 40 CURVE SMOOTH",
"600 660 LINE SMOOTH",
"600 690 OFFCURVE",
"590 700 OFFCURVE",
"560 700 CURVE SMOOTH",
"440 700 LINE SMOOTH",
"410 700 OFFCURVE",
"396 688 OFFCURVE",
"390 660 CURVE SMOOTH",
"326 359 LINE SMOOTH",
"321 337 OFFCURVE",
"316 330 OFFCURVE",
"310 330 CURVE SMOOTH",
"305 330 OFFCURVE",
"300 337 OFFCURVE",
"295 359 CURVE SMOOTH",
"230 660 LINE SMOOTH",
"224 687 OFFCURVE",
"210 700 OFFCURVE",
"180 700 CURVE SMOOTH",
"60 700 LINE SMOOTH",
"30 700 OFFCURVE",
"20 690 OFFCURVE",
"20 660 CURVE SMOOTH",
"20 40 LINE SMOOTH",
"20 10 OFFCURVE",
"30 0 OFFCURVE",
"60 0 CURVE SMOOTH"
);
}
);
width = 620;
},
{
layerId = "6ABCF30A-460E-4EED-802C-9E4699B7E7F6";
paths = (
{
closed = 1;
nodes = (
"160 0 LINE SMOOTH",
"190 0 OFFCURVE",
"200 10 OFFCURVE",
"200 40 CURVE SMOOTH",
"200 390 LINE SMOOTH",
"200 404 OFFCURVE",
"202 410 OFFCURVE",
"209 410 CURVE SMOOTH",
"218 410 OFFCURVE",
"230 405 OFFCURVE",
"235 360 CURVE SMOOTH",
"250 220 LINE SMOOTH",
"253 196 OFFCURVE",
"269 184 OFFCURVE",
"289 184 CURVE SMOOTH",
"314 184 OFFCURVE",
"327 194 OFFCURVE",
"330 220 CURVE SMOOTH",
"344 360 LINE SMOOTH",
"348 403 OFFCURVE",
"362 410 OFFCURVE",
"370 410 CURVE SMOOTH",
"377 410 OFFCURVE",
"380 404 OFFCURVE",
"380 390 CURVE SMOOTH",
"380 40 LINE SMOOTH",
"380 10 OFFCURVE",
"390 0 OFFCURVE",
"420 0 CURVE SMOOTH",
"520 0 LINE SMOOTH",
"550 0 OFFCURVE",
"560 10 OFFCURVE",
"560 40 CURVE SMOOTH",
"560 660 LINE SMOOTH",
"560 690 OFFCURVE",
"550 700 OFFCURVE",
"520 700 CURVE SMOOTH",
"410 700 LINE SMOOTH",
"385 700 OFFCURVE",
"365 689 OFFCURVE",
"360 660 CURVE SMOOTH",
"314 399 LINE SMOOTH",
"310 378 OFFCURVE",
"301 370 OFFCURVE",
"290 370 CURVE SMOOTH",
"280 370 OFFCURVE",
"271 378 OFFCURVE",
"267 399 CURVE SMOOTH",
"220 660 LINE SMOOTH",
"215 688 OFFCURVE",
"195 700 OFFCURVE",
"170 700 CURVE SMOOTH",
"60 700 LINE SMOOTH",
"30 700 OFFCURVE",
"20 690 OFFCURVE",
"20 660 CURVE SMOOTH",
"20 40 LINE SMOOTH",
"20 10 OFFCURVE",
"30 0 OFFCURVE",
"60 0 CURVE SMOOTH"
);
}
);
width = 580;
},
{
associatedMasterId = m01;
layerId = "9DED20E6-D39C-4E3D-8E05-42571727FA9D";
name = "Sep 24, 22, 12:54";
paths = (
{
closed = 1;
nodes = (
"160 0 LINE SMOOTH",
"190 0 OFFCURVE",
"200 10 OFFCURVE",
"200 40 CURVE SMOOTH",
"200 330 LINE SMOOTH",
"200 344 OFFCURVE",
"202 350 OFFCURVE",
"209 350 CURVE SMOOTH",
"218 350 OFFCURVE",
"219 342 OFFCURVE",
"235 300 CURVE SMOOTH",
"280 180 LINE SMOOTH",
"289 157 OFFCURVE",
"295 150 OFFCURVE",
"310 150 CURVE SMOOTH",
"330 150 LINE SMOOTH",
"345 150 OFFCURVE",
"351 157 OFFCURVE",
"360 180 CURVE SMOOTH",
"404 300 LINE SMOOTH",
"419 341 OFFCURVE",
"422 350 OFFCURVE",
"430 350 CURVE SMOOTH",
"437 350 OFFCURVE",
"440 344 OFFCURVE",
"440 330 CURVE SMOOTH",
"440 40 LINE SMOOTH",
"440 10 OFFCURVE",
"450 0 OFFCURVE",
"480 0 CURVE SMOOTH",
"580 0 LINE SMOOTH",
"610 0 OFFCURVE",
"620 10 OFFCURVE",
"620 40 CURVE SMOOTH",
"620 660 LINE SMOOTH",
"620 690 OFFCURVE",
"610 700 OFFCURVE",
"580 700 CURVE SMOOTH",
"470 700 LINE SMOOTH",
"445 700 OFFCURVE",
"430 688 OFFCURVE",
"420 660 CURVE SMOOTH",
"344 439 LINE SMOOTH",
"337 418 OFFCURVE",
"331 410 OFFCURVE",
"320 410 CURVE SMOOTH",
"310 410 OFFCURVE",
"304 418 OFFCURVE",
"297 439 CURVE SMOOTH",
"220 660 LINE SMOOTH",
"210 688 OFFCURVE",
"195 700 OFFCURVE",
"170 700 CURVE SMOOTH",
"60 700 LINE SMOOTH",
"30 700 OFFCURVE",
"20 690 OFFCURVE",
"20 660 CURVE SMOOTH",
"20 40 LINE SMOOTH",
"20 10 OFFCURVE",
"30 0 OFFCURVE",
"60 0 CURVE SMOOTH"
);
}
);
width = 640;
}
);
leftKerningGroup = H;
rightKerningGroup = H;
unicode = 004D;
},
{
color = 5;
glyphname = N;
layers = (
{
layerId = m01;
paths = (
{
closed = 1;
nodes = (
"150 0 LINE SMOOTH",
"180 0 OFFCURVE",
"190 10 OFFCURVE",
"190 40 CURVE SMOOTH",
"190 370 LINE SMOOTH",
"190 386 OFFCURVE",
"196 390 OFFCURVE",
"203 390 CURVE SMOOTH",
"209 390 OFFCURVE",
"214 384 OFFCURVE",
"216 370 CURVE SMOOTH",
"270 40 LINE SMOOTH",
"276 6 OFFCURVE",
"291 0 OFFCURVE",
"315 0 CURVE SMOOTH",
"437 0 LINE SMOOTH",
"467 0 OFFCURVE",
"477 10 OFFCURVE",
"477 40 CURVE SMOOTH",
"477 660 LINE SMOOTH",
"477 690 OFFCURVE",
"467 700 OFFCURVE",
"437 700 CURVE SMOOTH",
"347 700 LINE SMOOTH",
"317 700 OFFCURVE",
"307 690 OFFCURVE",
"307 660 CURVE SMOOTH",
"307 330 LINE SMOOTH",
"307 316 OFFCURVE",
"303 310 OFFCURVE",
"294 310 CURVE SMOOTH",
"286 310 OFFCURVE",
"283 318 OFFCURVE",
"281 330 CURVE SMOOTH",
"227 660 LINE SMOOTH",
"221 695 OFFCURVE",
"205 700 OFFCURVE",
"180 700 CURVE SMOOTH",
"60 700 LINE SMOOTH",
"30 700 OFFCURVE",
"20 690 OFFCURVE",
"20 660 CURVE SMOOTH",
"20 40 LINE SMOOTH",
"20 10 OFFCURVE",
"30 0 OFFCURVE",
"60 0 CURVE SMOOTH"
);
}
);
width = 497;
},
{
layerId = "6ABCF30A-460E-4EED-802C-9E4699B7E7F6";
paths = (
{
closed = 1;
nodes = (
"150 0 LINE SMOOTH",
"180 0 OFFCURVE",
"190 10 OFFCURVE",
"190 40 CURVE SMOOTH",
"190 370 LINE SMOOTH",
"190 386 OFFCURVE",
"196 390 OFFCURVE",
"203 390 CURVE SMOOTH",
"209 390 OFFCURVE",
"214 384 OFFCURVE",
"216 370 CURVE SMOOTH",
"270 40 LINE SMOOTH",
"276 6 OFFCURVE",
"291 0 OFFCURVE",
"315 0 CURVE SMOOTH",
"437 0 LINE SMOOTH",
"467 0 OFFCURVE",
"477 10 OFFCURVE",
"477 40 CURVE SMOOTH",
"477 660 LINE SMOOTH",
"477 690 OFFCURVE",
"467 700 OFFCURVE",
"437 700 CURVE SMOOTH",
"347 700 LINE SMOOTH",
"317 700 OFFCURVE",
"307 690 OFFCURVE",
"307 660 CURVE SMOOTH",
"307 330 LINE SMOOTH",
"307 316 OFFCURVE",
"303 310 OFFCURVE",
"294 310 CURVE SMOOTH",
"286 310 OFFCURVE",
"283 318 OFFCURVE",
"281 330 CURVE SMOOTH",
"227 660 LINE SMOOTH",
"221 695 OFFCURVE",
"205 700 OFFCURVE",
"180 700 CURVE SMOOTH",
"60 700 LINE SMOOTH",
"30 700 OFFCURVE",
"20 690 OFFCURVE",
"20 660 CURVE SMOOTH",
"20 40 LINE SMOOTH",
"20 10 OFFCURVE",
"30 0 OFFCURVE",
"60 0 CURVE SMOOTH"
);
}
);
width = 497;
}
);
leftKerningGroup = H;
rightKerningGroup = H;
unicode = 004E;
},
{
color = 5;
glyphname = O;
layers = (
{
layerId = m01;
paths = (
{
closed = 1;
nodes = (
"377 -10 OFFCURVE",
"457 70 OFFCURVE",
"457 200 CURVE SMOOTH",
"457 500 LINE SMOOTH",
"457 630 OFFCURVE",
"377 710 OFFCURVE",
"237 710 CURVE SMOOTH",
"97 710 OFFCURVE",
"17 630 OFFCURVE",
"17 500 CURVE SMOOTH",
"17 200 LINE SMOOTH",
"17 70 OFFCURVE",
"97 -10 OFFCURVE",
"237 -10 CURVE SMOOTH"
);
},
{
closed = 1;
nodes = (
"207 140 OFFCURVE",
"197 160 OFFCURVE",
"197 190 CURVE SMOOTH",
"197 510 LINE SMOOTH",
"197 540 OFFCURVE",
"207 560 OFFCURVE",
"237 560 CURVE SMOOTH",
"267 560 OFFCURVE",
"277 540 OFFCURVE",
"277 510 CURVE SMOOTH",
"277 190 LINE SMOOTH",
"277 160 OFFCURVE",
"267 140 OFFCURVE",
"237 140 CURVE SMOOTH"
);
}
);
width = 474;
},
{
layerId = "6ABCF30A-460E-4EED-802C-9E4699B7E7F6";
paths = (
{
closed = 1;
nodes = (
"377 -10 OFFCURVE",
"457 70 OFFCURVE",
"457 200 CURVE SMOOTH",
"457 500 LINE SMOOTH",
"457 630 OFFCURVE",
"377 710 OFFCURVE",
"237 710 CURVE SMOOTH",
"97 710 OFFCURVE",
"17 630 OFFCURVE",
"17 500 CURVE SMOOTH",
"17 200 LINE SMOOTH",
"17 70 OFFCURVE",
"97 -10 OFFCURVE",
"237 -10 CURVE SMOOTH"
);
},
{
closed = 1;
nodes = (
"207 140 OFFCURVE",
"197 160 OFFCURVE",
"197 190 CURVE SMOOTH",
"197 510 LINE SMOOTH",
"197 540 OFFCURVE",
"207 560 OFFCURVE",
"237 560 CURVE SMOOTH",
"267 560 OFFCURVE",
"277 540 OFFCURVE",
"277 510 CURVE SMOOTH",
"277 190 LINE SMOOTH",
"277 160 OFFCURVE",
"267 140 OFFCURVE",
"237 140 CURVE SMOOTH"
);
}
);
width = 474;
}
);
leftKerningGroup = O;
rightKerningGroup = O;
unicode = 004F;
},
{
color = 5;
glyphname = P;
layers = (
{
layerId = m01;
paths = (
{
closed = 1;
nodes = (
"160 0 LINE SMOOTH",
"190 0 OFFCURVE",
"200 10 OFFCURVE",
"200 40 CURVE SMOOTH",
"200 240 LINE SMOOTH",
"200 255 OFFCURVE",
"205 260 OFFCURVE",
"220 260 CURVE SMOOTH",
"250 260 LINE SMOOTH",
"390 260 OFFCURVE",
"460 320 OFFCURVE",
"460 450 CURVE SMOOTH",
"460 500 LINE SMOOTH",
"460 630 OFFCURVE",
"390 700 OFFCURVE",
"250 700 CURVE SMOOTH",
"60 700 LINE SMOOTH",
"30 700 OFFCURVE",
"20 690 OFFCURVE",
"20 660 CURVE SMOOTH",
"20 40 LINE SMOOTH",
"20 10 OFFCURVE",
"30 0 OFFCURVE",
"60 0 CURVE SMOOTH"
);
},
{
closed = 1;
nodes = (
"205 400 OFFCURVE",
"200 405 OFFCURVE",
"200 420 CURVE SMOOTH",
"200 530 LINE SMOOTH",
"200 545 OFFCURVE",
"205 550 OFFCURVE",
"220 550 CURVE SMOOTH",
"240 550 LINE SMOOTH",
"270 550 OFFCURVE",
"280 540 OFFCURVE",
"280 510 CURVE SMOOTH",
"280 440 LINE SMOOTH",
"280 410 OFFCURVE",
"270 400 OFFCURVE",
"240 400 CURVE SMOOTH",
"220 400 LINE SMOOTH"
);
}
);
width = 472;
},
{
associatedMasterId = m01;
layerId = "7617D11D-DF4A-434F-A812-34A57292387D";
name = "Sep 18, 22, 17:38";
paths = (
{
closed = 1;
nodes = (
"250 0 LINE SMOOTH",
"390 0 OFFCURVE",
"460 70 OFFCURVE",
"460 200 CURVE SMOOTH",
"460 500 LINE SMOOTH",
"460 630 OFFCURVE",
"390 700 OFFCURVE",
"250 700 CURVE SMOOTH",
"60 700 LINE SMOOTH",
"30 700 OFFCURVE",
"20 690 OFFCURVE",
"20 660 CURVE SMOOTH",
"20 40 LINE SMOOTH",
"20 10 OFFCURVE",
"30 0 OFFCURVE",
"60 0 CURVE SMOOTH"
);
},
{
closed = 1;
nodes = (
"205 150 OFFCURVE",
"200 155 OFFCURVE",
"200 170 CURVE SMOOTH",
"200 530 LINE SMOOTH",
"200 545 OFFCURVE",
"205 550 OFFCURVE",
"220 550 CURVE SMOOTH",
"240 550 LINE SMOOTH",
"270 550 OFFCURVE",
"280 540 OFFCURVE",
"280 510 CURVE SMOOTH",
"280 190 LINE SMOOTH",
"280 160 OFFCURVE",
"270 150 OFFCURVE",
"240 150 CURVE SMOOTH",
"220 150 LINE SMOOTH"
);
}
);
visible = 1;
width = 480;
},
{
layerId = "6ABCF30A-460E-4EED-802C-9E4699B7E7F6";
paths = (
{
closed = 1;
nodes = (
"160 0 LINE SMOOTH",
"190 0 OFFCURVE",
"200 10 OFFCURVE",
"200 40 CURVE SMOOTH",
"200 240 LINE SMOOTH",
"200 255 OFFCURVE",
"205 260 OFFCURVE",
"220 260 CURVE SMOOTH",
"250 260 LINE SMOOTH",
"390 260 OFFCURVE",
"460 320 OFFCURVE",
"460 450 CURVE SMOOTH",
"460 500 LINE SMOOTH",
"460 630 OFFCURVE",
"390 700 OFFCURVE",
"250 700 CURVE SMOOTH",
"60 700 LINE SMOOTH",
"30 700 OFFCURVE",
"20 690 OFFCURVE",
"20 660 CURVE SMOOTH",
"20 40 LINE SMOOTH",
"20 10 OFFCURVE",
"30 0 OFFCURVE",
"60 0 CURVE SMOOTH"
);
},
{
closed = 1;
nodes = (
"205 400 OFFCURVE",
"200 405 OFFCURVE",
"200 420 CURVE SMOOTH",
"200 530 LINE SMOOTH",
"200 545 OFFCURVE",
"205 550 OFFCURVE",
"220 550 CURVE SMOOTH",
"240 550 LINE SMOOTH",
"270 550 OFFCURVE",
"280 540 OFFCURVE",
"280 510 CURVE SMOOTH",
"280 440 LINE SMOOTH",
"280 410 OFFCURVE",
"270 400 OFFCURVE",
"240 400 CURVE SMOOTH",
"220 400 LINE SMOOTH"
);
}
);
width = 472;
}
);
leftKerningGroup = H;
rightKerningGroup = P;
unicode = 0050;
},
{
color = 5;
glyphname = Q;
layers = (
{
layerId = m01;
paths = (
{
closed = 1;
nodes = (
"308 -10 OFFCURVE",
"336 30 OFFCURVE",
"356 30 CURVE SMOOTH",
"370 30 OFFCURVE",
"380 0 OFFCURVE",
"440 0 CURVE SMOOTH",
"460 0 LINE SMOOTH",
"490 0 OFFCURVE",
"500 10 OFFCURVE",
"500 40 CURVE SMOOTH",
"500 120 LINE SMOOTH",
"500 150 OFFCURVE",
"490 160 OFFCURVE",
"460 160 CURVE SMOOTH",
"430 160 OFFCURVE",
"420 170 OFFCURVE",
"420 184 CURVE SMOOTH",
"420 214 OFFCURVE",
"460 225 OFFCURVE",
"460 290 CURVE SMOOTH",
"460 500 LINE SMOOTH",
"460 630 OFFCURVE",
"380 710 OFFCURVE",
"240 710 CURVE SMOOTH",
"100 710 OFFCURVE",
"20 630 OFFCURVE",
"20 500 CURVE SMOOTH",
"20 200 LINE SMOOTH",
"20 70 OFFCURVE",
"100 -10 OFFCURVE",
"240 -10 CURVE SMOOTH"
);
},
{
closed = 1;
nodes = (
"210 130 OFFCURVE",
"200 150 OFFCURVE",
"200 180 CURVE SMOOTH",
"200 520 LINE SMOOTH",
"200 550 OFFCURVE",
"210 570 OFFCURVE",
"240 570 CURVE SMOOTH",
"270 570 OFFCURVE",
"280 550 OFFCURVE",
"280 520 CURVE SMOOTH",
"280 180 LINE SMOOTH",
"280 150 OFFCURVE",
"270 130 OFFCURVE",
"240 130 CURVE SMOOTH"
);
}
);
width = 520;
},
{
layerId = "6ABCF30A-460E-4EED-802C-9E4699B7E7F6";
paths = (
{
closed = 1;
nodes = (
"308 -10 OFFCURVE",
"336 30 OFFCURVE",
"356 30 CURVE SMOOTH",
"370 30 OFFCURVE",
"380 0 OFFCURVE",
"440 0 CURVE SMOOTH",
"460 0 LINE SMOOTH",
"490 0 OFFCURVE",
"500 10 OFFCURVE",
"500 40 CURVE SMOOTH",
"500 120 LINE SMOOTH",
"500 150 OFFCURVE",
"490 160 OFFCURVE",
"460 160 CURVE SMOOTH",
"430 160 OFFCURVE",
"420 170 OFFCURVE",
"420 184 CURVE SMOOTH",
"420 214 OFFCURVE",
"460 225 OFFCURVE",
"460 290 CURVE SMOOTH",
"460 500 LINE SMOOTH",
"460 630 OFFCURVE",
"380 710 OFFCURVE",
"240 710 CURVE SMOOTH",
"100 710 OFFCURVE",
"20 630 OFFCURVE",
"20 500 CURVE SMOOTH",
"20 200 LINE SMOOTH",
"20 70 OFFCURVE",
"100 -10 OFFCURVE",
"240 -10 CURVE SMOOTH"
);
},
{
closed = 1;
nodes = (
"210 130 OFFCURVE",
"200 150 OFFCURVE",
"200 180 CURVE SMOOTH",
"200 520 LINE SMOOTH",
"200 550 OFFCURVE",
"210 570 OFFCURVE",
"240 570 CURVE SMOOTH",
"270 570 OFFCURVE",
"280 550 OFFCURVE",
"280 520 CURVE SMOOTH",
"280 180 LINE SMOOTH",
"280 150 OFFCURVE",
"270 130 OFFCURVE",
"240 130 CURVE SMOOTH"
);
}
);
width = 520;
}
);
leftKerningGroup = O;
rightKerningGroup = Q;
unicode = 0051;
},
{
color = 5;
glyphname = R;
layers = (
{
layerId = m01;
paths = (
{
closed = 1;
nodes = (
"160 0 LINE SMOOTH",
"190 0 OFFCURVE",
"200 10 OFFCURVE",
"200 40 CURVE SMOOTH",
"200 260 LINE SMOOTH",
"200 275 OFFCURVE",
"205 280 OFFCURVE",
"220 280 CURVE SMOOTH",
"240 280 LINE SMOOTH",
"270 280 OFFCURVE",
"280 270 OFFCURVE",
"280 230 CURVE SMOOTH",
"280 60 LINE SMOOTH",
"280 20 OFFCURVE",
"300 0 OFFCURVE",
"340 0 CURVE SMOOTH",
"430 0 LINE SMOOTH",
"460 0 OFFCURVE",
"470 10 OFFCURVE",
"470 26 CURVE SMOOTH",
"470 43 OFFCURVE",
"460 43 OFFCURVE",
"460 80 CURVE SMOOTH",
"460 210 LINE SMOOTH",
"460 268 OFFCURVE",
"439 297 OFFCURVE",
"409 320 CURVE SMOOTH",
"394 332 OFFCURVE",
"391 335 OFFCURVE",
"391 340 CURVE SMOOTH",
"391 345 OFFCURVE",
"393 346 OFFCURVE",
"409 362 CURVE SMOOTH",
"435 388 OFFCURVE",
"460 430 OFFCURVE",
"460 500 CURVE SMOOTH",
"460 630 OFFCURVE",
"390 700 OFFCURVE",
"250 700 CURVE SMOOTH",
"60 700 LINE SMOOTH",
"30 700 OFFCURVE",
"20 690 OFFCURVE",
"20 660 CURVE SMOOTH",
"20 40 LINE SMOOTH",
"20 10 OFFCURVE",
"30 0 OFFCURVE",
"60 0 CURVE SMOOTH"
);
},
{
closed = 1;
nodes = (
"205 420 OFFCURVE",
"200 425 OFFCURVE",
"200 440 CURVE SMOOTH",
"200 530 LINE SMOOTH",
"200 545 OFFCURVE",
"205 550 OFFCURVE",
"220 550 CURVE SMOOTH",
"240 550 LINE SMOOTH",
"270 550 OFFCURVE",
"280 540 OFFCURVE",
"280 510 CURVE SMOOTH",
"280 460 LINE SMOOTH",
"280 430 OFFCURVE",
"270 420 OFFCURVE",
"240 420 CURVE SMOOTH",
"220 420 LINE SMOOTH"
);
}
);
width = 484;
},
{
associatedMasterId = m01;
layerId = "2B6B7FD0-8D33-4F20-AD1F-C0C48965C0C6";
name = "Sep 8, 22, 09:34";
paths = (
{
closed = 1;
nodes = (
"143 0 LINE SMOOTH",
"173 0 OFFCURVE",
"183 10 OFFCURVE",
"183 40 CURVE SMOOTH",
"183 226 LINE SMOOTH",
"183 246 OFFCURVE",
"189 256 OFFCURVE",
"203 256 CURVE SMOOTH",
"218 256 OFFCURVE",
"223 236 OFFCURVE",
"223 210 CURVE SMOOTH",
"223 78 OFFCURVE",
"306 0 OFFCURVE",
"410 0 CURVE SMOOTH",
"450 0 OFFCURVE",
"470 30 OFFCURVE",
"470 60 CURVE SMOOTH",
"470 116 LINE SMOOTH",
"470 146 OFFCURVE",
"460 166 OFFCURVE",
"430 166 CURVE SMOOTH",
"381 166 OFFCURVE",
"354 226 OFFCURVE",
"354 273 CURVE SMOOTH",
"354 290 OFFCURVE",
"372 303 OFFCURVE",
"390 319 CURVE SMOOTH",
"423 347 OFFCURVE",
"461 385 OFFCURVE",
"461 471 CURVE SMOOTH",
"461 649 OFFCURVE",
"350 700 OFFCURVE",
"255 700 CURVE SMOOTH",
"58 700 LINE SMOOTH",
"28 700 OFFCURVE",
"18 690 OFFCURVE",
"18 660 CURVE SMOOTH",
"18 40 LINE SMOOTH",
"18 10 OFFCURVE",
"28 0 OFFCURVE",
"58 0 CURVE SMOOTH"
);
},
{
closed = 1;
nodes = (
"191 387 OFFCURVE",
"183 392 OFFCURVE",
"183 407 CURVE SMOOTH",
"183 541 LINE SMOOTH",
"183 555 OFFCURVE",
"189 561 OFFCURVE",
"204 561 CURVE SMOOTH",
"262 561 OFFCURVE",
"286 541 OFFCURVE",
"286 471 CURVE SMOOTH",
"286 412 OFFCURVE",
"264 387 OFFCURVE",
"203 387 CURVE SMOOTH"
);
}
);
width = 482;
},
{
associatedMasterId = m01;
layerId = "FE3701A9-6AA2-4544-9E02-10D42A54DE1C";
name = "Sep 8, 22, 10:01";
paths = (
{
closed = 1;
nodes = (
"380 -10 OFFCURVE",
"460 70 OFFCURVE",
"460 200 CURVE SMOOTH",
"460 500 LINE SMOOTH",
"460 630 OFFCURVE",
"380 710 OFFCURVE",
"240 710 CURVE SMOOTH",
"100 710 OFFCURVE",
"20 630 OFFCURVE",
"20 500 CURVE SMOOTH",
"20 200 LINE SMOOTH",
"20 70 OFFCURVE",
"100 -10 OFFCURVE",
"240 -10 CURVE SMOOTH"
);
},
{
closed = 1;
nodes = (
"210 130 OFFCURVE",
"200 150 OFFCURVE",
"200 180 CURVE SMOOTH",
"200 520 LINE SMOOTH",
"200 550 OFFCURVE",
"210 570 OFFCURVE",
"240 570 CURVE SMOOTH",
"270 570 OFFCURVE",
"280 550 OFFCURVE",
"280 520 CURVE SMOOTH",
"280 180 LINE SMOOTH",
"280 150 OFFCURVE",
"270 130 OFFCURVE",
"240 130 CURVE SMOOTH"
);
}
);
width = 480;
},
{
associatedMasterId = m01;
layerId = "31158304-9327-440A-B714-28B9F3A91AF8";
name = "Sep 8, 22, 11:02";
paths = (
{
closed = 1;
nodes = (
"160 0 LINE SMOOTH",
"190 0 OFFCURVE",
"200 10 OFFCURVE",
"200 40 CURVE SMOOTH",
"200 200 LINE SMOOTH",
"200 230 OFFCURVE",
"210 239 OFFCURVE",
"230 239 CURVE SMOOTH",
"250 239 OFFCURVE",
"260 230 OFFCURVE",
"260 200 CURVE SMOOTH",
"260 90 LINE SMOOTH",
"260 56 OFFCURVE",
"309 0 OFFCURVE",
"342 0 CURVE SMOOTH",
"432 0 LINE SMOOTH",
"462 0 OFFCURVE",
"470 10 OFFCURVE",
"470 40 CURVE SMOOTH",
"470 60 LINE SMOOTH",
"470 73 OFFCURVE",
"470 80 OFFCURVE",
"450 80 CURVE SMOOTH",
"437 80 OFFCURVE",
"432 91 OFFCURVE",
"432 105 CURVE SMOOTH",
"432 204 LINE SMOOTH",
"432 224 OFFCURVE",
"417 262 OFFCURVE",
"411 266 CURVE SMOOTH",
"401 272 OFFCURVE",
"392 279 OFFCURVE",
"392 288 CURVE SMOOTH",
"392 299 OFFCURVE",
"410 304 OFFCURVE",
"421 314 CURVE SMOOTH",
"446 336 OFFCURVE",
"470 359 OFFCURVE",
"470 459 CURVE SMOOTH",
"470 480 LINE SMOOTH",
"470 660 OFFCURVE",
"380 700 OFFCURVE",
"240 700 CURVE SMOOTH",
"60 700 LINE SMOOTH",
"30 700 OFFCURVE",
"20 690 OFFCURVE",
"20 660 CURVE SMOOTH",
"20 40 LINE SMOOTH",
"20 10 OFFCURVE",
"30 0 OFFCURVE",
"60 0 CURVE SMOOTH"
);
},
{
closed = 1;
nodes = (
"205 379 OFFCURVE",
"200 384 OFFCURVE",
"200 399 CURVE SMOOTH",
"200 540 LINE SMOOTH",
"200 555 OFFCURVE",
"204 560 OFFCURVE",
"220 560 CURVE SMOOTH",
"230 560 LINE SMOOTH",
"270 560 OFFCURVE",
"280 540 OFFCURVE",
"280 500 CURVE SMOOTH",
"280 439 LINE SMOOTH",
"280 399 OFFCURVE",
"270 379 OFFCURVE",
"230 379 CURVE SMOOTH",
"220 379 LINE SMOOTH"
);
}
);
width = 480;
},
{
associatedMasterId = m01;
layerId = "52408A37-EA0F-4A0E-A18C-3D85164FBBDA";
name = "Sep 10, 22, 17:05";
paths = (
{
closed = 1;
nodes = (
"160 0 LINE SMOOTH",
"190 0 OFFCURVE",
"200 10 OFFCURVE",
"200 40 CURVE SMOOTH",
"200 229 LINE SMOOTH",
"200 244 OFFCURVE",
"205 249 OFFCURVE",
"220 249 CURVE SMOOTH",
"240 249 OFFCURVE",
"250 230 OFFCURVE",
"250 210 CURVE SMOOTH",
"250 149 LINE SMOOTH",
"250 35 OFFCURVE",
"321 0 OFFCURVE",
"432 0 CURVE SMOOTH",
"462 0 OFFCURVE",
"470 10 OFFCURVE",
"470 40 CURVE SMOOTH",
"470 120 LINE SMOOTH",
"470 150 OFFCURVE",
"460 160 OFFCURVE",
"432 160 CURVE SMOOTH",
"388 160 OFFCURVE",
"380 209 OFFCURVE",
"380 239 CURVE SMOOTH",
"380 288 OFFCURVE",
"403 298 OFFCURVE",
"415 310 CURVE SMOOTH",
"449 343 OFFCURVE",
"470 369 OFFCURVE",
"470 469 CURVE SMOOTH",
"470 480 LINE SMOOTH",
"470 660 OFFCURVE",
"380 700 OFFCURVE",
"240 700 CURVE SMOOTH",
"60 700 LINE SMOOTH",
"30 700 OFFCURVE",
"20 690 OFFCURVE",
"20 660 CURVE SMOOTH",
"20 40 LINE SMOOTH",
"20 10 OFFCURVE",
"30 0 OFFCURVE",
"60 0 CURVE SMOOTH"
);
},
{
closed = 1;
nodes = (
"205 389 OFFCURVE",
"200 394 OFFCURVE",
"200 409 CURVE SMOOTH",
"200 540 LINE SMOOTH",
"200 555 OFFCURVE",
"204 560 OFFCURVE",
"220 560 CURVE SMOOTH",
"230 560 LINE SMOOTH",
"270 560 OFFCURVE",
"280 540 OFFCURVE",
"280 500 CURVE SMOOTH",
"280 449 LINE SMOOTH",
"280 409 OFFCURVE",
"270 389 OFFCURVE",
"230 389 CURVE SMOOTH",
"220 389 LINE SMOOTH"
);
}
);
width = 480;
},
{
associatedMasterId = m01;
layerId = "C57620E5-20A0-4227-B136-87D84FF4D4E6";
name = "Sep 10, 22, 19:31";
paths = (
{
closed = 1;
nodes = (
"160 0 LINE SMOOTH",
"190 0 OFFCURVE",
"200 10 OFFCURVE",
"200 40 CURVE SMOOTH",
"200 219 LINE SMOOTH",
"200 240 OFFCURVE",
"206 249 OFFCURVE",
"220 249 CURVE SMOOTH",
"229 249 OFFCURVE",
"238 244 OFFCURVE",
"248 219 CURVE SMOOTH",
"318 40 LINE SMOOTH",
"329 12 OFFCURVE",
"341 0 OFFCURVE",
"364 0 CURVE SMOOTH",
"430 0 LINE SMOOTH",
"460 0 OFFCURVE",
"470 10 OFFCURVE",
"470 40 CURVE SMOOTH",
"470 100 LINE SMOOTH",
"470 118 OFFCURVE",
"465 131 OFFCURVE",
"456 152 CURVE SMOOTH",
"412 256 LINE SMOOTH",
"403 277 OFFCURVE",
"401 283 OFFCURVE",
"401 290 CURVE SMOOTH",
"401 297 OFFCURVE",
"403 299 OFFCURVE",
"417 317 CURVE SMOOTH",
"442 349 OFFCURVE",
"470 395 OFFCURVE",
"470 470 CURVE SMOOTH",
"470 650 OFFCURVE",
"380 700 OFFCURVE",
"240 700 CURVE SMOOTH",
"60 700 LINE SMOOTH",
"30 700 OFFCURVE",
"20 690 OFFCURVE",
"20 660 CURVE SMOOTH",
"20 40 LINE SMOOTH",
"20 10 OFFCURVE",
"30 0 OFFCURVE",
"60 0 CURVE SMOOTH"
);
},
{
closed = 1;
nodes = (
"205 389 OFFCURVE",
"200 394 OFFCURVE",
"200 409 CURVE SMOOTH",
"200 540 LINE SMOOTH",
"200 555 OFFCURVE",
"204 560 OFFCURVE",
"220 560 CURVE SMOOTH",
"230 560 LINE SMOOTH",
"270 560 OFFCURVE",
"280 540 OFFCURVE",
"280 500 CURVE SMOOTH",
"280 449 LINE SMOOTH",
"280 409 OFFCURVE",
"270 389 OFFCURVE",
"230 389 CURVE SMOOTH",
"220 389 LINE SMOOTH"
);
}
);
width = 480;
},
{
associatedMasterId = m01;
layerId = "7518F2C4-DB8F-4DB0-B17F-E5FE0032638E";
name = "Sep 18, 22, 18:05";
paths = (
{
closed = 1;
nodes = (
"160 0 LINE SMOOTH",
"190 0 OFFCURVE",
"200 10 OFFCURVE",
"200 40 CURVE SMOOTH",
"200 240 LINE SMOOTH",
"200 255 OFFCURVE",
"205 260 OFFCURVE",
"220 260 CURVE SMOOTH",
"250 260 LINE SMOOTH",
"390 260 OFFCURVE",
"460 320 OFFCURVE",
"460 450 CURVE SMOOTH",
"460 500 LINE SMOOTH",
"460 630 OFFCURVE",
"390 700 OFFCURVE",
"250 700 CURVE SMOOTH",
"60 700 LINE SMOOTH",
"30 700 OFFCURVE",
"20 690 OFFCURVE",
"20 660 CURVE SMOOTH",
"20 40 LINE SMOOTH",
"20 10 OFFCURVE",
"30 0 OFFCURVE",
"60 0 CURVE SMOOTH"
);
},
{
closed = 1;
nodes = (
"205 400 OFFCURVE",
"200 405 OFFCURVE",
"200 420 CURVE SMOOTH",
"200 530 LINE SMOOTH",
"200 545 OFFCURVE",
"205 550 OFFCURVE",
"220 550 CURVE SMOOTH",
"240 550 LINE SMOOTH",
"270 550 OFFCURVE",
"280 540 OFFCURVE",
"280 510 CURVE SMOOTH",
"280 440 LINE SMOOTH",
"280 410 OFFCURVE",
"270 400 OFFCURVE",
"240 400 CURVE SMOOTH",
"220 400 LINE SMOOTH"
);
}
);
visible = 1;
width = 480;
},
{
layerId = "6ABCF30A-460E-4EED-802C-9E4699B7E7F6";
paths = (
{
closed = 1;
nodes = (
"160 0 LINE SMOOTH",
"190 0 OFFCURVE",
"200 10 OFFCURVE",
"200 40 CURVE SMOOTH",
"200 260 LINE SMOOTH",
"200 275 OFFCURVE",
"205 280 OFFCURVE",
"220 280 CURVE SMOOTH",
"240 280 LINE SMOOTH",
"270 280 OFFCURVE",
"280 270 OFFCURVE",
"280 230 CURVE SMOOTH",
"280 60 LINE SMOOTH",
"280 20 OFFCURVE",
"300 0 OFFCURVE",
"340 0 CURVE SMOOTH",
"430 0 LINE SMOOTH",
"460 0 OFFCURVE",
"470 10 OFFCURVE",
"470 26 CURVE SMOOTH",
"470 43 OFFCURVE",
"460 43 OFFCURVE",
"460 80 CURVE SMOOTH",
"460 210 LINE SMOOTH",
"460 268 OFFCURVE",
"439 297 OFFCURVE",
"409 320 CURVE SMOOTH",
"394 332 OFFCURVE",
"391 335 OFFCURVE",
"391 340 CURVE SMOOTH",
"391 345 OFFCURVE",
"393 346 OFFCURVE",
"409 362 CURVE SMOOTH",
"435 388 OFFCURVE",
"460 430 OFFCURVE",
"460 500 CURVE SMOOTH",
"460 630 OFFCURVE",
"390 700 OFFCURVE",
"250 700 CURVE SMOOTH",
"60 700 LINE SMOOTH",
"30 700 OFFCURVE",
"20 690 OFFCURVE",
"20 660 CURVE SMOOTH",
"20 40 LINE SMOOTH",
"20 10 OFFCURVE",
"30 0 OFFCURVE",
"60 0 CURVE SMOOTH"
);
},
{
closed = 1;
nodes = (
"205 420 OFFCURVE",
"200 425 OFFCURVE",
"200 440 CURVE SMOOTH",
"200 530 LINE SMOOTH",
"200 545 OFFCURVE",
"205 550 OFFCURVE",
"220 550 CURVE SMOOTH",
"240 550 LINE SMOOTH",
"270 550 OFFCURVE",
"280 540 OFFCURVE",
"280 510 CURVE SMOOTH",
"280 460 LINE SMOOTH",
"280 430 OFFCURVE",
"270 420 OFFCURVE",
"240 420 CURVE SMOOTH",
"220 420 LINE SMOOTH"
);
}
);
width = 484;
}
);
leftKerningGroup = H;
rightKerningGroup = R;
unicode = 0052;
},
{
color = 5;
glyphname = S;
layers = (
{
layerId = m01;
paths = (
{
closed = 1;
nodes = (
"370 -10 OFFCURVE",
"470 40 OFFCURVE",
"470 180 CURVE SMOOTH",
"470 263 OFFCURVE",
"420 322 OFFCURVE",
"317 386 CURVE SMOOTH",
"209 453 OFFCURVE",
"190 481 OFFCURVE",
"190 520 CURVE SMOOTH",
"190 550 OFFCURVE",
"200 570 OFFCURVE",
"230 570 CURVE SMOOTH",
"260 570 OFFCURVE",
"270 550 OFFCURVE",
"270 520 CURVE SMOOTH",
"270 500 LINE SMOOTH",
"270 470 OFFCURVE",
"280 460 OFFCURVE",
"310 460 CURVE SMOOTH",
"410 460 LINE SMOOTH",
"440 460 OFFCURVE",
"450 470 OFFCURVE",
"450 500 CURVE SMOOTH",
"450 640 OFFCURVE",
"370 710 OFFCURVE",
"230 710 CURVE SMOOTH",
"90 710 OFFCURVE",
"10 640 OFFCURVE",
"10 500 CURVE SMOOTH",
"10 381 OFFCURVE",
"84 346 OFFCURVE",
"180 287 CURVE SMOOTH",
"242 249 OFFCURVE",
"270 211 OFFCURVE",
"270 180 CURVE SMOOTH",
"270 150 OFFCURVE",
"260 130 OFFCURVE",
"230 130 CURVE SMOOTH",
"199 130 OFFCURVE",
"190 150 OFFCURVE",
"190 180 CURVE SMOOTH",
"190 200 LINE SMOOTH",
"190 230 OFFCURVE",
"180 240 OFFCURVE",
"150 240 CURVE SMOOTH",
"50 240 LINE SMOOTH",
"20 240 OFFCURVE",
"10 230 OFFCURVE",
"10 200 CURVE SMOOTH",
"10 60 OFFCURVE",
"90 -10 OFFCURVE",
"230 -10 CURVE SMOOTH"
);
}
);
width = 480;
},
{
layerId = "6ABCF30A-460E-4EED-802C-9E4699B7E7F6";
paths = (
{
closed = 1;
nodes = (
"370 -10 OFFCURVE",
"470 40 OFFCURVE",
"470 180 CURVE SMOOTH",
"470 263 OFFCURVE",
"420 322 OFFCURVE",
"317 386 CURVE SMOOTH",
"209 453 OFFCURVE",
"190 481 OFFCURVE",
"190 520 CURVE SMOOTH",
"190 550 OFFCURVE",
"200 570 OFFCURVE",
"230 570 CURVE SMOOTH",
"260 570 OFFCURVE",
"270 550 OFFCURVE",
"270 520 CURVE SMOOTH",
"270 500 LINE SMOOTH",
"270 470 OFFCURVE",
"280 460 OFFCURVE",
"310 460 CURVE SMOOTH",
"410 460 LINE SMOOTH",
"440 460 OFFCURVE",
"450 470 OFFCURVE",
"450 500 CURVE SMOOTH",
"450 640 OFFCURVE",
"370 710 OFFCURVE",
"230 710 CURVE SMOOTH",
"90 710 OFFCURVE",
"10 640 OFFCURVE",
"10 500 CURVE SMOOTH",
"10 381 OFFCURVE",
"84 346 OFFCURVE",
"180 287 CURVE SMOOTH",
"242 249 OFFCURVE",
"270 211 OFFCURVE",
"270 180 CURVE SMOOTH",
"270 150 OFFCURVE",
"260 130 OFFCURVE",
"230 130 CURVE SMOOTH",
"199 130 OFFCURVE",
"190 150 OFFCURVE",
"190 180 CURVE SMOOTH",
"190 200 LINE SMOOTH",
"190 230 OFFCURVE",
"180 240 OFFCURVE",
"150 240 CURVE SMOOTH",
"50 240 LINE SMOOTH",
"20 240 OFFCURVE",
"10 230 OFFCURVE",
"10 200 CURVE SMOOTH",
"10 60 OFFCURVE",
"90 -10 OFFCURVE",
"230 -10 CURVE SMOOTH"
);
}
);
width = 480;
}
);
leftKerningGroup = S;
rightKerningGroup = S;
unicode = 0053;
},
{
color = 5;
glyphname = T;
layers = (
{
layerId = m01;
paths = (
{
closed = 1;
nodes = (
"262 0 LINE SMOOTH",
"292 0 OFFCURVE",
"302 10 OFFCURVE",
"302 40 CURVE SMOOTH",
"302 530 LINE SMOOTH",
"302 545 OFFCURVE",
"307 550 OFFCURVE",
"322 550 CURVE SMOOTH",
"372 550 LINE SMOOTH",
"402 550 OFFCURVE",
"412 560 OFFCURVE",
"412 590 CURVE SMOOTH",
"412 660 LINE SMOOTH",
"412 690 OFFCURVE",
"402 700 OFFCURVE",
"372 700 CURVE SMOOTH",
"52 700 LINE SMOOTH",
"21 700 OFFCURVE",
"12 690 OFFCURVE",
"12 660 CURVE SMOOTH",
"12 590 LINE SMOOTH",
"12 565 OFFCURVE",
"22 550 OFFCURVE",
"52 550 CURVE SMOOTH",
"102 550 LINE SMOOTH",
"117 550 OFFCURVE",
"122 545 OFFCURVE",
"122 530 CURVE SMOOTH",
"122 40 LINE SMOOTH",
"122 10 OFFCURVE",
"132 0 OFFCURVE",
"162 0 CURVE SMOOTH"
);
}
);
width = 424;
},
{
layerId = "6ABCF30A-460E-4EED-802C-9E4699B7E7F6";
paths = (
{
closed = 1;
nodes = (
"262 0 LINE SMOOTH",
"292 0 OFFCURVE",
"302 10 OFFCURVE",
"302 40 CURVE SMOOTH",
"302 530 LINE SMOOTH",
"302 545 OFFCURVE",
"307 550 OFFCURVE",
"322 550 CURVE SMOOTH",
"372 550 LINE SMOOTH",
"402 550 OFFCURVE",
"412 560 OFFCURVE",
"412 590 CURVE SMOOTH",
"412 660 LINE SMOOTH",
"412 690 OFFCURVE",
"402 700 OFFCURVE",
"372 700 CURVE SMOOTH",
"52 700 LINE SMOOTH",
"21 700 OFFCURVE",
"12 690 OFFCURVE",
"12 660 CURVE SMOOTH",
"12 590 LINE SMOOTH",
"12 565 OFFCURVE",
"22 550 OFFCURVE",
"52 550 CURVE SMOOTH",
"102 550 LINE SMOOTH",
"117 550 OFFCURVE",
"122 545 OFFCURVE",
"122 530 CURVE SMOOTH",
"122 40 LINE SMOOTH",
"122 10 OFFCURVE",
"132 0 OFFCURVE",
"162 0 CURVE SMOOTH"
);
}
);
width = 424;
}
);
leftKerningGroup = T;
rightKerningGroup = T;
unicode = 0054;
},
{
color = 5;
glyphname = U;
layers = (
{
layerId = m01;
paths = (
{
closed = 1;
nodes = (
"378 -10 OFFCURVE",
"458 70 OFFCURVE",
"458 200 CURVE SMOOTH",
"458 660 LINE SMOOTH",
"458 690 OFFCURVE",
"448 700 OFFCURVE",
"418 700 CURVE SMOOTH",
"318 700 LINE SMOOTH",
"288 700 OFFCURVE",
"278 690 OFFCURVE",
"278 660 CURVE SMOOTH",
"278 190 LINE SMOOTH",
"278 160 OFFCURVE",
"268 140 OFFCURVE",
"238 140 CURVE SMOOTH",
"208 140 OFFCURVE",
"198 160 OFFCURVE",
"198 190 CURVE SMOOTH",
"198 660 LINE SMOOTH",
"198 690 OFFCURVE",
"188 700 OFFCURVE",
"158 700 CURVE SMOOTH",
"58 700 LINE SMOOTH",
"28 700 OFFCURVE",
"18 690 OFFCURVE",
"18 660 CURVE SMOOTH",
"18 200 LINE SMOOTH",
"18 70 OFFCURVE",
"98 -10 OFFCURVE",
"238 -10 CURVE SMOOTH"
);
}
);
width = 476;
},
{
layerId = "6ABCF30A-460E-4EED-802C-9E4699B7E7F6";
paths = (
{
closed = 1;
nodes = (
"378 -10 OFFCURVE",
"458 70 OFFCURVE",
"458 200 CURVE SMOOTH",
"458 660 LINE SMOOTH",
"458 690 OFFCURVE",
"448 700 OFFCURVE",
"418 700 CURVE SMOOTH",
"318 700 LINE SMOOTH",
"288 700 OFFCURVE",
"278 690 OFFCURVE",
"278 660 CURVE SMOOTH",
"278 190 LINE SMOOTH",
"278 160 OFFCURVE",
"268 140 OFFCURVE",
"238 140 CURVE SMOOTH",
"208 140 OFFCURVE",
"198 160 OFFCURVE",
"198 190 CURVE SMOOTH",
"198 660 LINE SMOOTH",
"198 690 OFFCURVE",
"188 700 OFFCURVE",
"158 700 CURVE SMOOTH",
"58 700 LINE SMOOTH",
"28 700 OFFCURVE",
"18 690 OFFCURVE",
"18 660 CURVE SMOOTH",
"18 200 LINE SMOOTH",
"18 70 OFFCURVE",
"98 -10 OFFCURVE",
"238 -10 CURVE SMOOTH"
);
}
);
width = 476;
}
);
leftKerningGroup = U;
rightKerningGroup = U;
unicode = 0055;
},
{
color = 5;
glyphname = V;
layers = (
{
layerId = m01;
paths = (
{
closed = 1;
nodes = (
"355 0 LINE SMOOTH",
"381 0 OFFCURVE",
"391 11 OFFCURVE",
"395 40 CURVE SMOOTH",
"482 614 LINE SMOOTH",
"487 647 OFFCURVE",
"490 660 OFFCURVE",
"490 670 CURVE SMOOTH",
"490 690 OFFCURVE",
"480 700 OFFCURVE",
"460 700 CURVE SMOOTH",
"345 700 LINE SMOOTH",
"315 700 OFFCURVE",
"308 690 OFFCURVE",
"305 660 CURVE SMOOTH",
"265 190 LINE SMOOTH",
"264 176 OFFCURVE",
"260 170 OFFCURVE",
"250 170 CURVE SMOOTH",
"240 170 OFFCURVE",
"236 175 OFFCURVE",
"235 190 CURVE SMOOTH",
"195 660 LINE SMOOTH",
"192 690 OFFCURVE",
"185 700 OFFCURVE",
"155 700 CURVE SMOOTH",
"40 700 LINE SMOOTH",
"20 700 OFFCURVE",
"10 690 OFFCURVE",
"10 670 CURVE SMOOTH",
"10 660 OFFCURVE",
"13 647 OFFCURVE",
"18 614 CURVE SMOOTH",
"105 40 LINE SMOOTH",
"110 10 OFFCURVE",
"125 0 OFFCURVE",
"145 0 CURVE SMOOTH"
);
}
);
width = 500;
},
{
associatedMasterId = m01;
layerId = "7786A122-C3EC-43E0-B566-6DF7C6BDD768";
name = "Sep 11, 22, 11:30";
paths = (
{
closed = 1;
nodes = (
"365 700 LINE SMOOTH",
"345 700 OFFCURVE",
"331 690 OFFCURVE",
"325 660 CURVE SMOOTH",
"310 580 LINE SMOOTH",
"306 559 OFFCURVE",
"300 550 OFFCURVE",
"280 550 CURVE SMOOTH",
"220 550 LINE SMOOTH",
"200 550 OFFCURVE",
"194 559 OFFCURVE",
"190 580 CURVE SMOOTH",
"175 660 LINE SMOOTH",
"169 690 OFFCURVE",
"155 700 OFFCURVE",
"135 700 CURVE SMOOTH",
"30 700 LINE SMOOTH",
"0 700 OFFCURVE",
"-10 690 OFFCURVE",
"-10 660 CURVE SMOOTH",
"-10 620 OFFCURVE",
"85 170 OFFCURVE",
"108 60 CURVE SMOOTH",
"118 10 OFFCURVE",
"130 0 OFFCURVE",
"160 0 CURVE SMOOTH",
"340 0 LINE SMOOTH",
"370 0 OFFCURVE",
"382 10 OFFCURVE",
"392 60 CURVE SMOOTH",
"415 170 OFFCURVE",
"510 620 OFFCURVE",
"510 660 CURVE SMOOTH",
"510 690 OFFCURVE",
"500 700 OFFCURVE",
"470 700 CURVE SMOOTH"
);
},
{
closed = 1;
nodes = (
"285 410 OFFCURVE",
"290 405 OFFCURVE",
"290 390 CURVE SMOOTH",
"290 370 OFFCURVE",
"277 280 OFFCURVE",
"264 170 CURVE SMOOTH",
"263 160 OFFCURVE",
"260 150 OFFCURVE",
"250 150 CURVE SMOOTH",
"240 150 OFFCURVE",
"238 161 OFFCURVE",
"237 170 CURVE SMOOTH",
"223 281 OFFCURVE",
"210 370 OFFCURVE",
"210 390 CURVE SMOOTH",
"210 405 OFFCURVE",
"215 410 OFFCURVE",
"230 410 CURVE SMOOTH",
"270 410 LINE SMOOTH"
);
}
);
visible = 1;
width = 500;
},
{
layerId = "6ABCF30A-460E-4EED-802C-9E4699B7E7F6";
paths = (
{
closed = 1;
nodes = (
"355 0 LINE SMOOTH",
"381 0 OFFCURVE",
"391 11 OFFCURVE",
"395 40 CURVE SMOOTH",
"482 614 LINE SMOOTH",
"487 647 OFFCURVE",
"490 660 OFFCURVE",
"490 670 CURVE SMOOTH",
"490 690 OFFCURVE",
"480 700 OFFCURVE",
"460 700 CURVE SMOOTH",
"345 700 LINE SMOOTH",
"315 700 OFFCURVE",
"308 690 OFFCURVE",
"305 660 CURVE SMOOTH",
"265 190 LINE SMOOTH",
"264 176 OFFCURVE",
"260 170 OFFCURVE",
"250 170 CURVE SMOOTH",
"240 170 OFFCURVE",
"236 175 OFFCURVE",
"235 190 CURVE SMOOTH",
"195 660 LINE SMOOTH",
"192 690 OFFCURVE",
"185 700 OFFCURVE",
"155 700 CURVE SMOOTH",
"40 700 LINE SMOOTH",
"20 700 OFFCURVE",
"10 690 OFFCURVE",
"10 670 CURVE SMOOTH",
"10 660 OFFCURVE",
"13 647 OFFCURVE",
"18 614 CURVE SMOOTH",
"105 40 LINE SMOOTH",
"110 10 OFFCURVE",
"125 0 OFFCURVE",
"145 0 CURVE SMOOTH"
);
}
);
width = 500;
}
);
leftKerningGroup = V;
rightKerningGroup = V;
unicode = 0056;
},
{
color = 5;
glyphname = W;
layers = (
{
layerId = m01;
paths = (
{
closed = 1;
nodes = (
"257 0 LINE SMOOTH",
"282 0 OFFCURVE",
"293 15 OFFCURVE",
"297 40 CURVE SMOOTH",
"330 240 LINE SMOOTH",
"332 252 OFFCURVE",
"335 258 OFFCURVE",
"340 258 CURVE SMOOTH",
"345 258 OFFCURVE",
"348 252 OFFCURVE",
"350 240 CURVE SMOOTH",
"383 40 LINE SMOOTH",
"387 15 OFFCURVE",
"398 0 OFFCURVE",
"423 0 CURVE SMOOTH",
"535 0 LINE SMOOTH",
"560 0 OFFCURVE",
"570 10 OFFCURVE",
"575 40 CURVE SMOOTH",
"662 614 LINE SMOOTH",
"667 647 OFFCURVE",
"670 660 OFFCURVE",
"670 670 CURVE SMOOTH",
"670 690 OFFCURVE",
"660 700 OFFCURVE",
"640 700 CURVE SMOOTH",
"520 700 LINE SMOOTH",
"490 700 OFFCURVE",
"482 690 OFFCURVE",
"480 660 CURVE SMOOTH",
"465 360 LINE SMOOTH",
"464 346 OFFCURVE",
"460 340 OFFCURVE",
"450 340 CURVE SMOOTH",
"440 340 OFFCURVE",
"437 346 OFFCURVE",
"435 360 CURVE SMOOTH",
"400 660 LINE SMOOTH",
"397 682 OFFCURVE",
"393 693 OFFCURVE",
"379 698 CURVE SMOOTH",
"375 699 OFFCURVE",
"370 700 OFFCURVE",
"365 700 CURVE SMOOTH",
"315 700 LINE SMOOTH",
"310 700 OFFCURVE",
"305 699 OFFCURVE",
"301 698 CURVE SMOOTH",
"287 693 OFFCURVE",
"283 682 OFFCURVE",
"280 660 CURVE SMOOTH",
"245 360 LINE SMOOTH",
"243 346 OFFCURVE",
"240 340 OFFCURVE",
"230 340 CURVE SMOOTH",
"220 340 OFFCURVE",
"216 345 OFFCURVE",
"215 360 CURVE SMOOTH",
"200 660 LINE SMOOTH",
"198 691 OFFCURVE",
"190 700 OFFCURVE",
"160 700 CURVE SMOOTH",
"40 700 LINE SMOOTH",
"20 700 OFFCURVE",
"10 690 OFFCURVE",
"10 670 CURVE SMOOTH",
"10 660 OFFCURVE",
"13 647 OFFCURVE",
"18 614 CURVE SMOOTH",
"105 40 LINE SMOOTH",
"110 10 OFFCURVE",
"120 0 OFFCURVE",
"145 0 CURVE SMOOTH"
);
}
);
width = 680;
},
{
associatedMasterId = m01;
layerId = "7C45AC42-4E2C-4B8F-88D2-91308C780896";
name = test;
paths = (
{
closed = 1;
nodes = (
"416 70 QCURVE SMOOTH",
"424 36 OFFCURVE",
"444 5 OFFCURVE",
"464 0 OFFCURVE",
"487 0 QCURVE SMOOTH",
"559 0 LINE SMOOTH",
"577 0 OFFCURVE",
"601 10 OFFCURVE",
"614 36 OFFCURVE",
"620 56 OFFCURVE",
"624 80 QCURVE SMOOTH",
"638 153 OFFCURVE",
"711 662 OFFCURVE",
"711 686 QCURVE SMOOTH",
"711 699 OFFCURVE",
"704 710 OFFCURVE",
"692 710 QCURVE SMOOTH",
"575 710 LINE SMOOTH",
"544 710 OFFCURVE",
"542 670 QCURVE",
"499 234 LINE",
"497 229 OFFCURVE",
"494 229 QCURVE SMOOTH",
"490 229 OFFCURVE",
"490 234 QCURVE",
"445 482 LINE",
"445 506 OFFCURVE",
"452 586 OFFCURVE",
"462 666 OFFCURVE",
"462 670 QCURVE SMOOTH",
"462 673 OFFCURVE",
"463 682 OFFCURVE",
"463 684 QCURVE SMOOTH",
"463 710 OFFCURVE",
"440 710 QCURVE SMOOTH",
"436 710 OFFCURVE",
"358 708 OFFCURVE",
"354 708 QCURVE SMOOTH",
"344 708 OFFCURVE",
"296 710 OFFCURVE",
"288 710 QCURVE SMOOTH",
"264 710 OFFCURVE",
"264 684 QCURVE SMOOTH",
"264 675 OFFCURVE",
"265 670 QCURVE SMOOTH",
"266 660 OFFCURVE",
"277 592 OFFCURVE",
"291 502 OFFCURVE",
"294 483 QCURVE",
"294 473 OFFCURVE",
"263 241 OFFCURVE",
"262 234 QCURVE",
"260 229 OFFCURVE",
"257 229 QCURVE SMOOTH",
"253 229 OFFCURVE",
"253 234 QCURVE",
"188 667 LINE SMOOTH",
"185 690 OFFCURVE",
"171 710 OFFCURVE",
"153 710 QCURVE SMOOTH",
"45 710 LINE SMOOTH",
"29 710 OFFCURVE",
"20 700 OFFCURVE",
"20 684 QCURVE SMOOTH",
"20 663 OFFCURVE",
"105 158 OFFCURVE",
"121 80 QCURVE SMOOTH",
"126 57 OFFCURVE",
"133 34 OFFCURVE",
"150 9 OFFCURVE",
"176 0 OFFCURVE",
"197 0 QCURVE SMOOTH",
"252 0 LINE SMOOTH",
"274 0 OFFCURVE",
"296 5 OFFCURVE",
"321 37 OFFCURVE",
"330 70 QCURVE SMOOTH",
"366 203 OFFCURVE",
"372 203 QCURVE SMOOTH",
"384 203 OFFCURVE"
);
}
);
visible = 1;
width = 731;
},
{
associatedMasterId = m01;
layerId = "EE511CAD-2F41-4007-8E66-ECE47DB60691";
name = "Sep 11, 22, 11:53";
paths = (
{
closed = 1;
nodes = (
"365 0 LINE SMOOTH",
"391 0 OFFCURVE",
"399 11 OFFCURVE",
"405 40 CURVE SMOOTH",
"522 614 LINE SMOOTH",
"529 647 OFFCURVE",
"530 660 OFFCURVE",
"530 670 CURVE SMOOTH",
"530 690 OFFCURVE",
"520 700 OFFCURVE",
"500 700 CURVE SMOOTH",
"385 700 LINE SMOOTH",
"355 700 OFFCURVE",
"349 690 OFFCURVE",
"345 660 CURVE SMOOTH",
"285 190 LINE SMOOTH",
"283 176 OFFCURVE",
"280 170 OFFCURVE",
"270 170 CURVE SMOOTH",
"260 170 OFFCURVE",
"257 175 OFFCURVE",
"255 190 CURVE SMOOTH",
"195 660 LINE SMOOTH",
"191 690 OFFCURVE",
"185 700 OFFCURVE",
"155 700 CURVE SMOOTH",
"40 700 LINE SMOOTH",
"20 700 OFFCURVE",
"10 690 OFFCURVE",
"10 670 CURVE SMOOTH",
"10 660 OFFCURVE",
"11 647 OFFCURVE",
"18 614 CURVE SMOOTH",
"135 40 LINE SMOOTH",
"141 10 OFFCURVE",
"155 0 OFFCURVE",
"175 0 CURVE SMOOTH"
);
},
{
closed = 1;
nodes = (
"665 0 LINE SMOOTH",
"691 0 OFFCURVE",
"699 11 OFFCURVE",
"705 40 CURVE SMOOTH",
"822 614 LINE SMOOTH",
"829 647 OFFCURVE",
"830 660 OFFCURVE",
"830 670 CURVE SMOOTH",
"830 690 OFFCURVE",
"820 700 OFFCURVE",
"800 700 CURVE SMOOTH",
"685 700 LINE SMOOTH",
"655 700 OFFCURVE",
"649 690 OFFCURVE",
"645 660 CURVE SMOOTH",
"585 190 LINE SMOOTH",
"583 176 OFFCURVE",
"580 170 OFFCURVE",
"570 170 CURVE SMOOTH",
"560 170 OFFCURVE",
"557 175 OFFCURVE",
"555 190 CURVE SMOOTH",
"495 660 LINE SMOOTH",
"491 690 OFFCURVE",
"485 700 OFFCURVE",
"455 700 CURVE SMOOTH",
"340 700 LINE SMOOTH",
"320 700 OFFCURVE",
"310 690 OFFCURVE",
"310 670 CURVE SMOOTH",
"310 660 OFFCURVE",
"311 647 OFFCURVE",
"318 614 CURVE SMOOTH",
"435 40 LINE SMOOTH",
"441 10 OFFCURVE",
"455 0 OFFCURVE",
"475 0 CURVE SMOOTH"
);
}
);
width = 840;
},
{
associatedMasterId = m01;
layerId = "E9AFD039-CCFC-4320-BDA3-4BE798D4E289";
name = "Sep 11, 22, 12:23";
paths = (
{
closed = 1;
nodes = (
"665 0 LINE SMOOTH",
"691 0 OFFCURVE",
"699 11 OFFCURVE",
"705 40 CURVE SMOOTH",
"822 614 LINE SMOOTH",
"829 647 OFFCURVE",
"830 660 OFFCURVE",
"830 670 CURVE SMOOTH",
"830 690 OFFCURVE",
"820 700 OFFCURVE",
"800 700 CURVE SMOOTH",
"685 700 LINE SMOOTH",
"655 700 OFFCURVE",
"649 690 OFFCURVE",
"645 660 CURVE SMOOTH",
"585 190 LINE SMOOTH",
"583 176 OFFCURVE",
"580 170 OFFCURVE",
"570 170 CURVE SMOOTH",
"560 170 OFFCURVE",
"557 175 OFFCURVE",
"555 190 CURVE SMOOTH",
"495 660 LINE SMOOTH",
"491 690 OFFCURVE",
"485 700 OFFCURVE",
"455 700 CURVE SMOOTH",
"340 700 LINE SMOOTH",
"320 700 OFFCURVE",
"310 690 OFFCURVE",
"310 670 CURVE SMOOTH",
"310 660 OFFCURVE",
"311 647 OFFCURVE",
"318 614 CURVE SMOOTH",
"435 40 LINE SMOOTH",
"441 10 OFFCURVE",
"455 0 OFFCURVE",
"475 0 CURVE SMOOTH"
);
}
);
width = 840;
},
{
associatedMasterId = m01;
layerId = "942703AD-F208-4858-A733-8F59736FB367";
name = "Sep 11, 22, 13:59";
paths = (
{
closed = 1;
nodes = (
"332 0 LINE SMOOTH",
"358 0 OFFCURVE",
"367 11 OFFCURVE",
"372 40 CURVE SMOOTH",
"392 162 LINE SMOOTH",
"394 172 OFFCURVE",
"397 182 OFFCURVE",
"407 182 CURVE SMOOTH",
"417 182 OFFCURVE",
"420 172 OFFCURVE",
"422 162 CURVE SMOOTH",
"447 40 LINE SMOOTH",
"453 9 OFFCURVE",
"467 0 OFFCURVE",
"487 0 CURVE SMOOTH",
"665 0 LINE SMOOTH",
"691 0 OFFCURVE",
"699 11 OFFCURVE",
"705 40 CURVE SMOOTH",
"822 614 LINE SMOOTH",
"829 647 OFFCURVE",
"830 660 OFFCURVE",
"830 670 CURVE SMOOTH",
"830 690 OFFCURVE",
"820 700 OFFCURVE",
"800 700 CURVE SMOOTH",
"685 700 LINE SMOOTH",
"655 700 OFFCURVE",
"649 690 OFFCURVE",
"645 660 CURVE SMOOTH",
"585 190 LINE SMOOTH",
"583 176 OFFCURVE",
"580 170 OFFCURVE",
"570 170 CURVE SMOOTH",
"560 170 OFFCURVE",
"557 175 OFFCURVE",
"555 190 CURVE SMOOTH",
"495 660 LINE SMOOTH",
"491 690 OFFCURVE",
"485 700 OFFCURVE",
"455 700 CURVE SMOOTH",
"338 700 LINE SMOOTH",
"320 700 OFFCURVE",
"310 690 OFFCURVE",
"310 670 CURVE SMOOTH",
"310 655 OFFCURVE",
"312 645 OFFCURVE",
"314 635 CURVE SMOOTH",
"327 551 LINE SMOOTH",
"329 540 OFFCURVE",
"331 531 OFFCURVE",
"331 521 CURVE SMOOTH",
"331 511 OFFCURVE",
"330 501 OFFCURVE",
"327 480 CURVE SMOOTH",
"285 190 LINE SMOOTH",
"283 176 OFFCURVE",
"280 170 OFFCURVE",
"270 170 CURVE SMOOTH",
"260 170 OFFCURVE",
"257 175 OFFCURVE",
"255 190 CURVE SMOOTH",
"195 660 LINE SMOOTH",
"191 690 OFFCURVE",
"185 700 OFFCURVE",
"155 700 CURVE SMOOTH",
"40 700 LINE SMOOTH",
"20 700 OFFCURVE",
"10 690 OFFCURVE",
"10 670 CURVE SMOOTH",
"10 660 OFFCURVE",
"11 647 OFFCURVE",
"18 614 CURVE SMOOTH",
"135 40 LINE SMOOTH",
"141 10 OFFCURVE",
"155 0 OFFCURVE",
"175 0 CURVE SMOOTH"
);
}
);
width = 840;
},
{
associatedMasterId = m01;
layerId = "1DAB239B-0979-48B0-81A8-4CC6A1CEAA4B";
name = "Sep 11, 22, 21:12";
paths = (
{
closed = 1;
nodes = (
"345 0 LINE SMOOTH",
"371 0 OFFCURVE",
"382 12 OFFCURVE",
"385 40 CURVE SMOOTH",
"435 440 LINE SMOOTH",
"436 449 OFFCURVE",
"440 460 OFFCURVE",
"450 460 CURVE SMOOTH",
"460 460 OFFCURVE",
"464 449 OFFCURVE",
"465 440 CURVE SMOOTH",
"515 40 LINE SMOOTH",
"519 10 OFFCURVE",
"535 0 OFFCURVE",
"555 0 CURVE SMOOTH",
"735 0 LINE SMOOTH",
"761 0 OFFCURVE",
"770 11 OFFCURVE",
"775 40 CURVE SMOOTH",
"882 614 LINE SMOOTH",
"888 647 OFFCURVE",
"890 660 OFFCURVE",
"890 670 CURVE SMOOTH",
"890 690 OFFCURVE",
"880 700 OFFCURVE",
"860 700 CURVE SMOOTH",
"725 700 LINE SMOOTH",
"695 700 OFFCURVE",
"689 690 OFFCURVE",
"685 660 CURVE SMOOTH",
"635 280 LINE SMOOTH",
"633 266 OFFCURVE",
"630 260 OFFCURVE",
"620 260 CURVE SMOOTH",
"610 260 OFFCURVE",
"607 265 OFFCURVE",
"605 280 CURVE SMOOTH",
"555 660 LINE SMOOTH",
"552 682 OFFCURVE",
"548 693 OFFCURVE",
"534 698 CURVE SMOOTH",
"530 699 OFFCURVE",
"525 700 OFFCURVE",
"520 700 CURVE SMOOTH",
"380 700 LINE SMOOTH",
"375 700 OFFCURVE",
"370 699 OFFCURVE",
"366 698 CURVE SMOOTH",
"352 693 OFFCURVE",
"348 682 OFFCURVE",
"345 660 CURVE SMOOTH",
"295 280 LINE SMOOTH",
"293 266 OFFCURVE",
"290 260 OFFCURVE",
"280 260 CURVE SMOOTH",
"270 260 OFFCURVE",
"267 265 OFFCURVE",
"265 280 CURVE SMOOTH",
"215 660 LINE SMOOTH",
"211 690 OFFCURVE",
"205 700 OFFCURVE",
"175 700 CURVE SMOOTH",
"40 700 LINE SMOOTH",
"20 700 OFFCURVE",
"10 690 OFFCURVE",
"10 670 CURVE SMOOTH",
"10 660 OFFCURVE",
"12 647 OFFCURVE",
"18 614 CURVE SMOOTH",
"125 40 LINE SMOOTH",
"131 10 OFFCURVE",
"145 0 OFFCURVE",
"165 0 CURVE SMOOTH"
);
}
);
width = 900;
},
{
associatedMasterId = m01;
layerId = "D084AED3-A8A0-43CD-8DF3-37D084704489";
name = "Sep 11, 22, 21:19";
paths = (
{
closed = 1;
nodes = (
"305 0 LINE SMOOTH",
"331 0 OFFCURVE",
"340 11 OFFCURVE",
"345 40 CURVE SMOOTH",
"390 282 LINE",
"435 40 LINE SMOOTH",
"441 10 OFFCURVE",
"455 0 OFFCURVE",
"475 0 CURVE SMOOTH",
"635 0 LINE SMOOTH",
"661 0 OFFCURVE",
"669 11 OFFCURVE",
"675 40 CURVE SMOOTH",
"792 614 LINE SMOOTH",
"799 647 OFFCURVE",
"800 660 OFFCURVE",
"800 670 CURVE SMOOTH",
"800 690 OFFCURVE",
"790 700 OFFCURVE",
"770 700 CURVE SMOOTH",
"645 700 LINE SMOOTH",
"615 700 OFFCURVE",
"608 690 OFFCURVE",
"605 660 CURVE SMOOTH",
"555 190 LINE SMOOTH",
"554 176 OFFCURVE",
"550 170 OFFCURVE",
"540 170 CURVE SMOOTH",
"530 170 OFFCURVE",
"528 174 OFFCURVE",
"525 190 CURVE SMOOTH",
"472 484 LINE SMOOTH",
"465 523 OFFCURVE",
"457 530 OFFCURVE",
"440 530 CURVE SMOOTH",
"340 530 LINE SMOOTH",
"323 530 OFFCURVE",
"315 523 OFFCURVE",
"308 484 CURVE SMOOTH",
"255 190 LINE SMOOTH",
"252 176 OFFCURVE",
"250 170 OFFCURVE",
"240 170 CURVE SMOOTH",
"230 170 OFFCURVE",
"227 175 OFFCURVE",
"225 190 CURVE SMOOTH",
"175 660 LINE SMOOTH",
"172 690 OFFCURVE",
"165 700 OFFCURVE",
"135 700 CURVE SMOOTH",
"10 700 LINE SMOOTH",
"-10 700 OFFCURVE",
"-20 690 OFFCURVE",
"-20 670 CURVE SMOOTH",
"-20 660 OFFCURVE",
"-19 647 OFFCURVE",
"-12 614 CURVE SMOOTH",
"105 40 LINE SMOOTH",
"111 10 OFFCURVE",
"125 0 OFFCURVE",
"145 0 CURVE SMOOTH"
);
}
);
width = 780;
},
{
layerId = "6ABCF30A-460E-4EED-802C-9E4699B7E7F6";
paths = (
{
closed = 1;
nodes = (
"257 0 LINE SMOOTH",
"282 0 OFFCURVE",
"293 15 OFFCURVE",
"297 40 CURVE SMOOTH",
"330 240 LINE SMOOTH",
"332 252 OFFCURVE",
"335 258 OFFCURVE",
"340 258 CURVE SMOOTH",
"345 258 OFFCURVE",
"348 252 OFFCURVE",
"350 240 CURVE SMOOTH",
"383 40 LINE SMOOTH",
"387 15 OFFCURVE",
"398 0 OFFCURVE",
"423 0 CURVE SMOOTH",
"535 0 LINE SMOOTH",
"560 0 OFFCURVE",
"570 10 OFFCURVE",
"575 40 CURVE SMOOTH",
"662 614 LINE SMOOTH",
"667 647 OFFCURVE",
"670 660 OFFCURVE",
"670 670 CURVE SMOOTH",
"670 690 OFFCURVE",
"660 700 OFFCURVE",
"640 700 CURVE SMOOTH",
"520 700 LINE SMOOTH",
"490 700 OFFCURVE",
"482 690 OFFCURVE",
"480 660 CURVE SMOOTH",
"465 360 LINE SMOOTH",
"464 346 OFFCURVE",
"460 340 OFFCURVE",
"450 340 CURVE SMOOTH",
"440 340 OFFCURVE",
"437 346 OFFCURVE",
"435 360 CURVE SMOOTH",
"400 660 LINE SMOOTH",
"397 682 OFFCURVE",
"393 693 OFFCURVE",
"379 698 CURVE SMOOTH",
"375 699 OFFCURVE",
"370 700 OFFCURVE",
"365 700 CURVE SMOOTH",
"315 700 LINE SMOOTH",
"310 700 OFFCURVE",
"305 699 OFFCURVE",
"301 698 CURVE SMOOTH",
"287 693 OFFCURVE",
"283 682 OFFCURVE",
"280 660 CURVE SMOOTH",
"245 360 LINE SMOOTH",
"243 346 OFFCURVE",
"240 340 OFFCURVE",
"230 340 CURVE SMOOTH",
"220 340 OFFCURVE",
"216 345 OFFCURVE",
"215 360 CURVE SMOOTH",
"200 660 LINE SMOOTH",
"198 691 OFFCURVE",
"190 700 OFFCURVE",
"160 700 CURVE SMOOTH",
"40 700 LINE SMOOTH",
"20 700 OFFCURVE",
"10 690 OFFCURVE",
"10 670 CURVE SMOOTH",
"10 660 OFFCURVE",
"13 647 OFFCURVE",
"18 614 CURVE SMOOTH",
"105 40 LINE SMOOTH",
"110 10 OFFCURVE",
"120 0 OFFCURVE",
"145 0 CURVE SMOOTH"
);
}
);
width = 680;
}
);
leftKerningGroup = W;
rightKerningGroup = W;
unicode = 0057;
},
{
color = 5;
glyphname = X;
layers = (
{
layerId = m01;
paths = (
{
closed = 1;
nodes = (
"153 0 LINE SMOOTH",
"175 0 OFFCURVE",
"186 6 OFFCURVE",
"197 39 CURVE SMOOTH",
"227 128 LINE SMOOTH",
"232 142 OFFCURVE",
"237 150 OFFCURVE",
"244 150 CURVE SMOOTH",
"251 150 OFFCURVE",
"256 141 OFFCURVE",
"262 127 CURVE SMOOTH",
"298 39 LINE SMOOTH",
"309 11 OFFCURVE",
"311 0 OFFCURVE",
"341 0 CURVE SMOOTH",
"460 0 LINE SMOOTH",
"484 0 OFFCURVE",
"490 11 OFFCURVE",
"490 25 CURVE SMOOTH",
"490 35 OFFCURVE",
"481 54 OFFCURVE",
"468 83 CURVE SMOOTH",
"363 322 LINE SMOOTH",
"356 338 OFFCURVE",
"352 355 OFFCURVE",
"352 366 CURVE SMOOTH",
"352 377 OFFCURVE",
"357 391 OFFCURVE",
"363 404 CURVE SMOOTH",
"451 604 LINE SMOOTH",
"464 634 OFFCURVE",
"472 653 OFFCURVE",
"472 663 CURVE SMOOTH",
"472 683 OFFCURVE",
"462 700 OFFCURVE",
"440 700 CURVE SMOOTH",
"346 700 LINE SMOOTH",
"326 700 OFFCURVE",
"316 688 OFFCURVE",
"306 660 CURVE SMOOTH",
"273 571 LINE SMOOTH",
"268 557 OFFCURVE",
"264 550 OFFCURVE",
"256 550 CURVE SMOOTH",
"249 550 OFFCURVE",
"247 556 OFFCURVE",
"240 572 CURVE SMOOTH",
"202 660 LINE SMOOTH",
"189 690 OFFCURVE",
"182 700 OFFCURVE",
"162 700 CURVE SMOOTH",
"50 700 LINE SMOOTH",
"20 700 OFFCURVE",
"10 690 OFFCURVE",
"10 670 CURVE SMOOTH",
"10 660 OFFCURVE",
"15 645 OFFCURVE",
"30 614 CURVE SMOOTH",
"132 404 LINE SMOOTH",
"138 392 OFFCURVE",
"145 378 OFFCURVE",
"145 366 CURVE SMOOTH",
"145 352 OFFCURVE",
"138 336 OFFCURVE",
"133 322 CURVE SMOOTH",
"45 83 LINE SMOOTH",
"33 51 OFFCURVE",
"28 35 OFFCURVE",
"28 25 CURVE SMOOTH",
"28 11 OFFCURVE",
"36 0 OFFCURVE",
"58 0 CURVE SMOOTH"
);
}
);
width = 500;
},
{
associatedMasterId = m01;
layerId = "ED7CD75D-5DA3-4582-B695-66BD7C1AF489";
name = "Sep 11, 22, 12:25";
paths = (
{
closed = 1;
nodes = (
"30 10 OFFCURVE",
"40 0 OFFCURVE",
"60 0 CURVE SMOOTH",
"175 0 LINE SMOOTH",
"205 0 OFFCURVE",
"208 10 OFFCURVE",
"215 40 CURVE SMOOTH",
"255 210 LINE SMOOTH",
"258 224 OFFCURVE",
"260 230 OFFCURVE",
"270 230 CURVE SMOOTH",
"280 230 OFFCURVE",
"282 224 OFFCURVE",
"285 210 CURVE SMOOTH",
"325 40 LINE SMOOTH",
"332 10 OFFCURVE",
"335 0 OFFCURVE",
"365 0 CURVE SMOOTH",
"480 0 LINE SMOOTH",
"500 0 OFFCURVE",
"510 10 OFFCURVE",
"510 30 CURVE SMOOTH",
"510 40 OFFCURVE",
"507 55 OFFCURVE",
"497 86 CURVE SMOOTH",
"408 350 LINE",
"497 614 LINE SMOOTH",
"507 645 OFFCURVE",
"510 660 OFFCURVE",
"510 670 CURVE SMOOTH",
"510 690 OFFCURVE",
"500 700 OFFCURVE",
"480 700 CURVE SMOOTH",
"365 700 LINE SMOOTH",
"335 700 OFFCURVE",
"332 690 OFFCURVE",
"325 660 CURVE SMOOTH",
"285 490 LINE SMOOTH",
"282 476 OFFCURVE",
"280 470 OFFCURVE",
"270 470 CURVE SMOOTH",
"260 470 OFFCURVE",
"258 476 OFFCURVE",
"255 490 CURVE SMOOTH",
"215 660 LINE SMOOTH",
"208 690 OFFCURVE",
"205 700 OFFCURVE",
"175 700 CURVE SMOOTH",
"60 700 LINE SMOOTH",
"40 700 OFFCURVE",
"30 690 OFFCURVE",
"30 670 CURVE SMOOTH",
"30 660 OFFCURVE",
"33 645 OFFCURVE",
"43 614 CURVE SMOOTH",
"132 350 LINE",
"43 86 LINE SMOOTH",
"33 55 OFFCURVE",
"30 40 OFFCURVE",
"30 30 CURVE SMOOTH"
);
}
);
width = 540;
},
{
associatedMasterId = m01;
layerId = "21ED906F-4B68-4993-9009-8D45A795DF7D";
name = "Sep 11, 22, 12:32";
paths = (
{
closed = 1;
nodes = (
"447 0 LINE SMOOTH",
"477 0 OFFCURVE",
"499 13 OFFCURVE",
"487 40 CURVE SMOOTH",
"210 660 LINE SMOOTH",
"198 687 OFFCURVE",
"200 700 OFFCURVE",
"170 700 CURVE SMOOTH",
"50 700 LINE SMOOTH",
"20 700 OFFCURVE",
"-2 687 OFFCURVE",
"10 660 CURVE SMOOTH",
"287 40 LINE SMOOTH",
"299 13 OFFCURVE",
"297 0 OFFCURVE",
"327 0 CURVE SMOOTH"
);
},
{
closed = 1;
nodes = (
"190 0 OFFCURVE",
"188 13 OFFCURVE",
"200 40 CURVE SMOOTH",
"480 660 LINE SMOOTH",
"492 687 OFFCURVE",
"470 700 OFFCURVE",
"440 700 CURVE SMOOTH",
"340 700 LINE SMOOTH",
"310 700 OFFCURVE",
"312 687 OFFCURVE",
"300 660 CURVE SMOOTH",
"20 40 LINE SMOOTH",
"8 13 OFFCURVE",
"30 0 OFFCURVE",
"60 0 CURVE SMOOTH",
"160 0 LINE SMOOTH"
);
}
);
width = 500;
},
{
associatedMasterId = m01;
layerId = "1A164F88-820E-404C-93C0-E9B242463619";
name = "Sep 11, 22, 13:20";
visible = 1;
width = 500;
},
{
layerId = "6ABCF30A-460E-4EED-802C-9E4699B7E7F6";
paths = (
{
closed = 1;
nodes = (
"153 0 LINE SMOOTH",
"175 0 OFFCURVE",
"186 6 OFFCURVE",
"197 39 CURVE SMOOTH",
"227 128 LINE SMOOTH",
"232 142 OFFCURVE",
"237 150 OFFCURVE",
"244 150 CURVE SMOOTH",
"251 150 OFFCURVE",
"256 141 OFFCURVE",
"262 127 CURVE SMOOTH",
"298 39 LINE SMOOTH",
"309 11 OFFCURVE",
"311 0 OFFCURVE",
"341 0 CURVE SMOOTH",
"460 0 LINE SMOOTH",
"484 0 OFFCURVE",
"490 11 OFFCURVE",
"490 25 CURVE SMOOTH",
"490 35 OFFCURVE",
"481 54 OFFCURVE",
"468 83 CURVE SMOOTH",
"363 322 LINE SMOOTH",
"356 338 OFFCURVE",
"352 355 OFFCURVE",
"352 366 CURVE SMOOTH",
"352 377 OFFCURVE",
"357 391 OFFCURVE",
"363 404 CURVE SMOOTH",
"451 604 LINE SMOOTH",
"464 634 OFFCURVE",
"472 653 OFFCURVE",
"472 663 CURVE SMOOTH",
"472 683 OFFCURVE",
"462 700 OFFCURVE",
"440 700 CURVE SMOOTH",
"346 700 LINE SMOOTH",
"326 700 OFFCURVE",
"316 688 OFFCURVE",
"306 660 CURVE SMOOTH",
"273 571 LINE SMOOTH",
"268 557 OFFCURVE",
"264 550 OFFCURVE",
"256 550 CURVE SMOOTH",
"249 550 OFFCURVE",
"247 556 OFFCURVE",
"240 572 CURVE SMOOTH",
"202 660 LINE SMOOTH",
"189 690 OFFCURVE",
"182 700 OFFCURVE",
"162 700 CURVE SMOOTH",
"50 700 LINE SMOOTH",
"20 700 OFFCURVE",
"10 690 OFFCURVE",
"10 670 CURVE SMOOTH",
"10 660 OFFCURVE",
"15 645 OFFCURVE",
"30 614 CURVE SMOOTH",
"132 404 LINE SMOOTH",
"138 392 OFFCURVE",
"145 378 OFFCURVE",
"145 366 CURVE SMOOTH",
"145 352 OFFCURVE",
"138 336 OFFCURVE",
"133 322 CURVE SMOOTH",
"45 83 LINE SMOOTH",
"33 51 OFFCURVE",
"28 35 OFFCURVE",
"28 25 CURVE SMOOTH",
"28 11 OFFCURVE",
"36 0 OFFCURVE",
"58 0 CURVE SMOOTH"
);
}
);
width = 500;
}
);
leftKerningGroup = X;
rightKerningGroup = X;
unicode = 0058;
},
{
color = 5;
glyphname = Y;
layers = (
{
layerId = m01;
paths = (
{
closed = 1;
nodes = (
"275 0 LINE SMOOTH",
"305 0 OFFCURVE",
"315 10 OFFCURVE",
"315 40 CURVE SMOOTH",
"315 271 LINE SMOOTH",
"315 283 OFFCURVE",
"316 297 OFFCURVE",
"320 308 CURVE SMOOTH",
"431 629 LINE SMOOTH",
"435 642 OFFCURVE",
"440 654 OFFCURVE",
"440 670 CURVE SMOOTH",
"440 690 OFFCURVE",
"430 700 OFFCURVE",
"410 700 CURVE SMOOTH",
"305 700 LINE SMOOTH",
"277 700 OFFCURVE",
"269 690 OFFCURVE",
"265 670 CURVE SMOOTH",
"240 530 LINE SMOOTH",
"238 520 OFFCURVE",
"233 513 OFFCURVE",
"225 513 CURVE SMOOTH",
"216 513 OFFCURVE",
"212 520 OFFCURVE",
"210 530 CURVE SMOOTH",
"185 670 LINE SMOOTH",
"181 690 OFFCURVE",
"173 700 OFFCURVE",
"145 700 CURVE SMOOTH",
"40 700 LINE SMOOTH",
"20 700 OFFCURVE",
"10 687 OFFCURVE",
"10 670 CURVE SMOOTH",
"10 654 OFFCURVE",
"15 642 OFFCURVE",
"19 629 CURVE SMOOTH",
"130 308 LINE SMOOTH",
"134 297 OFFCURVE",
"135 283 OFFCURVE",
"135 271 CURVE SMOOTH",
"135 40 LINE SMOOTH",
"135 10 OFFCURVE",
"145 0 OFFCURVE",
"175 0 CURVE SMOOTH"
);
}
);
width = 450;
},
{
layerId = "6ABCF30A-460E-4EED-802C-9E4699B7E7F6";
paths = (
{
closed = 1;
nodes = (
"275 0 LINE SMOOTH",
"305 0 OFFCURVE",
"315 10 OFFCURVE",
"315 40 CURVE SMOOTH",
"315 271 LINE SMOOTH",
"315 283 OFFCURVE",
"316 297 OFFCURVE",
"320 308 CURVE SMOOTH",
"431 629 LINE SMOOTH",
"435 642 OFFCURVE",
"440 654 OFFCURVE",
"440 670 CURVE SMOOTH",
"440 690 OFFCURVE",
"430 700 OFFCURVE",
"410 700 CURVE SMOOTH",
"305 700 LINE SMOOTH",
"277 700 OFFCURVE",
"269 690 OFFCURVE",
"265 670 CURVE SMOOTH",
"240 530 LINE SMOOTH",
"238 520 OFFCURVE",
"233 513 OFFCURVE",
"225 513 CURVE SMOOTH",
"216 513 OFFCURVE",
"212 520 OFFCURVE",
"210 530 CURVE SMOOTH",
"185 670 LINE SMOOTH",
"181 690 OFFCURVE",
"173 700 OFFCURVE",
"145 700 CURVE SMOOTH",
"40 700 LINE SMOOTH",
"20 700 OFFCURVE",
"10 687 OFFCURVE",
"10 670 CURVE SMOOTH",
"10 654 OFFCURVE",
"15 642 OFFCURVE",
"19 629 CURVE SMOOTH",
"130 308 LINE SMOOTH",
"134 297 OFFCURVE",
"135 283 OFFCURVE",
"135 271 CURVE SMOOTH",
"135 40 LINE SMOOTH",
"135 10 OFFCURVE",
"145 0 OFFCURVE",
"175 0 CURVE SMOOTH"
);
}
);
width = 450;
}
);
leftKerningGroup = Y;
rightKerningGroup = Y;
unicode = 0059;
},
{
color = 5;
glyphname = Z;
layers = (
{
layerId = m01;
paths = (
{
closed = 1;
nodes = (
"384 0 LINE SMOOTH",
"414 0 OFFCURVE",
"424 10 OFFCURVE",
"424 40 CURVE SMOOTH",
"424 118 LINE SMOOTH",
"424 148 OFFCURVE",
"414 158 OFFCURVE",
"383 158 CURVE SMOOTH",
"234 158 LINE SMOOTH",
"223 158 OFFCURVE",
"216 166 OFFCURVE",
"216 175 CURVE SMOOTH",
"216 191 OFFCURVE",
"223 209 OFFCURVE",
"239 235 CURVE SMOOTH",
"384 509 LINE SMOOTH",
"408 554 OFFCURVE",
"424 587 OFFCURVE",
"424 621 CURVE SMOOTH",
"424 660 LINE SMOOTH",
"424 690 OFFCURVE",
"414 700 OFFCURVE",
"384 700 CURVE SMOOTH",
"51 700 LINE SMOOTH",
"20 700 OFFCURVE",
"10 690 OFFCURVE",
"10 660 CURVE SMOOTH",
"10 602 LINE SMOOTH",
"10 577 OFFCURVE",
"20 562 OFFCURVE",
"50 562 CURVE SMOOTH",
"174 562 LINE SMOOTH",
"204 562 OFFCURVE",
"214 552 OFFCURVE",
"214 532 CURVE SMOOTH",
"214 512 OFFCURVE",
"202 494 OFFCURVE",
"188 467 CURVE SMOOTH",
"48 197 LINE SMOOTH",
"27 161 OFFCURVE",
"10 108 OFFCURVE",
"10 80 CURVE SMOOTH",
"10 40 LINE SMOOTH",
"10 10 OFFCURVE",
"20 0 OFFCURVE",
"50 0 CURVE SMOOTH"
);
}
);
width = 434;
},
{
layerId = "6ABCF30A-460E-4EED-802C-9E4699B7E7F6";
paths = (
{
closed = 1;
nodes = (
"384 0 LINE SMOOTH",
"414 0 OFFCURVE",
"424 10 OFFCURVE",
"424 40 CURVE SMOOTH",
"424 118 LINE SMOOTH",
"424 148 OFFCURVE",
"414 158 OFFCURVE",
"383 158 CURVE SMOOTH",
"234 158 LINE SMOOTH",
"223 158 OFFCURVE",
"216 166 OFFCURVE",
"216 175 CURVE SMOOTH",
"216 191 OFFCURVE",
"223 209 OFFCURVE",
"239 235 CURVE SMOOTH",
"384 509 LINE SMOOTH",
"408 554 OFFCURVE",
"424 587 OFFCURVE",
"424 621 CURVE SMOOTH",
"424 660 LINE SMOOTH",
"424 690 OFFCURVE",
"414 700 OFFCURVE",
"384 700 CURVE SMOOTH",
"51 700 LINE SMOOTH",
"20 700 OFFCURVE",
"10 690 OFFCURVE",
"10 660 CURVE SMOOTH",
"10 602 LINE SMOOTH",
"10 577 OFFCURVE",
"20 562 OFFCURVE",
"50 562 CURVE SMOOTH",
"174 562 LINE SMOOTH",
"204 562 OFFCURVE",
"214 552 OFFCURVE",
"214 532 CURVE SMOOTH",
"214 512 OFFCURVE",
"202 494 OFFCURVE",
"188 467 CURVE SMOOTH",
"48 197 LINE SMOOTH",
"27 161 OFFCURVE",
"10 108 OFFCURVE",
"10 80 CURVE SMOOTH",
"10 40 LINE SMOOTH",
"10 10 OFFCURVE",
"20 0 OFFCURVE",
"50 0 CURVE SMOOTH"
);
}
);
width = 434;
}
);
leftKerningGroup = Z;
rightKerningGroup = Z;
unicode = 005A;
},
{
color = 5;
glyphname = zero;
layers = (
{
layerId = m01;
paths = (
{
closed = 1;
nodes = (
"380 -10 OFFCURVE",
"460 70 OFFCURVE",
"460 200 CURVE SMOOTH",
"460 500 LINE SMOOTH",
"460 630 OFFCURVE",
"380 710 OFFCURVE",
"240 710 CURVE SMOOTH",
"100 710 OFFCURVE",
"20 630 OFFCURVE",
"20 500 CURVE SMOOTH",
"20 200 LINE SMOOTH",
"20 70 OFFCURVE",
"100 -10 OFFCURVE",
"240 -10 CURVE SMOOTH"
);
},
{
closed = 1;
nodes = (
"210 130 OFFCURVE",
"200 150 OFFCURVE",
"200 180 CURVE SMOOTH",
"200 520 LINE SMOOTH",
"200 550 OFFCURVE",
"210 570 OFFCURVE",
"240 570 CURVE SMOOTH",
"270 570 OFFCURVE",
"280 550 OFFCURVE",
"280 520 CURVE SMOOTH",
"280 180 LINE SMOOTH",
"280 150 OFFCURVE",
"270 130 OFFCURVE",
"240 130 CURVE SMOOTH"
);
}
);
width = 480;
},
{
layerId = "6ABCF30A-460E-4EED-802C-9E4699B7E7F6";
paths = (
{
closed = 1;
nodes = (
"380 -10 OFFCURVE",
"460 70 OFFCURVE",
"460 200 CURVE SMOOTH",
"460 500 LINE SMOOTH",
"460 630 OFFCURVE",
"380 710 OFFCURVE",
"240 710 CURVE SMOOTH",
"100 710 OFFCURVE",
"20 630 OFFCURVE",
"20 500 CURVE SMOOTH",
"20 200 LINE SMOOTH",
"20 70 OFFCURVE",
"100 -10 OFFCURVE",
"240 -10 CURVE SMOOTH"
);
},
{
closed = 1;
nodes = (
"210 130 OFFCURVE",
"200 150 OFFCURVE",
"200 180 CURVE SMOOTH",
"200 520 LINE SMOOTH",
"200 550 OFFCURVE",
"210 570 OFFCURVE",
"240 570 CURVE SMOOTH",
"270 570 OFFCURVE",
"280 550 OFFCURVE",
"280 520 CURVE SMOOTH",
"280 180 LINE SMOOTH",
"280 150 OFFCURVE",
"270 130 OFFCURVE",
"240 130 CURVE SMOOTH"
);
}
);
width = 480;
}
);
leftKerningGroup = zero;
rightKerningGroup = zero;
unicode = 0030;
},
{
color = 5;
glyphname = one;
layers = (
{
layerId = m01;
paths = (
{
closed = 1;
nodes = (
"270 0 LINE SMOOTH",
"300 0 OFFCURVE",
"310 10 OFFCURVE",
"310 40 CURVE SMOOTH",
"310 660 LINE SMOOTH",
"310 690 OFFCURVE",
"300 700 OFFCURVE",
"270 700 CURVE SMOOTH",
"170 700 LINE SMOOTH",
"140 700 OFFCURVE",
"130 690 OFFCURVE",
"130 660 CURVE SMOOTH",
"130 610 OFFCURVE",
"92 590 OFFCURVE",
"40 590 CURVE SMOOTH",
"21 590 OFFCURVE",
"10 580 OFFCURVE",
"10 560 CURVE SMOOTH",
"10 490 LINE SMOOTH",
"10 470 OFFCURVE",
"20 460 OFFCURVE",
"40 460 CURVE SMOOTH",
"110 460 LINE SMOOTH",
"125 460 OFFCURVE",
"130 455 OFFCURVE",
"130 440 CURVE SMOOTH",
"130 40 LINE SMOOTH",
"130 10 OFFCURVE",
"140 0 OFFCURVE",
"170 0 CURVE SMOOTH"
);
}
);
width = 330;
},
{
layerId = "6ABCF30A-460E-4EED-802C-9E4699B7E7F6";
paths = (
{
closed = 1;
nodes = (
"270 0 LINE SMOOTH",
"300 0 OFFCURVE",
"310 10 OFFCURVE",
"310 40 CURVE SMOOTH",
"310 660 LINE SMOOTH",
"310 690 OFFCURVE",
"300 700 OFFCURVE",
"270 700 CURVE SMOOTH",
"170 700 LINE SMOOTH",
"140 700 OFFCURVE",
"130 690 OFFCURVE",
"130 660 CURVE SMOOTH",
"130 610 OFFCURVE",
"92 590 OFFCURVE",
"40 590 CURVE SMOOTH",
"21 590 OFFCURVE",
"10 580 OFFCURVE",
"10 560 CURVE SMOOTH",
"10 490 LINE SMOOTH",
"10 470 OFFCURVE",
"20 460 OFFCURVE",
"40 460 CURVE SMOOTH",
"110 460 LINE SMOOTH",
"125 460 OFFCURVE",
"130 455 OFFCURVE",
"130 440 CURVE SMOOTH",
"130 40 LINE SMOOTH",
"130 10 OFFCURVE",
"140 0 OFFCURVE",
"170 0 CURVE SMOOTH"
);
}
);
width = 330;
}
);
leftKerningGroup = one;
rightKerningGroup = one;
unicode = 0031;
},
{
color = 5;
glyphname = two;
layers = (
{
layerId = m01;
paths = (
{
closed = 1;
nodes = (
"430 0 LINE SMOOTH",
"460 0 OFFCURVE",
"470 10 OFFCURVE",
"470 40 CURVE SMOOTH",
"470 100 LINE SMOOTH",
"470 130 OFFCURVE",
"460 140 OFFCURVE",
"430 140 CURVE SMOOTH",
"223 140 LINE SMOOTH",
"208 140 OFFCURVE",
"203 145 OFFCURVE",
"203 160 CURVE SMOOTH",
"203 198 OFFCURVE",
"236 226 OFFCURVE",
"310 282 CURVE SMOOTH",
"366 324 OFFCURVE",
"470 410 OFFCURVE",
"470 500 CURVE SMOOTH",
"470 640 OFFCURVE",
"390 710 OFFCURVE",
"250 710 CURVE SMOOTH",
"110 710 OFFCURVE",
"30 640 OFFCURVE",
"30 500 CURVE SMOOTH",
"30 470 OFFCURVE",
"40 460 OFFCURVE",
"70 460 CURVE SMOOTH",
"170 460 LINE SMOOTH",
"200 460 OFFCURVE",
"210 470 OFFCURVE",
"210 500 CURVE SMOOTH",
"210 520 LINE SMOOTH",
"210 550 OFFCURVE",
"220 570 OFFCURVE",
"250 570 CURVE SMOOTH",
"279 570 OFFCURVE",
"290 540 OFFCURVE",
"290 510 CURVE SMOOTH",
"290 446 OFFCURVE",
"242 408 OFFCURVE",
"174 366 CURVE SMOOTH",
"51 289 OFFCURVE",
"10 201 OFFCURVE",
"10 70 CURVE SMOOTH",
"10 40 LINE SMOOTH",
"10 11 OFFCURVE",
"20 0 OFFCURVE",
"50 0 CURVE SMOOTH"
);
}
);
width = 480;
},
{
layerId = "6ABCF30A-460E-4EED-802C-9E4699B7E7F6";
paths = (
{
closed = 1;
nodes = (
"430 0 LINE SMOOTH",
"460 0 OFFCURVE",
"470 10 OFFCURVE",
"470 40 CURVE SMOOTH",
"470 100 LINE SMOOTH",
"470 130 OFFCURVE",
"460 140 OFFCURVE",
"430 140 CURVE SMOOTH",
"223 140 LINE SMOOTH",
"208 140 OFFCURVE",
"203 145 OFFCURVE",
"203 160 CURVE SMOOTH",
"203 198 OFFCURVE",
"236 226 OFFCURVE",
"310 282 CURVE SMOOTH",
"366 324 OFFCURVE",
"470 410 OFFCURVE",
"470 500 CURVE SMOOTH",
"470 640 OFFCURVE",
"390 710 OFFCURVE",
"250 710 CURVE SMOOTH",
"110 710 OFFCURVE",
"30 640 OFFCURVE",
"30 500 CURVE SMOOTH",
"30 470 OFFCURVE",
"40 460 OFFCURVE",
"70 460 CURVE SMOOTH",
"170 460 LINE SMOOTH",
"200 460 OFFCURVE",
"210 470 OFFCURVE",
"210 500 CURVE SMOOTH",
"210 520 LINE SMOOTH",
"210 550 OFFCURVE",
"220 570 OFFCURVE",
"250 570 CURVE SMOOTH",
"279 570 OFFCURVE",
"290 540 OFFCURVE",
"290 510 CURVE SMOOTH",
"290 446 OFFCURVE",
"242 408 OFFCURVE",
"174 366 CURVE SMOOTH",
"51 289 OFFCURVE",
"10 201 OFFCURVE",
"10 70 CURVE SMOOTH",
"10 40 LINE SMOOTH",
"10 11 OFFCURVE",
"20 0 OFFCURVE",
"50 0 CURVE SMOOTH"
);
}
);
width = 480;
}
);
leftKerningGroup = two;
rightKerningGroup = two;
unicode = 0032;
},
{
color = 5;
glyphname = three;
layers = (
{
layerId = m01;
paths = (
{
closed = 1;
nodes = (
"380 -10 OFFCURVE",
"480 48 OFFCURVE",
"480 198 CURVE SMOOTH",
"480 250 OFFCURVE",
"452 307 OFFCURVE",
"397 344 CURVE SMOOTH",
"383 353 OFFCURVE",
"381 354 OFFCURVE",
"381 359 CURVE SMOOTH",
"381 364 OFFCURVE",
"385 367 OFFCURVE",
"397 376 CURVE SMOOTH",
"425 397 OFFCURVE",
"460 440 OFFCURVE",
"460 510 CURVE SMOOTH",
"460 650 OFFCURVE",
"390 710 OFFCURVE",
"250 710 CURVE SMOOTH",
"110 710 OFFCURVE",
"30 650 OFFCURVE",
"30 510 CURVE SMOOTH",
"30 480 OFFCURVE",
"40 470 OFFCURVE",
"70 470 CURVE SMOOTH",
"170 470 LINE SMOOTH",
"200 470 OFFCURVE",
"210 480 OFFCURVE",
"210 510 CURVE SMOOTH",
"210 520 LINE SMOOTH",
"210 550 OFFCURVE",
"220 570 OFFCURVE",
"250 570 CURVE SMOOTH",
"280 570 OFFCURVE",
"290 550 OFFCURVE",
"290 510 CURVE SMOOTH",
"290 446 OFFCURVE",
"270 420 OFFCURVE",
"226 420 CURVE SMOOTH",
"210 420 LINE SMOOTH",
"180 420 OFFCURVE",
"170 410 OFFCURVE",
"170 380 CURVE SMOOTH",
"170 340 LINE SMOOTH",
"170 310 OFFCURVE",
"180 300 OFFCURVE",
"210 300 CURVE SMOOTH",
"226 300 LINE SMOOTH",
"270 300 OFFCURVE",
"290 274 OFFCURVE",
"290 210 CURVE SMOOTH",
"290 150 OFFCURVE",
"280 130 OFFCURVE",
"240 130 CURVE SMOOTH",
"200 130 OFFCURVE",
"190 150 OFFCURVE",
"190 180 CURVE SMOOTH",
"190 210 LINE SMOOTH",
"190 240 OFFCURVE",
"180 250 OFFCURVE",
"150 250 CURVE SMOOTH",
"50 250 LINE SMOOTH",
"20 250 OFFCURVE",
"10 240 OFFCURVE",
"10 210 CURVE SMOOTH",
"10 70 OFFCURVE",
"100 -10 OFFCURVE",
"240 -10 CURVE SMOOTH"
);
}
);
width = 490;
},
{
layerId = "6ABCF30A-460E-4EED-802C-9E4699B7E7F6";
paths = (
{
closed = 1;
nodes = (
"380 -10 OFFCURVE",
"480 48 OFFCURVE",
"480 198 CURVE SMOOTH",
"480 250 OFFCURVE",
"452 307 OFFCURVE",
"397 344 CURVE SMOOTH",
"383 353 OFFCURVE",
"381 354 OFFCURVE",
"381 359 CURVE SMOOTH",
"381 364 OFFCURVE",
"385 367 OFFCURVE",
"397 376 CURVE SMOOTH",
"425 397 OFFCURVE",
"460 440 OFFCURVE",
"460 510 CURVE SMOOTH",
"460 650 OFFCURVE",
"390 710 OFFCURVE",
"250 710 CURVE SMOOTH",
"110 710 OFFCURVE",
"30 650 OFFCURVE",
"30 510 CURVE SMOOTH",
"30 480 OFFCURVE",
"40 470 OFFCURVE",
"70 470 CURVE SMOOTH",
"170 470 LINE SMOOTH",
"200 470 OFFCURVE",
"210 480 OFFCURVE",
"210 510 CURVE SMOOTH",
"210 520 LINE SMOOTH",
"210 550 OFFCURVE",
"220 570 OFFCURVE",
"250 570 CURVE SMOOTH",
"280 570 OFFCURVE",
"290 550 OFFCURVE",
"290 510 CURVE SMOOTH",
"290 446 OFFCURVE",
"270 420 OFFCURVE",
"226 420 CURVE SMOOTH",
"210 420 LINE SMOOTH",
"180 420 OFFCURVE",
"170 410 OFFCURVE",
"170 380 CURVE SMOOTH",
"170 340 LINE SMOOTH",
"170 310 OFFCURVE",
"180 300 OFFCURVE",
"210 300 CURVE SMOOTH",
"226 300 LINE SMOOTH",
"270 300 OFFCURVE",
"290 274 OFFCURVE",
"290 210 CURVE SMOOTH",
"290 150 OFFCURVE",
"280 130 OFFCURVE",
"240 130 CURVE SMOOTH",
"200 130 OFFCURVE",
"190 150 OFFCURVE",
"190 180 CURVE SMOOTH",
"190 210 LINE SMOOTH",
"190 240 OFFCURVE",
"180 250 OFFCURVE",
"150 250 CURVE SMOOTH",
"50 250 LINE SMOOTH",
"20 250 OFFCURVE",
"10 240 OFFCURVE",
"10 210 CURVE SMOOTH",
"10 70 OFFCURVE",
"100 -10 OFFCURVE",
"240 -10 CURVE SMOOTH"
);
}
);
width = 490;
}
);
leftKerningGroup = three;
rightKerningGroup = three;
unicode = 0033;
},
{
color = 5;
glyphname = four;
layers = (
{
layerId = m01;
paths = (
{
closed = 1;
nodes = (
"380 0 LINE SMOOTH",
"410 0 OFFCURVE",
"420 10 OFFCURVE",
"420 40 CURVE SMOOTH",
"420 90 LINE SMOOTH",
"420 105 OFFCURVE",
"425 110 OFFCURVE",
"440 110 CURVE SMOOTH",
"460 110 LINE SMOOTH",
"490 110 OFFCURVE",
"500 120 OFFCURVE",
"500 150 CURVE SMOOTH",
"500 210 LINE SMOOTH",
"500 240 OFFCURVE",
"490 250 OFFCURVE",
"460 250 CURVE SMOOTH",
"440 250 LINE SMOOTH",
"424 250 OFFCURVE",
"420 254 OFFCURVE",
"420 270 CURVE SMOOTH",
"420 660 LINE SMOOTH",
"420 690 OFFCURVE",
"410 700 OFFCURVE",
"381 700 CURVE SMOOTH",
"299 700 LINE SMOOTH",
"267 700 OFFCURVE",
"255 686 OFFCURVE",
"240 660 CURVE SMOOTH",
"25 279 LINE SMOOTH",
"15 262 OFFCURVE",
"10 246 OFFCURVE",
"10 226 CURVE SMOOTH",
"10 150 LINE SMOOTH",
"10 120 OFFCURVE",
"20 110 OFFCURVE",
"50 110 CURVE SMOOTH",
"220 110 LINE SMOOTH",
"235 110 OFFCURVE",
"240 105 OFFCURVE",
"240 90 CURVE SMOOTH",
"240 40 LINE SMOOTH",
"240 10 OFFCURVE",
"250 0 OFFCURVE",
"280 0 CURVE SMOOTH"
);
},
{
closed = 1;
nodes = (
"163 250 OFFCURVE",
"158 251 OFFCURVE",
"158 258 CURVE SMOOTH",
"158 265 OFFCURVE",
"164 270 OFFCURVE",
"170 283 CURVE SMOOTH",
"224 390 LINE SMOOTH",
"228 398 OFFCURVE",
"231 401 OFFCURVE",
"234 401 CURVE SMOOTH",
"237 401 OFFCURVE",
"240 400 OFFCURVE",
"240 391 CURVE SMOOTH",
"240 270 LINE SMOOTH",
"240 255 OFFCURVE",
"235 250 OFFCURVE",
"220 250 CURVE SMOOTH",
"178 250 LINE SMOOTH"
);
}
);
width = 510;
},
{
layerId = "6ABCF30A-460E-4EED-802C-9E4699B7E7F6";
paths = (
{
closed = 1;
nodes = (
"380 0 LINE SMOOTH",
"410 0 OFFCURVE",
"420 10 OFFCURVE",
"420 40 CURVE SMOOTH",
"420 90 LINE SMOOTH",
"420 105 OFFCURVE",
"425 110 OFFCURVE",
"440 110 CURVE SMOOTH",
"460 110 LINE SMOOTH",
"490 110 OFFCURVE",
"500 120 OFFCURVE",
"500 150 CURVE SMOOTH",
"500 210 LINE SMOOTH",
"500 240 OFFCURVE",
"490 250 OFFCURVE",
"460 250 CURVE SMOOTH",
"440 250 LINE SMOOTH",
"424 250 OFFCURVE",
"420 254 OFFCURVE",
"420 270 CURVE SMOOTH",
"420 660 LINE SMOOTH",
"420 690 OFFCURVE",
"410 700 OFFCURVE",
"381 700 CURVE SMOOTH",
"299 700 LINE SMOOTH",
"267 700 OFFCURVE",
"255 686 OFFCURVE",
"240 660 CURVE SMOOTH",
"25 279 LINE SMOOTH",
"15 262 OFFCURVE",
"10 246 OFFCURVE",
"10 226 CURVE SMOOTH",
"10 150 LINE SMOOTH",
"10 120 OFFCURVE",
"20 110 OFFCURVE",
"50 110 CURVE SMOOTH",
"220 110 LINE SMOOTH",
"235 110 OFFCURVE",
"240 105 OFFCURVE",
"240 90 CURVE SMOOTH",
"240 40 LINE SMOOTH",
"240 10 OFFCURVE",
"250 0 OFFCURVE",
"280 0 CURVE SMOOTH"
);
},
{
closed = 1;
nodes = (
"163 250 OFFCURVE",
"158 251 OFFCURVE",
"158 258 CURVE SMOOTH",
"158 265 OFFCURVE",
"164 270 OFFCURVE",
"170 283 CURVE SMOOTH",
"224 390 LINE SMOOTH",
"228 398 OFFCURVE",
"231 401 OFFCURVE",
"234 401 CURVE SMOOTH",
"237 401 OFFCURVE",
"240 400 OFFCURVE",
"240 391 CURVE SMOOTH",
"240 270 LINE SMOOTH",
"240 255 OFFCURVE",
"235 250 OFFCURVE",
"220 250 CURVE SMOOTH",
"178 250 LINE SMOOTH"
);
}
);
width = 510;
}
);
leftKerningGroup = four;
rightKerningGroup = four;
unicode = 0034;
},
{
color = 5;
glyphname = five;
layers = (
{
layerId = m01;
paths = (
{
closed = 1;
nodes = (
"420 -10 OFFCURVE",
"480 100 OFFCURVE",
"480 260 CURVE SMOOTH",
"480 392 OFFCURVE",
"413 490 OFFCURVE",
"268 490 CURVE SMOOTH",
"242 490 OFFCURVE",
"230 480 OFFCURVE",
"210 480 CURVE SMOOTH",
"195 480 OFFCURVE",
"190 485 OFFCURVE",
"190 500 CURVE SMOOTH",
"190 540 LINE SMOOTH",
"190 555 OFFCURVE",
"195 560 OFFCURVE",
"210 560 CURVE SMOOTH",
"380 560 LINE SMOOTH",
"410 560 OFFCURVE",
"420 570 OFFCURVE",
"420 600 CURVE SMOOTH",
"420 666 LINE SMOOTH",
"420 683 OFFCURVE",
"410 700 OFFCURVE",
"380 700 CURVE SMOOTH",
"60 700 LINE SMOOTH",
"32 700 OFFCURVE",
"20 690 OFFCURVE",
"20 660 CURVE SMOOTH",
"20 370 LINE SMOOTH",
"20 340 OFFCURVE",
"30 320 OFFCURVE",
"60 320 CURVE SMOOTH",
"110 320 LINE SMOOTH",
"146 320 OFFCURVE",
"159 350 OFFCURVE",
"226 350 CURVE SMOOTH",
"270 350 OFFCURVE",
"290 314 OFFCURVE",
"290 260 CURVE SMOOTH",
"290 170 OFFCURVE",
"280 130 OFFCURVE",
"240 130 CURVE SMOOTH",
"200 130 OFFCURVE",
"190 150 OFFCURVE",
"190 180 CURVE SMOOTH",
"190 210 LINE SMOOTH",
"190 240 OFFCURVE",
"180 250 OFFCURVE",
"150 250 CURVE SMOOTH",
"50 250 LINE SMOOTH",
"20 250 OFFCURVE",
"10 240 OFFCURVE",
"10 210 CURVE SMOOTH",
"10 70 OFFCURVE",
"100 -10 OFFCURVE",
"240 -10 CURVE SMOOTH"
);
}
);
width = 490;
},
{
layerId = "6ABCF30A-460E-4EED-802C-9E4699B7E7F6";
paths = (
{
closed = 1;
nodes = (
"420 -10 OFFCURVE",
"480 100 OFFCURVE",
"480 260 CURVE SMOOTH",
"480 392 OFFCURVE",
"413 490 OFFCURVE",
"268 490 CURVE SMOOTH",
"242 490 OFFCURVE",
"230 480 OFFCURVE",
"210 480 CURVE SMOOTH",
"195 480 OFFCURVE",
"190 485 OFFCURVE",
"190 500 CURVE SMOOTH",
"190 540 LINE SMOOTH",
"190 555 OFFCURVE",
"195 560 OFFCURVE",
"210 560 CURVE SMOOTH",
"380 560 LINE SMOOTH",
"410 560 OFFCURVE",
"420 570 OFFCURVE",
"420 600 CURVE SMOOTH",
"420 666 LINE SMOOTH",
"420 683 OFFCURVE",
"410 700 OFFCURVE",
"380 700 CURVE SMOOTH",
"60 700 LINE SMOOTH",
"32 700 OFFCURVE",
"20 690 OFFCURVE",
"20 660 CURVE SMOOTH",
"20 370 LINE SMOOTH",
"20 340 OFFCURVE",
"30 320 OFFCURVE",
"60 320 CURVE SMOOTH",
"110 320 LINE SMOOTH",
"146 320 OFFCURVE",
"159 350 OFFCURVE",
"226 350 CURVE SMOOTH",
"270 350 OFFCURVE",
"290 314 OFFCURVE",
"290 260 CURVE SMOOTH",
"290 170 OFFCURVE",
"280 130 OFFCURVE",
"240 130 CURVE SMOOTH",
"200 130 OFFCURVE",
"190 150 OFFCURVE",
"190 180 CURVE SMOOTH",
"190 210 LINE SMOOTH",
"190 240 OFFCURVE",
"180 250 OFFCURVE",
"150 250 CURVE SMOOTH",
"50 250 LINE SMOOTH",
"20 250 OFFCURVE",
"10 240 OFFCURVE",
"10 210 CURVE SMOOTH",
"10 70 OFFCURVE",
"100 -10 OFFCURVE",
"240 -10 CURVE SMOOTH"
);
}
);
width = 490;
}
);
leftKerningGroup = five;
rightKerningGroup = five;
unicode = 0035;
},
{
color = 5;
glyphname = six;
layers = (
{
layerId = m01;
paths = (
{
closed = 1;
nodes = (
"370 -10 OFFCURVE",
"470 70 OFFCURVE",
"470 210 CURVE SMOOTH",
"470 370 OFFCURVE",
"362 428 OFFCURVE",
"255 428 CURVE SMOOTH",
"223 428 OFFCURVE",
"208 417 OFFCURVE",
"197 417 CURVE SMOOTH",
"193 417 OFFCURVE",
"190 419 OFFCURVE",
"190 423 CURVE SMOOTH",
"190 520 LINE SMOOTH",
"190 550 OFFCURVE",
"200 570 OFFCURVE",
"230 570 CURVE SMOOTH",
"260 570 OFFCURVE",
"270 550 OFFCURVE",
"270 520 CURVE SMOOTH",
"270 490 OFFCURVE",
"280 480 OFFCURVE",
"310 480 CURVE SMOOTH",
"410 480 LINE SMOOTH",
"440 480 OFFCURVE",
"450 490 OFFCURVE",
"450 520 CURVE SMOOTH",
"450 630 OFFCURVE",
"370 710 OFFCURVE",
"230 710 CURVE SMOOTH",
"90 710 OFFCURVE",
"10 640 OFFCURVE",
"10 500 CURVE SMOOTH",
"10 200 LINE SMOOTH",
"10 60 OFFCURVE",
"90 -10 OFFCURVE",
"230 -10 CURVE SMOOTH"
);
},
{
closed = 1;
nodes = (
"210 130 OFFCURVE",
"190 150 OFFCURVE",
"190 180 CURVE SMOOTH",
"190 250 LINE SMOOTH",
"190 280 OFFCURVE",
"210 300 OFFCURVE",
"240 300 CURVE SMOOTH",
"270 300 OFFCURVE",
"290 280 OFFCURVE",
"290 250 CURVE SMOOTH",
"290 180 LINE SMOOTH",
"290 150 OFFCURVE",
"271 130 OFFCURVE",
"240 130 CURVE SMOOTH"
);
}
);
width = 480;
},
{
associatedMasterId = m01;
layerId = "CD3C6230-38DE-4992-BB74-C388AFE971D1";
name = "Sep 10, 22, 10:46";
paths = (
{
closed = 1;
nodes = (
"370 -10 OFFCURVE",
"450 70 OFFCURVE",
"450 200 CURVE SMOOTH",
"450 500 LINE SMOOTH",
"450 630 OFFCURVE",
"370 710 OFFCURVE",
"230 710 CURVE SMOOTH",
"90 710 OFFCURVE",
"10 630 OFFCURVE",
"10 500 CURVE SMOOTH",
"10 200 LINE SMOOTH",
"10 70 OFFCURVE",
"90 -10 OFFCURVE",
"230 -10 CURVE SMOOTH"
);
},
{
closed = 1;
nodes = (
"200 130 OFFCURVE",
"190 150 OFFCURVE",
"190 180 CURVE SMOOTH",
"190 520 LINE SMOOTH",
"190 550 OFFCURVE",
"200 570 OFFCURVE",
"230 570 CURVE SMOOTH",
"260 570 OFFCURVE",
"270 550 OFFCURVE",
"270 520 CURVE SMOOTH",
"270 180 LINE SMOOTH",
"270 150 OFFCURVE",
"260 130 OFFCURVE",
"230 130 CURVE SMOOTH"
);
}
);
visible = 1;
width = 460;
},
{
layerId = "6ABCF30A-460E-4EED-802C-9E4699B7E7F6";
paths = (
{
closed = 1;
nodes = (
"370 -10 OFFCURVE",
"470 70 OFFCURVE",
"470 210 CURVE SMOOTH",
"470 370 OFFCURVE",
"362 428 OFFCURVE",
"255 428 CURVE SMOOTH",
"223 428 OFFCURVE",
"208 417 OFFCURVE",
"197 417 CURVE SMOOTH",
"193 417 OFFCURVE",
"190 419 OFFCURVE",
"190 423 CURVE SMOOTH",
"190 520 LINE SMOOTH",
"190 550 OFFCURVE",
"200 570 OFFCURVE",
"230 570 CURVE SMOOTH",
"260 570 OFFCURVE",
"270 550 OFFCURVE",
"270 520 CURVE SMOOTH",
"270 490 OFFCURVE",
"280 480 OFFCURVE",
"310 480 CURVE SMOOTH",
"410 480 LINE SMOOTH",
"440 480 OFFCURVE",
"450 490 OFFCURVE",
"450 520 CURVE SMOOTH",
"450 630 OFFCURVE",
"370 710 OFFCURVE",
"230 710 CURVE SMOOTH",
"90 710 OFFCURVE",
"10 640 OFFCURVE",
"10 500 CURVE SMOOTH",
"10 200 LINE SMOOTH",
"10 60 OFFCURVE",
"90 -10 OFFCURVE",
"230 -10 CURVE SMOOTH"
);
},
{
closed = 1;
nodes = (
"210 130 OFFCURVE",
"190 150 OFFCURVE",
"190 180 CURVE SMOOTH",
"190 250 LINE SMOOTH",
"190 280 OFFCURVE",
"210 300 OFFCURVE",
"240 300 CURVE SMOOTH",
"270 300 OFFCURVE",
"290 280 OFFCURVE",
"290 250 CURVE SMOOTH",
"290 180 LINE SMOOTH",
"290 150 OFFCURVE",
"271 130 OFFCURVE",
"240 130 CURVE SMOOTH"
);
}
);
width = 480;
}
);
leftKerningGroup = six;
rightKerningGroup = six;
unicode = 0036;
},
{
color = 5;
glyphname = seven;
layers = (
{
layerId = m01;
paths = (
{
closed = 1;
nodes = (
"180 0 LINE SMOOTH",
"210 0 OFFCURVE",
"220 10 OFFCURVE",
"220 40 CURVE SMOOTH",
"220 207 OFFCURVE",
"256 386 OFFCURVE",
"382 530 CURVE SMOOTH",
"396 546 OFFCURVE",
"420 566 OFFCURVE",
"420 600 CURVE SMOOTH",
"420 660 LINE SMOOTH",
"420 690 OFFCURVE",
"410 700 OFFCURVE",
"380 700 CURVE SMOOTH",
"50 700 LINE SMOOTH",
"20 700 OFFCURVE",
"10 690 OFFCURVE",
"10 660 CURVE SMOOTH",
"10 600 LINE SMOOTH",
"10 570 OFFCURVE",
"20 560 OFFCURVE",
"50 560 CURVE SMOOTH",
"196 560 LINE SMOOTH",
"211 560 OFFCURVE",
"218 555 OFFCURVE",
"218 540 CURVE SMOOTH",
"218 530 OFFCURVE",
"211 520 OFFCURVE",
"206 513 CURVE SMOOTH",
"112 375 OFFCURVE",
"40 206 OFFCURVE",
"40 40 CURVE SMOOTH",
"40 10 OFFCURVE",
"50 0 OFFCURVE",
"80 0 CURVE SMOOTH"
);
}
);
width = 430;
},
{
layerId = "6ABCF30A-460E-4EED-802C-9E4699B7E7F6";
paths = (
{
closed = 1;
nodes = (
"180 0 LINE SMOOTH",
"210 0 OFFCURVE",
"220 10 OFFCURVE",
"220 40 CURVE SMOOTH",
"220 207 OFFCURVE",
"256 386 OFFCURVE",
"382 530 CURVE SMOOTH",
"396 546 OFFCURVE",
"420 566 OFFCURVE",
"420 600 CURVE SMOOTH",
"420 660 LINE SMOOTH",
"420 690 OFFCURVE",
"410 700 OFFCURVE",
"380 700 CURVE SMOOTH",
"50 700 LINE SMOOTH",
"20 700 OFFCURVE",
"10 690 OFFCURVE",
"10 660 CURVE SMOOTH",
"10 600 LINE SMOOTH",
"10 570 OFFCURVE",
"20 560 OFFCURVE",
"50 560 CURVE SMOOTH",
"196 560 LINE SMOOTH",
"211 560 OFFCURVE",
"218 555 OFFCURVE",
"218 540 CURVE SMOOTH",
"218 530 OFFCURVE",
"211 520 OFFCURVE",
"206 513 CURVE SMOOTH",
"112 375 OFFCURVE",
"40 206 OFFCURVE",
"40 40 CURVE SMOOTH",
"40 10 OFFCURVE",
"50 0 OFFCURVE",
"80 0 CURVE SMOOTH"
);
}
);
width = 430;
}
);
leftKerningGroup = seven;
rightKerningGroup = seven;
unicode = 0037;
},
{
color = 5;
glyphname = eight;
layers = (
{
layerId = m01;
paths = (
{
closed = 1;
nodes = (
"380 -10 OFFCURVE",
"470 70 OFFCURVE",
"470 200 CURVE SMOOTH",
"470 284 OFFCURVE",
"437 344 OFFCURVE",
"413 367 CURVE SMOOTH",
"406 374 OFFCURVE",
"400 381 OFFCURVE",
"400 386 CURVE SMOOTH",
"400 393 OFFCURVE",
"401 396 OFFCURVE",
"409 405 CURVE SMOOTH",
"430 431 OFFCURVE",
"450 474 OFFCURVE",
"450 512 CURVE SMOOTH",
"450 642 OFFCURVE",
"380 710 OFFCURVE",
"240 710 CURVE SMOOTH",
"100 710 OFFCURVE",
"30 642 OFFCURVE",
"30 512 CURVE SMOOTH",
"30 473 OFFCURVE",
"47 431 OFFCURVE",
"68 405 CURVE SMOOTH",
"77 393 OFFCURVE",
"80 393 OFFCURVE",
"80 386 CURVE SMOOTH",
"80 380 OFFCURVE",
"72 372 OFFCURVE",
"64 363 CURVE SMOOTH",
"39 334 OFFCURVE",
"10 279 OFFCURVE",
"10 200 CURVE SMOOTH",
"10 70 OFFCURVE",
"100 -10 OFFCURVE",
"240 -10 CURVE SMOOTH"
);
},
{
closed = 1;
nodes = (
"210 450 OFFCURVE",
"200 470 OFFCURVE",
"200 500 CURVE SMOOTH",
"200 520 LINE SMOOTH",
"200 550 OFFCURVE",
"210 570 OFFCURVE",
"240 570 CURVE SMOOTH",
"270 570 OFFCURVE",
"280 550 OFFCURVE",
"280 520 CURVE SMOOTH",
"280 500 LINE SMOOTH",
"280 470 OFFCURVE",
"270 450 OFFCURVE",
"240 450 CURVE SMOOTH"
);
},
{
closed = 1;
nodes = (
"210 130 OFFCURVE",
"190 150 OFFCURVE",
"190 180 CURVE SMOOTH",
"190 260 LINE SMOOTH",
"190 290 OFFCURVE",
"210 310 OFFCURVE",
"240 310 CURVE SMOOTH",
"270 310 OFFCURVE",
"290 290 OFFCURVE",
"290 260 CURVE SMOOTH",
"290 180 LINE SMOOTH",
"290 150 OFFCURVE",
"270 130 OFFCURVE",
"240 130 CURVE SMOOTH"
);
}
);
width = 480;
},
{
associatedMasterId = m01;
layerId = "A8B4BCF0-6897-4899-822F-99049545FD6B";
name = "Sep 10, 22, 11:19";
paths = (
{
closed = 1;
nodes = (
"380 -10 OFFCURVE",
"460 70 OFFCURVE",
"460 200 CURVE SMOOTH",
"460 500 LINE SMOOTH",
"460 630 OFFCURVE",
"380 710 OFFCURVE",
"240 710 CURVE SMOOTH",
"100 710 OFFCURVE",
"20 630 OFFCURVE",
"20 500 CURVE SMOOTH",
"20 200 LINE SMOOTH",
"20 70 OFFCURVE",
"100 -10 OFFCURVE",
"240 -10 CURVE SMOOTH"
);
},
{
closed = 1;
nodes = (
"210 130 OFFCURVE",
"200 150 OFFCURVE",
"200 180 CURVE SMOOTH",
"200 520 LINE SMOOTH",
"200 550 OFFCURVE",
"210 570 OFFCURVE",
"240 570 CURVE SMOOTH",
"270 570 OFFCURVE",
"280 550 OFFCURVE",
"280 520 CURVE SMOOTH",
"280 180 LINE SMOOTH",
"280 150 OFFCURVE",
"270 130 OFFCURVE",
"240 130 CURVE SMOOTH"
);
}
);
visible = 1;
width = 480;
},
{
layerId = "6ABCF30A-460E-4EED-802C-9E4699B7E7F6";
paths = (
{
closed = 1;
nodes = (
"380 -10 OFFCURVE",
"470 70 OFFCURVE",
"470 200 CURVE SMOOTH",
"470 284 OFFCURVE",
"437 344 OFFCURVE",
"413 367 CURVE SMOOTH",
"406 374 OFFCURVE",
"400 381 OFFCURVE",
"400 386 CURVE SMOOTH",
"400 393 OFFCURVE",
"401 396 OFFCURVE",
"409 405 CURVE SMOOTH",
"430 431 OFFCURVE",
"450 474 OFFCURVE",
"450 512 CURVE SMOOTH",
"450 642 OFFCURVE",
"380 710 OFFCURVE",
"240 710 CURVE SMOOTH",
"100 710 OFFCURVE",
"30 642 OFFCURVE",
"30 512 CURVE SMOOTH",
"30 473 OFFCURVE",
"47 431 OFFCURVE",
"68 405 CURVE SMOOTH",
"77 393 OFFCURVE",
"80 393 OFFCURVE",
"80 386 CURVE SMOOTH",
"80 380 OFFCURVE",
"72 372 OFFCURVE",
"64 363 CURVE SMOOTH",
"39 334 OFFCURVE",
"10 279 OFFCURVE",
"10 200 CURVE SMOOTH",
"10 70 OFFCURVE",
"100 -10 OFFCURVE",
"240 -10 CURVE SMOOTH"
);
},
{
closed = 1;
nodes = (
"210 450 OFFCURVE",
"200 470 OFFCURVE",
"200 500 CURVE SMOOTH",
"200 520 LINE SMOOTH",
"200 550 OFFCURVE",
"210 570 OFFCURVE",
"240 570 CURVE SMOOTH",
"270 570 OFFCURVE",
"280 550 OFFCURVE",
"280 520 CURVE SMOOTH",
"280 500 LINE SMOOTH",
"280 470 OFFCURVE",
"270 450 OFFCURVE",
"240 450 CURVE SMOOTH"
);
},
{
closed = 1;
nodes = (
"210 130 OFFCURVE",
"190 150 OFFCURVE",
"190 180 CURVE SMOOTH",
"190 260 LINE SMOOTH",
"190 290 OFFCURVE",
"210 310 OFFCURVE",
"240 310 CURVE SMOOTH",
"270 310 OFFCURVE",
"290 290 OFFCURVE",
"290 260 CURVE SMOOTH",
"290 180 LINE SMOOTH",
"290 150 OFFCURVE",
"270 130 OFFCURVE",
"240 130 CURVE SMOOTH"
);
}
);
width = 480;
}
);
leftKerningGroup = eight;
rightKerningGroup = eight;
unicode = 0038;
},
{
color = 5;
glyphname = nine;
layers = (
{
layerId = m01;
paths = (
{
closed = 1;
nodes = (
"100 710 OFFCURVE",
"10 630 OFFCURVE",
"10 490 CURVE SMOOTH",
"10 330 OFFCURVE",
"108 272 OFFCURVE",
"215 272 CURVE SMOOTH",
"247 272 OFFCURVE",
"262 283 OFFCURVE",
"273 283 CURVE SMOOTH",
"277 283 OFFCURVE",
"280 281 OFFCURVE",
"280 277 CURVE SMOOTH",
"280 180 LINE SMOOTH",
"280 150 OFFCURVE",
"270 130 OFFCURVE",
"240 130 CURVE SMOOTH",
"210 130 OFFCURVE",
"200 150 OFFCURVE",
"200 180 CURVE SMOOTH",
"200 210 OFFCURVE",
"190 220 OFFCURVE",
"160 220 CURVE SMOOTH",
"60 220 LINE SMOOTH",
"30 220 OFFCURVE",
"20 210 OFFCURVE",
"20 180 CURVE SMOOTH",
"20 70 OFFCURVE",
"100 -10 OFFCURVE",
"240 -10 CURVE SMOOTH",
"380 -10 OFFCURVE",
"460 60 OFFCURVE",
"460 200 CURVE SMOOTH",
"460 490 LINE SMOOTH",
"460 630 OFFCURVE",
"380 710 OFFCURVE",
"240 710 CURVE SMOOTH"
);
},
{
closed = 1;
nodes = (
"260 570 OFFCURVE",
"280 550 OFFCURVE",
"280 520 CURVE SMOOTH",
"280 450 LINE SMOOTH",
"280 420 OFFCURVE",
"260 400 OFFCURVE",
"230 400 CURVE SMOOTH",
"200 400 OFFCURVE",
"180 420 OFFCURVE",
"180 450 CURVE SMOOTH",
"180 520 LINE SMOOTH",
"180 550 OFFCURVE",
"199 570 OFFCURVE",
"230 570 CURVE SMOOTH"
);
}
);
width = 470;
},
{
layerId = "6ABCF30A-460E-4EED-802C-9E4699B7E7F6";
paths = (
{
closed = 1;
nodes = (
"100 710 OFFCURVE",
"10 630 OFFCURVE",
"10 490 CURVE SMOOTH",
"10 330 OFFCURVE",
"108 272 OFFCURVE",
"215 272 CURVE SMOOTH",
"247 272 OFFCURVE",
"262 283 OFFCURVE",
"273 283 CURVE SMOOTH",
"277 283 OFFCURVE",
"280 281 OFFCURVE",
"280 277 CURVE SMOOTH",
"280 180 LINE SMOOTH",
"280 150 OFFCURVE",
"270 130 OFFCURVE",
"240 130 CURVE SMOOTH",
"210 130 OFFCURVE",
"200 150 OFFCURVE",
"200 180 CURVE SMOOTH",
"200 210 OFFCURVE",
"190 220 OFFCURVE",
"160 220 CURVE SMOOTH",
"60 220 LINE SMOOTH",
"30 220 OFFCURVE",
"20 210 OFFCURVE",
"20 180 CURVE SMOOTH",
"20 70 OFFCURVE",
"100 -10 OFFCURVE",
"240 -10 CURVE SMOOTH",
"380 -10 OFFCURVE",
"460 60 OFFCURVE",
"460 200 CURVE SMOOTH",
"460 490 LINE SMOOTH",
"460 630 OFFCURVE",
"380 710 OFFCURVE",
"240 710 CURVE SMOOTH"
);
},
{
closed = 1;
nodes = (
"260 570 OFFCURVE",
"280 550 OFFCURVE",
"280 520 CURVE SMOOTH",
"280 450 LINE SMOOTH",
"280 420 OFFCURVE",
"260 400 OFFCURVE",
"230 400 CURVE SMOOTH",
"200 400 OFFCURVE",
"180 420 OFFCURVE",
"180 450 CURVE SMOOTH",
"180 520 LINE SMOOTH",
"180 550 OFFCURVE",
"199 570 OFFCURVE",
"230 570 CURVE SMOOTH"
);
}
);
width = 470;
}
);
leftKerningGroup = nine;
rightKerningGroup = nine;
unicode = 0039;
},
{
color = 5;
glyphname = period;
layers = (
{
layerId = m01;
paths = (
{
closed = 1;
nodes = (
"160 0 LINE SMOOTH",
"190 0 OFFCURVE",
"200 10 OFFCURVE",
"200 40 CURVE SMOOTH",
"200 130 LINE SMOOTH",
"200 160 OFFCURVE",
"190 170 OFFCURVE",
"160 170 CURVE SMOOTH",
"60 170 LINE SMOOTH",
"30 170 OFFCURVE",
"20 160 OFFCURVE",
"20 130 CURVE SMOOTH",
"20 40 LINE SMOOTH",
"20 10 OFFCURVE",
"30 0 OFFCURVE",
"60 0 CURVE SMOOTH"
);
}
);
width = 220;
},
{
layerId = "6ABCF30A-460E-4EED-802C-9E4699B7E7F6";
paths = (
{
closed = 1;
nodes = (
"160 0 LINE SMOOTH",
"190 0 OFFCURVE",
"200 10 OFFCURVE",
"200 40 CURVE SMOOTH",
"200 130 LINE SMOOTH",
"200 160 OFFCURVE",
"190 170 OFFCURVE",
"160 170 CURVE SMOOTH",
"60 170 LINE SMOOTH",
"30 170 OFFCURVE",
"20 160 OFFCURVE",
"20 130 CURVE SMOOTH",
"20 40 LINE SMOOTH",
"20 10 OFFCURVE",
"30 0 OFFCURVE",
"60 0 CURVE SMOOTH"
);
}
);
width = 220;
}
);
leftKerningGroup = period;
rightKerningGroup = period;
unicode = 002E;
},
{
color = 5;
glyphname = comma;
layers = (
{
layerId = m01;
paths = (
{
closed = 1;
nodes = (
"85 0 LINE SMOOTH",
"100 0 OFFCURVE",
"105 -5 OFFCURVE",
"105 -20 CURVE SMOOTH",
"105 -34 OFFCURVE",
"98 -50 OFFCURVE",
"79 -63 CURVE SMOOTH",
"67 -71 OFFCURVE",
"55 -77 OFFCURVE",
"55 -94 CURVE SMOOTH",
"55 -110 LINE SMOOTH",
"55 -123 OFFCURVE",
"61 -130 OFFCURVE",
"75 -130 CURVE SMOOTH",
"148 -130 OFFCURVE",
"200 -36 OFFCURVE",
"200 40 CURVE SMOOTH",
"200 130 LINE SMOOTH",
"200 160 OFFCURVE",
"190 170 OFFCURVE",
"160 170 CURVE SMOOTH",
"60 170 LINE SMOOTH",
"30 170 OFFCURVE",
"20 160 OFFCURVE",
"20 130 CURVE SMOOTH",
"20 40 LINE SMOOTH",
"20 10 OFFCURVE",
"30 0 OFFCURVE",
"60 0 CURVE SMOOTH"
);
}
);
width = 220;
},
{
associatedMasterId = m01;
layerId = "8B7E990B-C917-457C-AB79-DBAAEE7EB288";
name = "Sep 10, 22, 11:39";
paths = (
{
closed = 1;
nodes = (
"184 172 OFFCURVE",
"169 179 OFFCURVE",
"158 180 OFFCURVE",
"147 180 QCURVE SMOOTH",
"66 180 LINE SMOOTH",
"56 180 OFFCURVE",
"45 178 OFFCURVE",
"28 172 OFFCURVE",
"20 154 OFFCURVE",
"20 140 QCURVE SMOOTH",
"20 40 LINE SMOOTH",
"20 25 OFFCURVE",
"46 0 OFFCURVE",
"62 0 QCURVE SMOOTH",
"74 0 OFFCURVE",
"82 -6 OFFCURVE",
"82 -20 QCURVE SMOOTH",
"82 -41 OFFCURVE",
"56 -71 OFFCURVE",
"56 -81 QCURVE SMOOTH",
"56 -94 OFFCURVE",
"65 -100 OFFCURVE",
"80 -100 QCURVE SMOOTH",
"113 -100 LINE SMOOTH",
"135 -100 OFFCURVE",
"162 -76 OFFCURVE",
"173 -42 QCURVE SMOOTH",
"190 10 OFFCURVE",
"190 39 QCURVE SMOOTH",
"190 140 LINE SMOOTH",
"190 154 OFFCURVE"
);
}
);
visible = 1;
width = 220;
},
{
layerId = "6ABCF30A-460E-4EED-802C-9E4699B7E7F6";
paths = (
{
closed = 1;
nodes = (
"85 0 LINE SMOOTH",
"100 0 OFFCURVE",
"105 -5 OFFCURVE",
"105 -20 CURVE SMOOTH",
"105 -34 OFFCURVE",
"98 -50 OFFCURVE",
"79 -63 CURVE SMOOTH",
"67 -71 OFFCURVE",
"55 -77 OFFCURVE",
"55 -94 CURVE SMOOTH",
"55 -110 LINE SMOOTH",
"55 -123 OFFCURVE",
"61 -130 OFFCURVE",
"75 -130 CURVE SMOOTH",
"148 -130 OFFCURVE",
"200 -36 OFFCURVE",
"200 40 CURVE SMOOTH",
"200 130 LINE SMOOTH",
"200 160 OFFCURVE",
"190 170 OFFCURVE",
"160 170 CURVE SMOOTH",
"60 170 LINE SMOOTH",
"30 170 OFFCURVE",
"20 160 OFFCURVE",
"20 130 CURVE SMOOTH",
"20 40 LINE SMOOTH",
"20 10 OFFCURVE",
"30 0 OFFCURVE",
"60 0 CURVE SMOOTH"
);
}
);
width = 220;
}
);
unicode = 002C;
},
{
color = 5;
glyphname = colon;
layers = (
{
layerId = m01;
paths = (
{
closed = 1;
nodes = (
"160 0 LINE SMOOTH",
"190 0 OFFCURVE",
"200 10 OFFCURVE",
"200 40 CURVE SMOOTH",
"200 130 LINE SMOOTH",
"200 160 OFFCURVE",
"190 170 OFFCURVE",
"160 170 CURVE SMOOTH",
"60 170 LINE SMOOTH",
"30 170 OFFCURVE",
"20 160 OFFCURVE",
"20 130 CURVE SMOOTH",
"20 40 LINE SMOOTH",
"20 10 OFFCURVE",
"30 0 OFFCURVE",
"60 0 CURVE SMOOTH"
);
},
{
closed = 1;
nodes = (
"160 360 LINE SMOOTH",
"190 360 OFFCURVE",
"200 370 OFFCURVE",
"200 400 CURVE SMOOTH",
"200 490 LINE SMOOTH",
"200 520 OFFCURVE",
"190 530 OFFCURVE",
"160 530 CURVE SMOOTH",
"60 530 LINE SMOOTH",
"30 530 OFFCURVE",
"20 520 OFFCURVE",
"20 490 CURVE SMOOTH",
"20 400 LINE SMOOTH",
"20 370 OFFCURVE",
"30 360 OFFCURVE",
"60 360 CURVE SMOOTH"
);
}
);
width = 220;
},
{
layerId = "6ABCF30A-460E-4EED-802C-9E4699B7E7F6";
paths = (
{
closed = 1;
nodes = (
"160 0 LINE SMOOTH",
"190 0 OFFCURVE",
"200 10 OFFCURVE",
"200 40 CURVE SMOOTH",
"200 130 LINE SMOOTH",
"200 160 OFFCURVE",
"190 170 OFFCURVE",
"160 170 CURVE SMOOTH",
"60 170 LINE SMOOTH",
"30 170 OFFCURVE",
"20 160 OFFCURVE",
"20 130 CURVE SMOOTH",
"20 40 LINE SMOOTH",
"20 10 OFFCURVE",
"30 0 OFFCURVE",
"60 0 CURVE SMOOTH"
);
},
{
closed = 1;
nodes = (
"160 360 LINE SMOOTH",
"190 360 OFFCURVE",
"200 370 OFFCURVE",
"200 400 CURVE SMOOTH",
"200 490 LINE SMOOTH",
"200 520 OFFCURVE",
"190 530 OFFCURVE",
"160 530 CURVE SMOOTH",
"60 530 LINE SMOOTH",
"30 530 OFFCURVE",
"20 520 OFFCURVE",
"20 490 CURVE SMOOTH",
"20 400 LINE SMOOTH",
"20 370 OFFCURVE",
"30 360 OFFCURVE",
"60 360 CURVE SMOOTH"
);
}
);
width = 220;
}
);
unicode = 003A;
},
{
color = 5;
glyphname = semicolon;
layers = (
{
layerId = m01;
paths = (
{
closed = 1;
nodes = (
"160 360 LINE SMOOTH",
"190 360 OFFCURVE",
"200 370 OFFCURVE",
"200 400 CURVE SMOOTH",
"200 490 LINE SMOOTH",
"200 520 OFFCURVE",
"190 530 OFFCURVE",
"160 530 CURVE SMOOTH",
"60 530 LINE SMOOTH",
"30 530 OFFCURVE",
"20 520 OFFCURVE",
"20 490 CURVE SMOOTH",
"20 400 LINE SMOOTH",
"20 370 OFFCURVE",
"30 360 OFFCURVE",
"60 360 CURVE SMOOTH"
);
},
{
closed = 1;
nodes = (
"85 0 LINE SMOOTH",
"100 0 OFFCURVE",
"105 -5 OFFCURVE",
"105 -20 CURVE SMOOTH",
"105 -34 OFFCURVE",
"98 -50 OFFCURVE",
"79 -63 CURVE SMOOTH",
"67 -71 OFFCURVE",
"55 -77 OFFCURVE",
"55 -94 CURVE SMOOTH",
"55 -110 LINE SMOOTH",
"55 -123 OFFCURVE",
"61 -130 OFFCURVE",
"75 -130 CURVE SMOOTH",
"148 -130 OFFCURVE",
"200 -36 OFFCURVE",
"200 40 CURVE SMOOTH",
"200 130 LINE SMOOTH",
"200 160 OFFCURVE",
"190 170 OFFCURVE",
"160 170 CURVE SMOOTH",
"60 170 LINE SMOOTH",
"30 170 OFFCURVE",
"20 160 OFFCURVE",
"20 130 CURVE SMOOTH",
"20 40 LINE SMOOTH",
"20 10 OFFCURVE",
"30 0 OFFCURVE",
"60 0 CURVE SMOOTH"
);
}
);
width = 220;
},
{
layerId = "6ABCF30A-460E-4EED-802C-9E4699B7E7F6";
paths = (
{
closed = 1;
nodes = (
"160 360 LINE SMOOTH",
"190 360 OFFCURVE",
"200 370 OFFCURVE",
"200 400 CURVE SMOOTH",
"200 490 LINE SMOOTH",
"200 520 OFFCURVE",
"190 530 OFFCURVE",
"160 530 CURVE SMOOTH",
"60 530 LINE SMOOTH",
"30 530 OFFCURVE",
"20 520 OFFCURVE",
"20 490 CURVE SMOOTH",
"20 400 LINE SMOOTH",
"20 370 OFFCURVE",
"30 360 OFFCURVE",
"60 360 CURVE SMOOTH"
);
},
{
closed = 1;
nodes = (
"85 0 LINE SMOOTH",
"100 0 OFFCURVE",
"105 -5 OFFCURVE",
"105 -20 CURVE SMOOTH",
"105 -34 OFFCURVE",
"98 -50 OFFCURVE",
"79 -63 CURVE SMOOTH",
"67 -71 OFFCURVE",
"55 -77 OFFCURVE",
"55 -94 CURVE SMOOTH",
"55 -110 LINE SMOOTH",
"55 -123 OFFCURVE",
"61 -130 OFFCURVE",
"75 -130 CURVE SMOOTH",
"148 -130 OFFCURVE",
"200 -36 OFFCURVE",
"200 40 CURVE SMOOTH",
"200 130 LINE SMOOTH",
"200 160 OFFCURVE",
"190 170 OFFCURVE",
"160 170 CURVE SMOOTH",
"60 170 LINE SMOOTH",
"30 170 OFFCURVE",
"20 160 OFFCURVE",
"20 130 CURVE SMOOTH",
"20 40 LINE SMOOTH",
"20 10 OFFCURVE",
"30 0 OFFCURVE",
"60 0 CURVE SMOOTH"
);
}
);
width = 220;
}
);
unicode = 003B;
},
{
color = 5;
glyphname = exclam;
layers = (
{
layerId = m01;
paths = (
{
closed = 1;
nodes = (
"160 0 LINE SMOOTH",
"190 0 OFFCURVE",
"200 10 OFFCURVE",
"200 40 CURVE SMOOTH",
"200 130 LINE SMOOTH",
"200 160 OFFCURVE",
"190 170 OFFCURVE",
"160 170 CURVE SMOOTH",
"60 170 LINE SMOOTH",
"30 170 OFFCURVE",
"20 160 OFFCURVE",
"20 130 CURVE SMOOTH",
"20 40 LINE SMOOTH",
"20 10 OFFCURVE",
"30 0 OFFCURVE",
"60 0 CURVE SMOOTH"
);
},
{
closed = 1;
nodes = (
"130 240 LINE SMOOTH",
"156 240 OFFCURVE",
"161 251 OFFCURVE",
"170 280 CURVE SMOOTH",
"184 324 OFFCURVE",
"200 368 OFFCURVE",
"200 412 CURVE SMOOTH",
"200 660 LINE SMOOTH",
"200 690 OFFCURVE",
"190 700 OFFCURVE",
"160 700 CURVE SMOOTH",
"60 700 LINE SMOOTH",
"30 700 OFFCURVE",
"20 690 OFFCURVE",
"20 660 CURVE SMOOTH",
"20 409 LINE SMOOTH",
"20 366 OFFCURVE",
"36 323 OFFCURVE",
"50 280 CURVE SMOOTH",
"59 251 OFFCURVE",
"64 240 OFFCURVE",
"90 240 CURVE SMOOTH"
);
}
);
width = 220;
},
{
layerId = "6ABCF30A-460E-4EED-802C-9E4699B7E7F6";
paths = (
{
closed = 1;
nodes = (
"160 0 LINE SMOOTH",
"190 0 OFFCURVE",
"200 10 OFFCURVE",
"200 40 CURVE SMOOTH",
"200 130 LINE SMOOTH",
"200 160 OFFCURVE",
"190 170 OFFCURVE",
"160 170 CURVE SMOOTH",
"60 170 LINE SMOOTH",
"30 170 OFFCURVE",
"20 160 OFFCURVE",
"20 130 CURVE SMOOTH",
"20 40 LINE SMOOTH",
"20 10 OFFCURVE",
"30 0 OFFCURVE",
"60 0 CURVE SMOOTH"
);
},
{
closed = 1;
nodes = (
"130 240 LINE SMOOTH",
"156 240 OFFCURVE",
"161 251 OFFCURVE",
"170 280 CURVE SMOOTH",
"184 324 OFFCURVE",
"200 368 OFFCURVE",
"200 412 CURVE SMOOTH",
"200 660 LINE SMOOTH",
"200 690 OFFCURVE",
"190 700 OFFCURVE",
"160 700 CURVE SMOOTH",
"60 700 LINE SMOOTH",
"30 700 OFFCURVE",
"20 690 OFFCURVE",
"20 660 CURVE SMOOTH",
"20 409 LINE SMOOTH",
"20 366 OFFCURVE",
"36 323 OFFCURVE",
"50 280 CURVE SMOOTH",
"59 251 OFFCURVE",
"64 240 OFFCURVE",
"90 240 CURVE SMOOTH"
);
}
);
width = 220;
}
);
unicode = 0021;
},
{
color = 5;
glyphname = bullet;
layers = (
{
layerId = m01;
paths = (
{
closed = 1;
nodes = (
"253 140 OFFCURVE",
"320 207 OFFCURVE",
"320 290 CURVE SMOOTH",
"320 373 OFFCURVE",
"253 440 OFFCURVE",
"170 440 CURVE SMOOTH",
"87 440 OFFCURVE",
"20 373 OFFCURVE",
"20 290 CURVE SMOOTH",
"20 207 OFFCURVE",
"87 140 OFFCURVE",
"170 140 CURVE SMOOTH"
);
}
);
width = 340;
},
{
layerId = "6ABCF30A-460E-4EED-802C-9E4699B7E7F6";
paths = (
{
closed = 1;
nodes = (
"253 140 OFFCURVE",
"320 207 OFFCURVE",
"320 290 CURVE SMOOTH",
"320 373 OFFCURVE",
"253 440 OFFCURVE",
"170 440 CURVE SMOOTH",
"87 440 OFFCURVE",
"20 373 OFFCURVE",
"20 290 CURVE SMOOTH",
"20 207 OFFCURVE",
"87 140 OFFCURVE",
"170 140 CURVE SMOOTH"
);
}
);
width = 340;
}
);
unicode = 2022;
},
{
color = 5;
glyphname = hyphen;
layers = (
{
layerId = m01;
paths = (
{
closed = 1;
nodes = (
"240 280 LINE SMOOTH",
"270 280 OFFCURVE",
"280 290 OFFCURVE",
"280 320 CURVE SMOOTH",
"280 380 LINE SMOOTH",
"280 410 OFFCURVE",
"270 420 OFFCURVE",
"240 420 CURVE SMOOTH",
"60 420 LINE SMOOTH",
"30 420 OFFCURVE",
"20 410 OFFCURVE",
"20 380 CURVE SMOOTH",
"20 320 LINE SMOOTH",
"20 290 OFFCURVE",
"30 280 OFFCURVE",
"60 280 CURVE SMOOTH"
);
}
);
width = 300;
},
{
layerId = "6ABCF30A-460E-4EED-802C-9E4699B7E7F6";
paths = (
{
closed = 1;
nodes = (
"240 280 LINE SMOOTH",
"270 280 OFFCURVE",
"280 290 OFFCURVE",
"280 320 CURVE SMOOTH",
"280 380 LINE SMOOTH",
"280 410 OFFCURVE",
"270 420 OFFCURVE",
"240 420 CURVE SMOOTH",
"60 420 LINE SMOOTH",
"30 420 OFFCURVE",
"20 410 OFFCURVE",
"20 380 CURVE SMOOTH",
"20 320 LINE SMOOTH",
"20 290 OFFCURVE",
"30 280 OFFCURVE",
"60 280 CURVE SMOOTH"
);
}
);
width = 300;
}
);
unicode = 002D;
},
{
color = 5;
glyphname = quotedblleft;
layers = (
{
layerId = m01;
paths = (
{
closed = 1;
nodes = (
"145 530 LINE SMOOTH",
"130 530 OFFCURVE",
"122 535 OFFCURVE",
"122 550 CURVE SMOOTH",
"122 564 OFFCURVE",
"127 574 OFFCURVE",
"134 583 CURVE SMOOTH",
"147 601 OFFCURVE",
"165 605 OFFCURVE",
"165 620 CURVE SMOOTH",
"165 630 LINE SMOOTH",
"165 643 OFFCURVE",
"159 650 OFFCURVE",
"145 650 CURVE SMOOTH",
"72 650 OFFCURVE",
"20 576 OFFCURVE",
"20 490 CURVE SMOOTH",
"20 400 LINE SMOOTH",
"20 370 OFFCURVE",
"30 360 OFFCURVE",
"60 360 CURVE SMOOTH",
"160 360 LINE SMOOTH",
"190 360 OFFCURVE",
"200 370 OFFCURVE",
"200 400 CURVE SMOOTH",
"200 490 LINE SMOOTH",
"200 520 OFFCURVE",
"190 530 OFFCURVE",
"160 530 CURVE SMOOTH"
);
},
{
closed = 1;
nodes = (
"365 530 LINE SMOOTH",
"350 530 OFFCURVE",
"342 535 OFFCURVE",
"342 550 CURVE SMOOTH",
"342 564 OFFCURVE",
"347 574 OFFCURVE",
"354 583 CURVE SMOOTH",
"367 601 OFFCURVE",
"385 605 OFFCURVE",
"385 620 CURVE SMOOTH",
"385 630 LINE SMOOTH",
"385 643 OFFCURVE",
"379 650 OFFCURVE",
"365 650 CURVE SMOOTH",
"292 650 OFFCURVE",
"240 576 OFFCURVE",
"240 490 CURVE SMOOTH",
"240 400 LINE SMOOTH",
"240 370 OFFCURVE",
"250 360 OFFCURVE",
"280 360 CURVE SMOOTH",
"380 360 LINE SMOOTH",
"410 360 OFFCURVE",
"420 370 OFFCURVE",
"420 400 CURVE SMOOTH",
"420 490 LINE SMOOTH",
"420 520 OFFCURVE",
"410 530 OFFCURVE",
"380 530 CURVE SMOOTH"
);
}
);
width = 440;
},
{
layerId = "6ABCF30A-460E-4EED-802C-9E4699B7E7F6";
paths = (
{
closed = 1;
nodes = (
"145 530 LINE SMOOTH",
"130 530 OFFCURVE",
"122 535 OFFCURVE",
"122 550 CURVE SMOOTH",
"122 564 OFFCURVE",
"127 574 OFFCURVE",
"134 583 CURVE SMOOTH",
"147 601 OFFCURVE",
"165 605 OFFCURVE",
"165 620 CURVE SMOOTH",
"165 630 LINE SMOOTH",
"165 643 OFFCURVE",
"159 650 OFFCURVE",
"145 650 CURVE SMOOTH",
"72 650 OFFCURVE",
"20 576 OFFCURVE",
"20 490 CURVE SMOOTH",
"20 400 LINE SMOOTH",
"20 370 OFFCURVE",
"30 360 OFFCURVE",
"60 360 CURVE SMOOTH",
"160 360 LINE SMOOTH",
"190 360 OFFCURVE",
"200 370 OFFCURVE",
"200 400 CURVE SMOOTH",
"200 490 LINE SMOOTH",
"200 520 OFFCURVE",
"190 530 OFFCURVE",
"160 530 CURVE SMOOTH"
);
},
{
closed = 1;
nodes = (
"365 530 LINE SMOOTH",
"350 530 OFFCURVE",
"342 535 OFFCURVE",
"342 550 CURVE SMOOTH",
"342 564 OFFCURVE",
"347 574 OFFCURVE",
"354 583 CURVE SMOOTH",
"367 601 OFFCURVE",
"385 605 OFFCURVE",
"385 620 CURVE SMOOTH",
"385 630 LINE SMOOTH",
"385 643 OFFCURVE",
"379 650 OFFCURVE",
"365 650 CURVE SMOOTH",
"292 650 OFFCURVE",
"240 576 OFFCURVE",
"240 490 CURVE SMOOTH",
"240 400 LINE SMOOTH",
"240 370 OFFCURVE",
"250 360 OFFCURVE",
"280 360 CURVE SMOOTH",
"380 360 LINE SMOOTH",
"410 360 OFFCURVE",
"420 370 OFFCURVE",
"420 400 CURVE SMOOTH",
"420 490 LINE SMOOTH",
"420 520 OFFCURVE",
"410 530 OFFCURVE",
"380 530 CURVE SMOOTH"
);
}
);
width = 440;
}
);
leftKerningGroup = quotedblleft;
rightKerningGroup = quotedblleft;
unicode = 201C;
},
{
color = 5;
glyphname = quotedblright;
layers = (
{
layerId = m01;
paths = (
{
closed = 1;
nodes = (
"295 530 LINE SMOOTH",
"310 530 OFFCURVE",
"318 525 OFFCURVE",
"318 510 CURVE SMOOTH",
"318 496 OFFCURVE",
"313 486 OFFCURVE",
"306 477 CURVE SMOOTH",
"293 459 OFFCURVE",
"275 455 OFFCURVE",
"275 440 CURVE SMOOTH",
"275 430 LINE SMOOTH",
"275 417 OFFCURVE",
"281 410 OFFCURVE",
"295 410 CURVE SMOOTH",
"368 410 OFFCURVE",
"420 484 OFFCURVE",
"420 570 CURVE SMOOTH",
"420 660 LINE SMOOTH",
"420 690 OFFCURVE",
"410 700 OFFCURVE",
"380 700 CURVE SMOOTH",
"280 700 LINE SMOOTH",
"250 700 OFFCURVE",
"240 690 OFFCURVE",
"240 660 CURVE SMOOTH",
"240 570 LINE SMOOTH",
"240 540 OFFCURVE",
"250 530 OFFCURVE",
"280 530 CURVE SMOOTH"
);
},
{
closed = 1;
nodes = (
"75 530 LINE SMOOTH",
"90 530 OFFCURVE",
"98 525 OFFCURVE",
"98 510 CURVE SMOOTH",
"98 496 OFFCURVE",
"93 486 OFFCURVE",
"86 477 CURVE SMOOTH",
"73 459 OFFCURVE",
"55 455 OFFCURVE",
"55 440 CURVE SMOOTH",
"55 430 LINE SMOOTH",
"55 417 OFFCURVE",
"61 410 OFFCURVE",
"75 410 CURVE SMOOTH",
"148 410 OFFCURVE",
"200 484 OFFCURVE",
"200 570 CURVE SMOOTH",
"200 660 LINE SMOOTH",
"200 690 OFFCURVE",
"190 700 OFFCURVE",
"160 700 CURVE SMOOTH",
"60 700 LINE SMOOTH",
"30 700 OFFCURVE",
"20 690 OFFCURVE",
"20 660 CURVE SMOOTH",
"20 570 LINE SMOOTH",
"20 540 OFFCURVE",
"30 530 OFFCURVE",
"60 530 CURVE SMOOTH"
);
}
);
width = 440;
},
{
layerId = "6ABCF30A-460E-4EED-802C-9E4699B7E7F6";
paths = (
{
closed = 1;
nodes = (
"295 530 LINE SMOOTH",
"310 530 OFFCURVE",
"318 525 OFFCURVE",
"318 510 CURVE SMOOTH",
"318 496 OFFCURVE",
"313 486 OFFCURVE",
"306 477 CURVE SMOOTH",
"293 459 OFFCURVE",
"275 455 OFFCURVE",
"275 440 CURVE SMOOTH",
"275 430 LINE SMOOTH",
"275 417 OFFCURVE",
"281 410 OFFCURVE",
"295 410 CURVE SMOOTH",
"368 410 OFFCURVE",
"420 484 OFFCURVE",
"420 570 CURVE SMOOTH",
"420 660 LINE SMOOTH",
"420 690 OFFCURVE",
"410 700 OFFCURVE",
"380 700 CURVE SMOOTH",
"280 700 LINE SMOOTH",
"250 700 OFFCURVE",
"240 690 OFFCURVE",
"240 660 CURVE SMOOTH",
"240 570 LINE SMOOTH",
"240 540 OFFCURVE",
"250 530 OFFCURVE",
"280 530 CURVE SMOOTH"
);
},
{
closed = 1;
nodes = (
"75 530 LINE SMOOTH",
"90 530 OFFCURVE",
"98 525 OFFCURVE",
"98 510 CURVE SMOOTH",
"98 496 OFFCURVE",
"93 486 OFFCURVE",
"86 477 CURVE SMOOTH",
"73 459 OFFCURVE",
"55 455 OFFCURVE",
"55 440 CURVE SMOOTH",
"55 430 LINE SMOOTH",
"55 417 OFFCURVE",
"61 410 OFFCURVE",
"75 410 CURVE SMOOTH",
"148 410 OFFCURVE",
"200 484 OFFCURVE",
"200 570 CURVE SMOOTH",
"200 660 LINE SMOOTH",
"200 690 OFFCURVE",
"190 700 OFFCURVE",
"160 700 CURVE SMOOTH",
"60 700 LINE SMOOTH",
"30 700 OFFCURVE",
"20 690 OFFCURVE",
"20 660 CURVE SMOOTH",
"20 570 LINE SMOOTH",
"20 540 OFFCURVE",
"30 530 OFFCURVE",
"60 530 CURVE SMOOTH"
);
}
);
width = 440;
}
);
unicode = 201D;
},
{
color = 4;
glyphname = greater;
layers = (
{
layerId = m01;
paths = (
{
closed = 1;
nodes = (
"82 0 LINE SMOOTH",
"102 0 OFFCURVE",
"120 12 OFFCURVE",
"142 34 CURVE SMOOTH",
"368 255 LINE SMOOTH",
"423 308 OFFCURVE",
"436 325 OFFCURVE",
"436 350 CURVE SMOOTH",
"436 369 OFFCURVE",
"423 388 OFFCURVE",
"368 443 CURVE SMOOTH",
"142 666 LINE SMOOTH",
"118 689 OFFCURVE",
"102 700 OFFCURVE",
"82 700 CURVE SMOOTH",
"52 700 LINE SMOOTH",
"22 700 OFFCURVE",
"12 684 OFFCURVE",
"12 660 CURVE SMOOTH",
"12 598 LINE SMOOTH",
"12 571 OFFCURVE",
"31 551 OFFCURVE",
"51 532 CURVE SMOOTH",
"193 398 LINE SMOOTH",
"211 381 OFFCURVE",
"229 365 OFFCURVE",
"229 346 CURVE SMOOTH",
"229 327 OFFCURVE",
"210 310 OFFCURVE",
"193 294 CURVE SMOOTH",
"51 159 LINE SMOOTH",
"31 140 OFFCURVE",
"12 120 OFFCURVE",
"12 93 CURVE SMOOTH",
"12 40 LINE SMOOTH",
"12 16 OFFCURVE",
"22 0 OFFCURVE",
"52 0 CURVE SMOOTH"
);
}
);
width = 444;
},
{
layerId = "6ABCF30A-460E-4EED-802C-9E4699B7E7F6";
paths = (
{
closed = 1;
nodes = (
"82 0 LINE SMOOTH",
"102 0 OFFCURVE",
"120 12 OFFCURVE",
"142 34 CURVE SMOOTH",
"368 255 LINE SMOOTH",
"423 308 OFFCURVE",
"436 325 OFFCURVE",
"436 350 CURVE SMOOTH",
"436 369 OFFCURVE",
"423 388 OFFCURVE",
"368 443 CURVE SMOOTH",
"142 666 LINE SMOOTH",
"118 689 OFFCURVE",
"102 700 OFFCURVE",
"82 700 CURVE SMOOTH",
"52 700 LINE SMOOTH",
"22 700 OFFCURVE",
"12 684 OFFCURVE",
"12 660 CURVE SMOOTH",
"12 598 LINE SMOOTH",
"12 571 OFFCURVE",
"31 551 OFFCURVE",
"51 532 CURVE SMOOTH",
"193 398 LINE SMOOTH",
"211 381 OFFCURVE",
"229 365 OFFCURVE",
"229 346 CURVE SMOOTH",
"229 327 OFFCURVE",
"210 310 OFFCURVE",
"193 294 CURVE SMOOTH",
"51 159 LINE SMOOTH",
"31 140 OFFCURVE",
"12 120 OFFCURVE",
"12 93 CURVE SMOOTH",
"12 40 LINE SMOOTH",
"12 16 OFFCURVE",
"22 0 OFFCURVE",
"52 0 CURVE SMOOTH"
);
}
);
width = 444;
}
);
unicode = 003E;
},
{
color = 5;
glyphname = dieresiscomb.case;
layers = (
{
anchors = (
{
name = _top;
position = "{128, 700}";
},
{
name = top;
position = "{128, 851}";
}
);
layerId = m01;
paths = (
{
closed = 1;
nodes = (
"226 740 LINE SMOOTH",
"239 740 OFFCURVE",
"249 749 OFFCURVE",
"249 762 CURVE SMOOTH",
"249 830 LINE SMOOTH",
"249 843 OFFCURVE",
"239 853 OFFCURVE",
"226 853 CURVE SMOOTH",
"168 853 LINE SMOOTH",
"155 853 OFFCURVE",
"146 843 OFFCURVE",
"146 830 CURVE SMOOTH",
"146 762 LINE SMOOTH",
"146 749 OFFCURVE",
"155 740 OFFCURVE",
"168 740 CURVE SMOOTH"
);
},
{
closed = 1;
nodes = (
"87 740 LINE SMOOTH",
"100 740 OFFCURVE",
"110 749 OFFCURVE",
"110 762 CURVE SMOOTH",
"110 830 LINE SMOOTH",
"110 843 OFFCURVE",
"100 853 OFFCURVE",
"87 853 CURVE SMOOTH",
"29 853 LINE SMOOTH",
"16 853 OFFCURVE",
"7 843 OFFCURVE",
"7 830 CURVE SMOOTH",
"7 762 LINE SMOOTH",
"7 749 OFFCURVE",
"16 740 OFFCURVE",
"29 740 CURVE SMOOTH"
);
}
);
width = 256;
},
{
anchors = (
{
name = _top;
position = "{128, 700}";
},
{
name = top;
position = "{128, 851}";
}
);
layerId = "6ABCF30A-460E-4EED-802C-9E4699B7E7F6";
paths = (
{
closed = 1;
nodes = (
"226 740 LINE SMOOTH",
"239 740 OFFCURVE",
"249 749 OFFCURVE",
"249 762 CURVE SMOOTH",
"249 830 LINE SMOOTH",
"249 843 OFFCURVE",
"239 853 OFFCURVE",
"226 853 CURVE SMOOTH",
"168 853 LINE SMOOTH",
"155 853 OFFCURVE",
"146 843 OFFCURVE",
"146 830 CURVE SMOOTH",
"146 762 LINE SMOOTH",
"146 749 OFFCURVE",
"155 740 OFFCURVE",
"168 740 CURVE SMOOTH"
);
},
{
closed = 1;
nodes = (
"87 740 LINE SMOOTH",
"100 740 OFFCURVE",
"110 749 OFFCURVE",
"110 762 CURVE SMOOTH",
"110 830 LINE SMOOTH",
"110 843 OFFCURVE",
"100 853 OFFCURVE",
"87 853 CURVE SMOOTH",
"29 853 LINE SMOOTH",
"16 853 OFFCURVE",
"7 843 OFFCURVE",
"7 830 CURVE SMOOTH",
"7 762 LINE SMOOTH",
"7 749 OFFCURVE",
"16 740 OFFCURVE",
"29 740 CURVE SMOOTH"
);
}
);
width = 256;
}
);
},
{
color = 5;
glyphname = gravecomb.case;
layers = (
{
anchors = (
{
name = _top;
position = "{125, 700}";
},
{
name = top;
position = "{85, 890}";
}
);
layerId = m01;
paths = (
{
closed = 1;
nodes = (
"131 750 LINE SMOOTH",
"161 750 OFFCURVE",
"181 760 OFFCURVE",
"171 790 CURVE SMOOTH",
"151 850 LINE SMOOTH",
"141 880 OFFCURVE",
"141 890 OFFCURVE",
"111 890 CURVE SMOOTH",
"56 890 LINE SMOOTH",
"26 890 OFFCURVE",
"11 876 OFFCURVE",
"26 850 CURVE SMOOTH",
"61 790 LINE SMOOTH",
"76 764 OFFCURVE",
"86 750 OFFCURVE",
"106 750 CURVE SMOOTH"
);
}
);
width = 256;
},
{
anchors = (
{
name = _top;
position = "{125, 700}";
},
{
name = top;
position = "{85, 890}";
}
);
layerId = "6ABCF30A-460E-4EED-802C-9E4699B7E7F6";
paths = (
{
closed = 1;
nodes = (
"131 750 LINE SMOOTH",
"161 750 OFFCURVE",
"181 760 OFFCURVE",
"171 790 CURVE SMOOTH",
"151 850 LINE SMOOTH",
"141 880 OFFCURVE",
"141 890 OFFCURVE",
"111 890 CURVE SMOOTH",
"56 890 LINE SMOOTH",
"26 890 OFFCURVE",
"11 876 OFFCURVE",
"26 850 CURVE SMOOTH",
"61 790 LINE SMOOTH",
"76 764 OFFCURVE",
"86 750 OFFCURVE",
"106 750 CURVE SMOOTH"
);
}
);
width = 256;
}
);
},
{
color = 5;
glyphname = acutecomb.case;
layers = (
{
anchors = (
{
name = _top;
position = "{120, 700}";
}
);
layerId = m01;
paths = (
{
closed = 1;
nodes = (
"153 740 LINE SMOOTH",
"163 740 OFFCURVE",
"173 739 OFFCURVE",
"190 760 CURVE SMOOTH",
"246 831 LINE SMOOTH",
"254 842 OFFCURVE",
"260 849 OFFCURVE",
"260 859 CURVE SMOOTH",
"260 873 OFFCURVE",
"250 879 OFFCURVE",
"230 879 CURVE SMOOTH",
"143 879 LINE SMOOTH",
"123 879 OFFCURVE",
"118 880 OFFCURVE",
"103 849 CURVE SMOOTH",
"73 786 LINE SMOOTH",
"66 771 OFFCURVE",
"63 765 OFFCURVE",
"63 760 CURVE SMOOTH",
"63 750 OFFCURVE",
"68 740 OFFCURVE",
"83 740 CURVE SMOOTH"
);
}
);
width = 240;
},
{
anchors = (
{
name = _top;
position = "{120, 700}";
}
);
layerId = "6ABCF30A-460E-4EED-802C-9E4699B7E7F6";
paths = (
{
closed = 1;
nodes = (
"153 740 LINE SMOOTH",
"163 740 OFFCURVE",
"173 739 OFFCURVE",
"190 760 CURVE SMOOTH",
"246 831 LINE SMOOTH",
"254 842 OFFCURVE",
"260 849 OFFCURVE",
"260 859 CURVE SMOOTH",
"260 873 OFFCURVE",
"250 879 OFFCURVE",
"230 879 CURVE SMOOTH",
"143 879 LINE SMOOTH",
"123 879 OFFCURVE",
"118 880 OFFCURVE",
"103 849 CURVE SMOOTH",
"73 786 LINE SMOOTH",
"66 771 OFFCURVE",
"63 765 OFFCURVE",
"63 760 CURVE SMOOTH",
"63 750 OFFCURVE",
"68 740 OFFCURVE",
"83 740 CURVE SMOOTH"
);
}
);
width = 240;
}
);
},
{
color = 5;
glyphname = circumflexcomb.case;
layers = (
{
anchors = (
{
name = _top;
position = "{130, 700}";
},
{
name = top;
position = "{130, 870}";
}
);
layerId = m01;
paths = (
{
closed = 1;
nodes = (
"30 740 LINE SMOOTH",
"45 740 OFFCURVE",
"53 749 OFFCURVE",
"70 760 CURVE SMOOTH",
"110 785 LINE SMOOTH",
"119 791 OFFCURVE",
"124 794 OFFCURVE",
"130 794 CURVE SMOOTH",
"136 794 OFFCURVE",
"143 791 OFFCURVE",
"150 786 CURVE SMOOTH",
"190 760 LINE SMOOTH",
"206 750 OFFCURVE",
"215 740 OFFCURVE",
"230 740 CURVE SMOOTH",
"245 740 LINE SMOOTH",
"258 740 OFFCURVE",
"265 745 OFFCURVE",
"265 754 CURVE SMOOTH",
"265 766 OFFCURVE",
"257 779 OFFCURVE",
"245 795 CURVE SMOOTH",
"204 850 LINE SMOOTH",
"188 871 OFFCURVE",
"177 880 OFFCURVE",
"160 880 CURVE SMOOTH",
"100 880 LINE SMOOTH",
"83 880 OFFCURVE",
"66 871 OFFCURVE",
"52 850 CURVE SMOOTH",
"14 795 LINE SMOOTH",
"3 779 OFFCURVE",
"-5 767 OFFCURVE",
"-5 754 CURVE SMOOTH",
"-5 745 OFFCURVE",
"2 740 OFFCURVE",
"15 740 CURVE SMOOTH"
);
}
);
width = 260;
},
{
anchors = (
{
name = _top;
position = "{130, 700}";
},
{
name = top;
position = "{130, 870}";
}
);
layerId = "6ABCF30A-460E-4EED-802C-9E4699B7E7F6";
paths = (
{
closed = 1;
nodes = (
"30 740 LINE SMOOTH",
"45 740 OFFCURVE",
"53 749 OFFCURVE",
"70 760 CURVE SMOOTH",
"110 785 LINE SMOOTH",
"119 791 OFFCURVE",
"124 794 OFFCURVE",
"130 794 CURVE SMOOTH",
"136 794 OFFCURVE",
"143 791 OFFCURVE",
"150 786 CURVE SMOOTH",
"190 760 LINE SMOOTH",
"206 750 OFFCURVE",
"215 740 OFFCURVE",
"230 740 CURVE SMOOTH",
"245 740 LINE SMOOTH",
"258 740 OFFCURVE",
"265 745 OFFCURVE",
"265 754 CURVE SMOOTH",
"265 766 OFFCURVE",
"257 779 OFFCURVE",
"245 795 CURVE SMOOTH",
"204 850 LINE SMOOTH",
"188 871 OFFCURVE",
"177 880 OFFCURVE",
"160 880 CURVE SMOOTH",
"100 880 LINE SMOOTH",
"83 880 OFFCURVE",
"66 871 OFFCURVE",
"52 850 CURVE SMOOTH",
"14 795 LINE SMOOTH",
"3 779 OFFCURVE",
"-5 767 OFFCURVE",
"-5 754 CURVE SMOOTH",
"-5 745 OFFCURVE",
"2 740 OFFCURVE",
"15 740 CURVE SMOOTH"
);
}
);
width = 260;
}
);
},
{
color = 5;
glyphname = ringcomb.case;
layers = (
{
anchors = (
{
name = _top;
position = "{125, 700}";
},
{
name = top;
position = "{125, 866}";
}
);
layerId = m01;
paths = (
{
closed = 1;
nodes = (
"169 740 OFFCURVE",
"205 771 OFFCURVE",
"205 815 CURVE SMOOTH",
"205 859 OFFCURVE",
"169 890 OFFCURVE",
"125 890 CURVE SMOOTH",
"81 890 OFFCURVE",
"45 859 OFFCURVE",
"45 815 CURVE SMOOTH",
"45 771 OFFCURVE",
"81 740 OFFCURVE",
"125 740 CURVE SMOOTH"
);
},
{
closed = 1;
nodes = (
"108 785 OFFCURVE",
"95 798 OFFCURVE",
"95 815 CURVE SMOOTH",
"95 832 OFFCURVE",
"108 845 OFFCURVE",
"125 845 CURVE SMOOTH",
"142 845 OFFCURVE",
"155 832 OFFCURVE",
"155 815 CURVE SMOOTH",
"155 798 OFFCURVE",
"142 785 OFFCURVE",
"125 785 CURVE SMOOTH"
);
}
);
width = 256;
},
{
anchors = (
{
name = _top;
position = "{125, 700}";
},
{
name = top;
position = "{125, 866}";
}
);
layerId = "6ABCF30A-460E-4EED-802C-9E4699B7E7F6";
paths = (
{
closed = 1;
nodes = (
"169 740 OFFCURVE",
"205 771 OFFCURVE",
"205 815 CURVE SMOOTH",
"205 859 OFFCURVE",
"169 890 OFFCURVE",
"125 890 CURVE SMOOTH",
"81 890 OFFCURVE",
"45 859 OFFCURVE",
"45 815 CURVE SMOOTH",
"45 771 OFFCURVE",
"81 740 OFFCURVE",
"125 740 CURVE SMOOTH"
);
},
{
closed = 1;
nodes = (
"108 785 OFFCURVE",
"95 798 OFFCURVE",
"95 815 CURVE SMOOTH",
"95 832 OFFCURVE",
"108 845 OFFCURVE",
"125 845 CURVE SMOOTH",
"142 845 OFFCURVE",
"155 832 OFFCURVE",
"155 815 CURVE SMOOTH",
"155 798 OFFCURVE",
"142 785 OFFCURVE",
"125 785 CURVE SMOOTH"
);
}
);
width = 256;
}
);
},
{
color = 5;
glyphname = tildecomb.case;
layers = (
{
anchors = (
{
name = _top;
position = "{125, 700}";
},
{
name = top;
position = "{153, 890}";
}
);
layerId = m01;
paths = (
{
closed = 1;
nodes = (
"60 750 OFFCURVE",
"76 800 OFFCURVE",
"103 800 CURVE SMOOTH",
"142 800 OFFCURVE",
"159 764 OFFCURVE",
"196 764 CURVE SMOOTH",
"233 764 OFFCURVE",
"266 833 OFFCURVE",
"266 850 CURVE SMOOTH",
"266 875 OFFCURVE",
"263 885 OFFCURVE",
"243 885 CURVE SMOOTH",
"229 885 OFFCURVE",
"198 850 OFFCURVE",
"187 850 CURVE SMOOTH",
"148 850 OFFCURVE",
"132 890 OFFCURVE",
"93 890 CURVE SMOOTH",
"63 890 OFFCURVE",
"2 810 OFFCURVE",
"2 790 CURVE SMOOTH",
"2 767 OFFCURVE",
"8 750 OFFCURVE",
"27 750 CURVE SMOOTH"
);
}
);
width = 256;
},
{
anchors = (
{
name = _top;
position = "{125, 700}";
},
{
name = top;
position = "{153, 890}";
}
);
layerId = "6ABCF30A-460E-4EED-802C-9E4699B7E7F6";
paths = (
{
closed = 1;
nodes = (
"60 750 OFFCURVE",
"76 800 OFFCURVE",
"103 800 CURVE SMOOTH",
"142 800 OFFCURVE",
"159 764 OFFCURVE",
"196 764 CURVE SMOOTH",
"233 764 OFFCURVE",
"266 833 OFFCURVE",
"266 850 CURVE SMOOTH",
"266 875 OFFCURVE",
"263 885 OFFCURVE",
"243 885 CURVE SMOOTH",
"229 885 OFFCURVE",
"198 850 OFFCURVE",
"187 850 CURVE SMOOTH",
"148 850 OFFCURVE",
"132 890 OFFCURVE",
"93 890 CURVE SMOOTH",
"63 890 OFFCURVE",
"2 810 OFFCURVE",
"2 790 CURVE SMOOTH",
"2 767 OFFCURVE",
"8 750 OFFCURVE",
"27 750 CURVE SMOOTH"
);
}
);
width = 256;
}
);
},
{
color = 5;
glyphname = dieresis;
layers = (
{
layerId = m01;
paths = (
{
closed = 1;
nodes = (
"283 627 LINE SMOOTH",
"296 627 OFFCURVE",
"306 636 OFFCURVE",
"306 649 CURVE SMOOTH",
"306 687 LINE SMOOTH",
"306 700 OFFCURVE",
"296 710 OFFCURVE",
"283 710 CURVE SMOOTH",
"245 710 LINE SMOOTH",
"232 710 OFFCURVE",
"223 700 OFFCURVE",
"223 687 CURVE SMOOTH",
"223 649 LINE SMOOTH",
"223 636 OFFCURVE",
"232 627 OFFCURVE",
"245 627 CURVE SMOOTH"
);
},
{
closed = 1;
nodes = (
"130 627 LINE SMOOTH",
"143 627 OFFCURVE",
"153 636 OFFCURVE",
"153 649 CURVE SMOOTH",
"153 687 LINE SMOOTH",
"153 700 OFFCURVE",
"143 710 OFFCURVE",
"130 710 CURVE SMOOTH",
"92 710 LINE SMOOTH",
"79 710 OFFCURVE",
"70 700 OFFCURVE",
"70 687 CURVE SMOOTH",
"70 649 LINE SMOOTH",
"70 636 OFFCURVE",
"79 627 OFFCURVE",
"92 627 CURVE SMOOTH"
);
}
);
width = 376;
},
{
layerId = "6ABCF30A-460E-4EED-802C-9E4699B7E7F6";
paths = (
{
closed = 1;
nodes = (
"283 627 LINE SMOOTH",
"296 627 OFFCURVE",
"306 636 OFFCURVE",
"306 649 CURVE SMOOTH",
"306 687 LINE SMOOTH",
"306 700 OFFCURVE",
"296 710 OFFCURVE",
"283 710 CURVE SMOOTH",
"245 710 LINE SMOOTH",
"232 710 OFFCURVE",
"223 700 OFFCURVE",
"223 687 CURVE SMOOTH",
"223 649 LINE SMOOTH",
"223 636 OFFCURVE",
"232 627 OFFCURVE",
"245 627 CURVE SMOOTH"
);
},
{
closed = 1;
nodes = (
"130 627 LINE SMOOTH",
"143 627 OFFCURVE",
"153 636 OFFCURVE",
"153 649 CURVE SMOOTH",
"153 687 LINE SMOOTH",
"153 700 OFFCURVE",
"143 710 OFFCURVE",
"130 710 CURVE SMOOTH",
"92 710 LINE SMOOTH",
"79 710 OFFCURVE",
"70 700 OFFCURVE",
"70 687 CURVE SMOOTH",
"70 649 LINE SMOOTH",
"70 636 OFFCURVE",
"79 627 OFFCURVE",
"92 627 CURVE SMOOTH"
);
}
);
width = 600;
}
);
unicode = 00A8;
userData = {
com.typemytype.robofont.guides = (
{
angle = 0;
isGlobal = 0;
magnetic = 5;
x = 0;
y = 575;
},
{
angle = 90;
isGlobal = 0;
magnetic = 5;
x = 153;
y = 0;
}
);
};
},
{
color = 5;
glyphname = grave;
layers = (
{
layerId = m01;
paths = (
{
closed = 1;
nodes = (
"225 595 LINE SMOOTH",
"235 595 OFFCURVE",
"241 601 OFFCURVE",
"241 611 CURVE SMOOTH",
"241 616 OFFCURVE",
"239 621 OFFCURVE",
"236 624 CURVE SMOOTH",
"167 707 LINE SMOOTH",
"156 720 OFFCURVE",
"150 725 OFFCURVE",
"130 725 CURVE SMOOTH",
"89 725 LINE SMOOTH",
"77 725 OFFCURVE",
"70 718 OFFCURVE",
"70 706 CURVE SMOOTH",
"70 701 OFFCURVE",
"72 697 OFFCURVE",
"75 694 CURVE SMOOTH",
"184 605 LINE SMOOTH",
"195 596 OFFCURVE",
"202 595 OFFCURVE",
"215 595 CURVE SMOOTH"
);
}
);
width = 311;
},
{
layerId = "6ABCF30A-460E-4EED-802C-9E4699B7E7F6";
paths = (
{
closed = 1;
nodes = (
"225 595 LINE SMOOTH",
"235 595 OFFCURVE",
"241 601 OFFCURVE",
"241 611 CURVE SMOOTH",
"241 616 OFFCURVE",
"239 621 OFFCURVE",
"236 624 CURVE SMOOTH",
"167 707 LINE SMOOTH",
"156 720 OFFCURVE",
"150 725 OFFCURVE",
"130 725 CURVE SMOOTH",
"89 725 LINE SMOOTH",
"77 725 OFFCURVE",
"70 718 OFFCURVE",
"70 706 CURVE SMOOTH",
"70 701 OFFCURVE",
"72 697 OFFCURVE",
"75 694 CURVE SMOOTH",
"184 605 LINE SMOOTH",
"195 596 OFFCURVE",
"202 595 OFFCURVE",
"215 595 CURVE SMOOTH"
);
}
);
width = 600;
}
);
unicode = 0060;
userData = {
com.typemytype.robofont.guides = (
{
angle = 0;
isGlobal = 0;
magnetic = 5;
x = 0;
y = 595;
},
{
angle = 0;
isGlobal = 0;
magnetic = 5;
x = 0;
y = 725;
}
);
};
},
{
color = 5;
glyphname = acute;
layers = (
{
layerId = m01;
paths = (
{
closed = 1;
nodes = (
"96 595 LINE SMOOTH",
"109 595 OFFCURVE",
"116 596 OFFCURVE",
"127 605 CURVE SMOOTH",
"236 694 LINE SMOOTH",
"239 697 OFFCURVE",
"241 701 OFFCURVE",
"241 706 CURVE SMOOTH",
"241 718 OFFCURVE",
"234 725 OFFCURVE",
"222 725 CURVE SMOOTH",
"181 725 LINE SMOOTH",
"161 725 OFFCURVE",
"155 720 OFFCURVE",
"144 707 CURVE SMOOTH",
"75 624 LINE SMOOTH",
"72 621 OFFCURVE",
"70 616 OFFCURVE",
"70 611 CURVE SMOOTH",
"70 601 OFFCURVE",
"76 595 OFFCURVE",
"86 595 CURVE SMOOTH"
);
}
);
width = 311;
},
{
layerId = "6ABCF30A-460E-4EED-802C-9E4699B7E7F6";
paths = (
{
closed = 1;
nodes = (
"96 595 LINE SMOOTH",
"109 595 OFFCURVE",
"116 596 OFFCURVE",
"127 605 CURVE SMOOTH",
"236 694 LINE SMOOTH",
"239 697 OFFCURVE",
"241 701 OFFCURVE",
"241 706 CURVE SMOOTH",
"241 718 OFFCURVE",
"234 725 OFFCURVE",
"222 725 CURVE SMOOTH",
"181 725 LINE SMOOTH",
"161 725 OFFCURVE",
"155 720 OFFCURVE",
"144 707 CURVE SMOOTH",
"75 624 LINE SMOOTH",
"72 621 OFFCURVE",
"70 616 OFFCURVE",
"70 611 CURVE SMOOTH",
"70 601 OFFCURVE",
"76 595 OFFCURVE",
"86 595 CURVE SMOOTH"
);
}
);
width = 600;
}
);
unicode = 00B4;
userData = {
com.typemytype.robofont.guides = (
{
angle = 0;
isGlobal = 0;
magnetic = 5;
x = 0;
y = 595;
}
);
};
},
{
color = 5;
glyphname = circumflex;
layers = (
{
layerId = m01;
paths = (
{
closed = 1;
nodes = (
"101 595 LINE SMOOTH",
"109 595 OFFCURVE",
"121 598 OFFCURVE",
"126 602 CURVE SMOOTH",
"206 662 LINE",
"286 602 LINE SMOOTH",
"291 598 OFFCURVE",
"303 595 OFFCURVE",
"311 595 CURVE SMOOTH",
"328 595 LINE SMOOTH",
"338 595 OFFCURVE",
"342 598 OFFCURVE",
"342 606 CURVE SMOOTH",
"342 612 OFFCURVE",
"338 618 OFFCURVE",
"330 626 CURVE SMOOTH",
"243 711 LINE SMOOTH",
"229 725 OFFCURVE",
"221 725 OFFCURVE",
"211 725 CURVE SMOOTH",
"201 725 LINE SMOOTH",
"191 725 OFFCURVE",
"183 725 OFFCURVE",
"169 711 CURVE SMOOTH",
"82 626 LINE SMOOTH",
"74 618 OFFCURVE",
"70 612 OFFCURVE",
"70 606 CURVE SMOOTH",
"70 598 OFFCURVE",
"74 595 OFFCURVE",
"84 595 CURVE SMOOTH"
);
}
);
width = 412;
},
{
layerId = "6ABCF30A-460E-4EED-802C-9E4699B7E7F6";
paths = (
{
closed = 1;
nodes = (
"101 595 LINE SMOOTH",
"109 595 OFFCURVE",
"121 598 OFFCURVE",
"126 602 CURVE SMOOTH",
"206 662 LINE",
"286 602 LINE SMOOTH",
"291 598 OFFCURVE",
"303 595 OFFCURVE",
"311 595 CURVE SMOOTH",
"328 595 LINE SMOOTH",
"338 595 OFFCURVE",
"342 598 OFFCURVE",
"342 606 CURVE SMOOTH",
"342 612 OFFCURVE",
"338 618 OFFCURVE",
"330 626 CURVE SMOOTH",
"243 711 LINE SMOOTH",
"229 725 OFFCURVE",
"221 725 OFFCURVE",
"211 725 CURVE SMOOTH",
"201 725 LINE SMOOTH",
"191 725 OFFCURVE",
"183 725 OFFCURVE",
"169 711 CURVE SMOOTH",
"82 626 LINE SMOOTH",
"74 618 OFFCURVE",
"70 612 OFFCURVE",
"70 606 CURVE SMOOTH",
"70 598 OFFCURVE",
"74 595 OFFCURVE",
"84 595 CURVE SMOOTH"
);
}
);
width = 600;
}
);
unicode = 02C6;
userData = {
com.typemytype.robofont.guides = (
{
angle = 0;
isGlobal = 0;
magnetic = 5;
x = 0;
y = 595;
}
);
};
},
{
color = 5;
glyphname = caron;
layers = (
{
layerId = m01;
paths = (
{
closed = 1;
nodes = (
"390 660 LINE SMOOTH",
"375 660 OFFCURVE",
"367 651 OFFCURVE",
"350 640 CURVE SMOOTH",
"310 615 LINE SMOOTH",
"301 609 OFFCURVE",
"296 606 OFFCURVE",
"290 606 CURVE SMOOTH",
"284 606 OFFCURVE",
"277 609 OFFCURVE",
"270 614 CURVE SMOOTH",
"230 640 LINE SMOOTH",
"214 650 OFFCURVE",
"205 660 OFFCURVE",
"190 660 CURVE SMOOTH",
"175 660 LINE SMOOTH",
"162 660 OFFCURVE",
"155 655 OFFCURVE",
"155 646 CURVE SMOOTH",
"155 634 OFFCURVE",
"163 621 OFFCURVE",
"175 605 CURVE SMOOTH",
"216 550 LINE SMOOTH",
"232 529 OFFCURVE",
"243 520 OFFCURVE",
"260 520 CURVE SMOOTH",
"320 520 LINE SMOOTH",
"337 520 OFFCURVE",
"354 529 OFFCURVE",
"368 550 CURVE SMOOTH",
"406 605 LINE SMOOTH",
"417 621 OFFCURVE",
"425 633 OFFCURVE",
"425 646 CURVE SMOOTH",
"425 655 OFFCURVE",
"418 660 OFFCURVE",
"405 660 CURVE SMOOTH"
);
}
);
width = 600;
},
{
layerId = "6ABCF30A-460E-4EED-802C-9E4699B7E7F6";
paths = (
{
closed = 1;
nodes = (
"390 660 LINE SMOOTH",
"375 660 OFFCURVE",
"367 651 OFFCURVE",
"350 640 CURVE SMOOTH",
"310 615 LINE SMOOTH",
"301 609 OFFCURVE",
"296 606 OFFCURVE",
"290 606 CURVE SMOOTH",
"284 606 OFFCURVE",
"277 609 OFFCURVE",
"270 614 CURVE SMOOTH",
"230 640 LINE SMOOTH",
"214 650 OFFCURVE",
"205 660 OFFCURVE",
"190 660 CURVE SMOOTH",
"175 660 LINE SMOOTH",
"162 660 OFFCURVE",
"155 655 OFFCURVE",
"155 646 CURVE SMOOTH",
"155 634 OFFCURVE",
"163 621 OFFCURVE",
"175 605 CURVE SMOOTH",
"216 550 LINE SMOOTH",
"232 529 OFFCURVE",
"243 520 OFFCURVE",
"260 520 CURVE SMOOTH",
"320 520 LINE SMOOTH",
"337 520 OFFCURVE",
"354 529 OFFCURVE",
"368 550 CURVE SMOOTH",
"406 605 LINE SMOOTH",
"417 621 OFFCURVE",
"425 633 OFFCURVE",
"425 646 CURVE SMOOTH",
"425 655 OFFCURVE",
"418 660 OFFCURVE",
"405 660 CURVE SMOOTH"
);
}
);
width = 600;
}
);
unicode = 02C7;
},
{
color = 5;
glyphname = ring;
layers = (
{
layerId = m01;
paths = (
{
closed = 1;
nodes = (
"194 590 OFFCURVE",
"230 621 OFFCURVE",
"230 665 CURVE SMOOTH",
"230 709 OFFCURVE",
"194 740 OFFCURVE",
"150 740 CURVE SMOOTH",
"106 740 OFFCURVE",
"70 709 OFFCURVE",
"70 665 CURVE SMOOTH",
"70 621 OFFCURVE",
"106 590 OFFCURVE",
"150 590 CURVE SMOOTH"
);
},
{
closed = 1;
nodes = (
"133 635 OFFCURVE",
"120 648 OFFCURVE",
"120 665 CURVE SMOOTH",
"120 682 OFFCURVE",
"133 695 OFFCURVE",
"150 695 CURVE SMOOTH",
"167 695 OFFCURVE",
"180 682 OFFCURVE",
"180 665 CURVE SMOOTH",
"180 648 OFFCURVE",
"167 635 OFFCURVE",
"150 635 CURVE SMOOTH"
);
}
);
width = 300;
},
{
layerId = "6ABCF30A-460E-4EED-802C-9E4699B7E7F6";
paths = (
{
closed = 1;
nodes = (
"194 590 OFFCURVE",
"230 621 OFFCURVE",
"230 665 CURVE SMOOTH",
"230 709 OFFCURVE",
"194 740 OFFCURVE",
"150 740 CURVE SMOOTH",
"106 740 OFFCURVE",
"70 709 OFFCURVE",
"70 665 CURVE SMOOTH",
"70 621 OFFCURVE",
"106 590 OFFCURVE",
"150 590 CURVE SMOOTH"
);
},
{
closed = 1;
nodes = (
"133 635 OFFCURVE",
"120 648 OFFCURVE",
"120 665 CURVE SMOOTH",
"120 682 OFFCURVE",
"133 695 OFFCURVE",
"150 695 CURVE SMOOTH",
"167 695 OFFCURVE",
"180 682 OFFCURVE",
"180 665 CURVE SMOOTH",
"180 648 OFFCURVE",
"167 635 OFFCURVE",
"150 635 CURVE SMOOTH"
);
}
);
width = 600;
}
);
unicode = 02DA;
userData = {
com.typemytype.robofont.guides = (
{
angle = 0;
isGlobal = 0;
magnetic = 5;
x = 0;
y = 590;
}
);
};
},
{
color = 5;
glyphname = tilde;
layers = (
{
layerId = m01;
paths = (
{
closed = 1;
nodes = (
"277 590 OFFCURVE",
"309 626 OFFCURVE",
"309 664 CURVE SMOOTH",
"309 672 OFFCURVE",
"303 680 OFFCURVE",
"293 680 CURVE SMOOTH",
"273 680 LINE SMOOTH",
"251 680 OFFCURVE",
"256 650 OFFCURVE",
"232 650 CURVE SMOOTH",
"203 650 OFFCURVE",
"188 684 OFFCURVE",
"141 684 CURVE SMOOTH",
"100 684 OFFCURVE",
"70 649 OFFCURVE",
"70 611 CURVE SMOOTH",
"70 603 OFFCURVE",
"76 595 OFFCURVE",
"86 595 CURVE SMOOTH",
"106 595 LINE SMOOTH",
"127 595 OFFCURVE",
"124 624 OFFCURVE",
"147 624 CURVE SMOOTH",
"175 624 OFFCURVE",
"191 590 OFFCURVE",
"237 590 CURVE SMOOTH"
);
}
);
width = 379;
},
{
layerId = "6ABCF30A-460E-4EED-802C-9E4699B7E7F6";
paths = (
{
closed = 1;
nodes = (
"277 590 OFFCURVE",
"309 626 OFFCURVE",
"309 664 CURVE SMOOTH",
"309 672 OFFCURVE",
"303 680 OFFCURVE",
"293 680 CURVE SMOOTH",
"273 680 LINE SMOOTH",
"251 680 OFFCURVE",
"256 650 OFFCURVE",
"232 650 CURVE SMOOTH",
"203 650 OFFCURVE",
"188 684 OFFCURVE",
"141 684 CURVE SMOOTH",
"100 684 OFFCURVE",
"70 649 OFFCURVE",
"70 611 CURVE SMOOTH",
"70 603 OFFCURVE",
"76 595 OFFCURVE",
"86 595 CURVE SMOOTH",
"106 595 LINE SMOOTH",
"127 595 OFFCURVE",
"124 624 OFFCURVE",
"147 624 CURVE SMOOTH",
"175 624 OFFCURVE",
"191 590 OFFCURVE",
"237 590 CURVE SMOOTH"
);
}
);
width = 600;
}
);
unicode = 02DC;
userData = {
com.typemytype.robofont.guides = (
{
angle = 0;
isGlobal = 0;
magnetic = 5;
x = 0;
y = 680;
},
{
angle = 0;
isGlobal = 0;
magnetic = 5;
x = 0;
y = 595;
},
{
angle = 90;
isGlobal = 0;
magnetic = 5;
x = 179;
y = 0;
}
);
};
},
